<svg xmlns="http://www.w3.org/2000/svg" width="1920" height="1080"><path d="M-93,-167L268,-157L524,-169Z" fill="#fff0ab" stroke="#fff0ab" stroke-width="1.51"/><path d="M212,1246L124,1254L931,1254Z" fill="#c1744a" stroke="#c1744a" stroke-width="1.51"/><path d="M524,-169L941,-154L1228,-161Z" fill="#ffca84" stroke="#ffca84" stroke-width="1.51"/><path d="M1177,1238L931,1254L1555,1237Z" fill="#be2f2b" stroke="#be2f2b" stroke-width="1.51"/><path d="M524,-169L1228,-161L1888,-170Z" fill="#ffb079" stroke="#ffb079" stroke-width="1.51"/><path d="M1228,-161L1441,-140L1888,-170Z" fill="#fe9d6f" stroke="#fe9d6f" stroke-width="1.51"/><path d="M1441,-140L1513,-125L1888,-170Z" fill="#f7996d" stroke="#f7996d" stroke-width="1.51"/><path d="M1984,-18L2031,73L2050,-65Z" fill="#ce8460" stroke="#ce8460" stroke-width="1.51"/><path d="M2014,181L1944,292L2095,357Z" fill="#cb7042" stroke="#cb7042" stroke-width="1.51"/><path d="M2031,73L2014,181L2095,357Z" fill="#c8764a" stroke="#c8764a" stroke-width="1.51"/><path d="M2068,441L2083,547L2095,357Z" fill="#c25a36" stroke="#c25a36" stroke-width="1.51"/><path d="M1982,722L2081,793L2099,666Z" fill="#c32b29" stroke="#c32b29" stroke-width="1.51"/><path d="M2083,547L1949,628L2099,666Z" fill="#c5442e" stroke="#c5442e" stroke-width="1.51"/><path d="M2095,357L2083,547L2099,666Z" fill="#c05233" stroke="#c05233" stroke-width="1.51"/><path d="M1888,-170L1910,-144L2106,-156Z" fill="#d78e71" stroke="#d78e71" stroke-width="1.51"/><path d="M2031,73L2095,357L2106,-156Z" fill="#c77d56" stroke="#c77d56" stroke-width="1.51"/><path d="M2050,-65L2031,73L2106,-156Z" fill="#ca8565" stroke="#ca8565" stroke-width="1.51"/><path d="M1762,1208L1649,1222L2112,1224Z" fill="#a30026" stroke="#a30026" stroke-width="1.51"/><path d="M1649,1222L1555,1237L2112,1224Z" fill="#a60226" stroke="#a60226" stroke-width="1.51"/><path d="M1937,1159L1762,1208L2112,1224Z" fill="#9c0026" stroke="#9c0026" stroke-width="1.51"/><path d="M2004,1140L1937,1159L2112,1224Z" fill="#970026" stroke="#970026" stroke-width="1.51"/><path d="M2096,1077L2004,1140L2112,1224Z" fill="#960026" stroke="#960026" stroke-width="1.51"/><path d="M1994,1030L2096,1077L2114,939Z" fill="#aa0425" stroke="#aa0425" stroke-width="1.51"/><path d="M2060,856L1994,1030L2114,939Z" fill="#b20924" stroke="#b20924" stroke-width="1.51"/><path d="M2081,793L2060,856L2114,939Z" fill="#b61424" stroke="#b61424" stroke-width="1.51"/><path d="M2099,666L2081,793L2114,939Z" fill="#b91f27" stroke="#b91f27" stroke-width="1.51"/><path d="M2106,-156L2095,357L2114,939Z" fill="#c06139" stroke="#c06139" stroke-width="1.51"/><path d="M2095,357L2099,666L2114,939Z" fill="#be3a2d" stroke="#be3a2d" stroke-width="1.51"/><path d="M2096,1077L2112,1224L2114,939Z" fill="#9f0026" stroke="#9f0026" stroke-width="1.51"/><path d="M1910,-144L2050,-65L2106,-156Z" fill="#d08a6d" stroke="#d08a6d" stroke-width="1.51"/><path d="M1960,850L1994,1030L2060,856Z" fill="#bb0b23" stroke="#bb0b23" stroke-width="1.51"/><path d="M1949,628L1982,722L2099,666Z" fill="#c9382b" stroke="#c9382b" stroke-width="1.51"/><path d="M2068,441L1935,524L2083,547Z" fill="#c75633" stroke="#c75633" stroke-width="1.51"/><path d="M1944,292L2068,441L2095,357Z" fill="#c86539" stroke="#c86539" stroke-width="1.51"/><path d="M1994,1030L2004,1140L2096,1077Z" fill="#a60026" stroke="#a60026" stroke-width="1.51"/><path d="M1944,292L1917,462L2068,441Z" fill="#ce6338" stroke="#ce6338" stroke-width="1.51"/><path d="M1935,524L1949,628L2083,547Z" fill="#cb4e30" stroke="#cb4e30" stroke-width="1.51"/><path d="M1960,850L2060,856L2081,793Z" fill="#be1b25" stroke="#be1b25" stroke-width="1.51"/><path d="M1982,722L1960,850L2081,793Z" fill="#c32326" stroke="#c32326" stroke-width="1.51"/><path d="M1917,462L1935,524L2068,441Z" fill="#ce5b34" stroke="#ce5b34" stroke-width="1.51"/><path d="M1960,850L1869,956L1994,1030Z" fill="#be0923" stroke="#be0923" stroke-width="1.51"/><path d="M1952,171L2014,181L2031,73Z" fill="#cf7d50" stroke="#cf7d50" stroke-width="1.51"/><path d="M1910,-144L1984,-18L2050,-65Z" fill="#d48968" stroke="#d48968" stroke-width="1.51"/><path d="M1952,171L1944,292L2014,181Z" fill="#d17848" stroke="#d17848" stroke-width="1.51"/><path d="M1984,-18L1891,86L2031,73Z" fill="#d3835a" stroke="#d3835a" stroke-width="1.51"/><path d="M1891,86L1952,171L2031,73Z" fill="#d48053" stroke="#d48053" stroke-width="1.51"/><path d="M1891,86L1904,148L1952,171Z" fill="#d98051" stroke="#d98051" stroke-width="1.51"/><path d="M1994,1030L1937,1159L2004,1140Z" fill="#a60026" stroke="#a60026" stroke-width="1.51"/><path d="M535,1205L212,1246L931,1254Z" fill="#c46b41" stroke="#c46b41" stroke-width="1.51"/><path d="M1855,790L1960,850L1982,722Z" fill="#cb2426" stroke="#cb2426" stroke-width="1.51"/><path d="M1910,-144L1863,-51L1984,-18Z" fill="#db8b67" stroke="#db8b67" stroke-width="1.51"/><path d="M1800,1166L1762,1208L1937,1159Z" fill="#ab0026" stroke="#ab0026" stroke-width="1.51"/><path d="M1819,1129L1937,1159L1994,1030Z" fill="#ae0026" stroke="#ae0026" stroke-width="1.51"/><path d="M1869,956L1819,1129L1994,1030Z" fill="#b90325" stroke="#b90325" stroke-width="1.51"/><path d="M1874,262L1944,292L1952,171Z" fill="#d67745" stroke="#d67745" stroke-width="1.51"/><path d="M1949,628L1855,790L1982,722Z" fill="#d12f29" stroke="#d12f29" stroke-width="1.51"/><path d="M1863,-51L1891,86L1984,-18Z" fill="#db885f" stroke="#db885f" stroke-width="1.51"/><path d="M1797,424L1917,462L1944,292Z" fill="#d86737" stroke="#d86737" stroke-width="1.51"/><path d="M1874,262L1797,424L1944,292Z" fill="#db6f3c" stroke="#db6f3c" stroke-width="1.51"/><path d="M1799,608L1855,790L1949,628Z" fill="#d83b2b" stroke="#d83b2b" stroke-width="1.51"/><path d="M1935,524L1812,558L1949,628Z" fill="#d55030" stroke="#d55030" stroke-width="1.51"/><path d="M1904,148L1874,262L1952,171Z" fill="#d87d4a" stroke="#d87d4a" stroke-width="1.51"/><path d="M1845,868L1869,956L1960,850Z" fill="#c91022" stroke="#c91022" stroke-width="1.51"/><path d="M1855,790L1845,868L1960,850Z" fill="#ce1c24" stroke="#ce1c24" stroke-width="1.51"/><path d="M1812,558L1799,608L1949,628Z" fill="#da4c2e" stroke="#da4c2e" stroke-width="1.51"/><path d="M1513,-125L1743,-79L1888,-170Z" fill="#f0956d" stroke="#f0956d" stroke-width="1.51"/><path d="M1789,285L1797,424L1874,262Z" fill="#e1713c" stroke="#e1713c" stroke-width="1.51"/><path d="M1799,608L1750,723L1855,790Z" fill="#de3428" stroke="#de3428" stroke-width="1.51"/><path d="M1819,1129L1800,1166L1937,1159Z" fill="#ad0026" stroke="#ad0026" stroke-width="1.51"/><path d="M1917,462L1812,558L1935,524Z" fill="#d75832" stroke="#d75832" stroke-width="1.51"/><path d="M1797,424L1812,558L1917,462Z" fill="#dd5e33" stroke="#dd5e33" stroke-width="1.51"/><path d="M1768,1114L1819,1129L1869,956Z" fill="#be0126" stroke="#be0126" stroke-width="1.51"/><path d="M1863,-51L1730,39L1891,86Z" fill="#e58a5d" stroke="#e58a5d" stroke-width="1.51"/><path d="M1736,231L1874,262L1904,148Z" fill="#e07d48" stroke="#e07d48" stroke-width="1.51"/><path d="M1888,-170L1863,-51L1910,-144Z" fill="#e08f6d" stroke="#e08f6d" stroke-width="1.51"/><path d="M1891,86L1725,101L1904,148Z" fill="#e28553" stroke="#e28553" stroke-width="1.51"/><path d="M1725,101L1736,231L1904,148Z" fill="#e5844d" stroke="#e5844d" stroke-width="1.51"/><path d="M1736,231L1789,285L1874,262Z" fill="#e37943" stroke="#e37943" stroke-width="1.51"/><path d="M1743,-79L1863,-51L1888,-170Z" fill="#e6906b" stroke="#e6906b" stroke-width="1.51"/><path d="M1730,39L1725,101L1891,86Z" fill="#e78956" stroke="#e78956" stroke-width="1.51"/><path d="M1755,925L1768,1114L1869,956Z" fill="#c70724" stroke="#c70724" stroke-width="1.51"/><path d="M1845,868L1755,925L1869,956Z" fill="#ce0d22" stroke="#ce0d22" stroke-width="1.51"/><path d="M1743,-79L1730,39L1863,-51Z" fill="#e98e62" stroke="#e98e62" stroke-width="1.51"/><path d="M1797,424L1719,478L1812,558Z" fill="#e25f33" stroke="#e25f33" stroke-width="1.51"/><path d="M1697,844L1845,868L1855,790Z" fill="#d61f24" stroke="#d61f24" stroke-width="1.51"/><path d="M1750,723L1697,844L1855,790Z" fill="#dc2825" stroke="#dc2825" stroke-width="1.51"/><path d="M1697,844L1755,925L1845,868Z" fill="#d51621" stroke="#d51621" stroke-width="1.51"/><path d="M1513,-125L1633,-57L1743,-79Z" fill="#f59667" stroke="#f59667" stroke-width="1.51"/><path d="M1789,285L1649,400L1797,424Z" fill="#e56e36" stroke="#e56e36" stroke-width="1.51"/><path d="M1730,608L1750,723L1799,608Z" fill="#e2442b" stroke="#e2442b" stroke-width="1.51"/><path d="M1719,478L1759,572L1812,558Z" fill="#e25930" stroke="#e25930" stroke-width="1.51"/><path d="M1759,572L1799,608L1812,558Z" fill="#e0512e" stroke="#e0512e" stroke-width="1.51"/><path d="M1768,1114L1800,1166L1819,1129Z" fill="#b40126" stroke="#b40126" stroke-width="1.51"/><path d="M1682,270L1649,400L1789,285Z" fill="#e8753b" stroke="#e8753b" stroke-width="1.51"/><path d="M1612,921L1639,1133L1755,925Z" fill="#d00e22" stroke="#d00e22" stroke-width="1.51"/><path d="M1755,925L1639,1133L1768,1114Z" fill="#c60624" stroke="#c60624" stroke-width="1.51"/><path d="M1649,400L1719,478L1797,424Z" fill="#e66733" stroke="#e66733" stroke-width="1.51"/><path d="M1768,1114L1762,1208L1800,1166Z" fill="#b10226" stroke="#b10226" stroke-width="1.51"/><path d="M1759,572L1730,608L1799,608Z" fill="#e14e2d" stroke="#e14e2d" stroke-width="1.51"/><path d="M1736,231L1682,270L1789,285Z" fill="#e87b41" stroke="#e87b41" stroke-width="1.51"/><path d="M1725,101L1652,116L1736,231Z" fill="#eb874d" stroke="#eb874d" stroke-width="1.51"/><path d="M1633,-57L1730,39L1743,-79Z" fill="#ee9161" stroke="#ee9161" stroke-width="1.51"/><path d="M1639,1133L1649,1222L1762,1208Z" fill="#b30625" stroke="#b30625" stroke-width="1.51"/><path d="M1639,1133L1762,1208L1768,1114Z" fill="#b60425" stroke="#b60425" stroke-width="1.51"/><path d="M1719,478L1730,608L1759,572Z" fill="#e4572f" stroke="#e4572f" stroke-width="1.51"/><path d="M1730,608L1596,608L1750,723Z" fill="#e64529" stroke="#e64529" stroke-width="1.51"/><path d="M1585,767L1697,844L1750,723Z" fill="#e22c24" stroke="#e22c24" stroke-width="1.51"/><path d="M1697,844L1612,921L1755,925Z" fill="#d9141f" stroke="#d9141f" stroke-width="1.51"/><path d="M1616,326L1649,400L1682,270Z" fill="#ec7538" stroke="#ec7538" stroke-width="1.51"/><path d="M1719,478L1603,486L1730,608Z" fill="#e85d2f" stroke="#e85d2f" stroke-width="1.51"/><path d="M1603,486L1596,608L1730,608Z" fill="#ea572c" stroke="#ea572c" stroke-width="1.51"/><path d="M1596,608L1585,767L1750,723Z" fill="#e93a26" stroke="#e93a26" stroke-width="1.51"/><path d="M1513,-125L1568,-70L1633,-57Z" fill="#f99766" stroke="#f99766" stroke-width="1.51"/><path d="M1612,921L1575,939L1639,1133Z" fill="#d41121" stroke="#d41121" stroke-width="1.51"/><path d="M1652,116L1670,263L1736,231Z" fill="#eb8347" stroke="#eb8347" stroke-width="1.51"/><path d="M1652,116L1725,101L1730,39Z" fill="#ed8b54" stroke="#ed8b54" stroke-width="1.51"/><path d="M1670,263L1682,270L1736,231Z" fill="#ea7d41" stroke="#ea7d41" stroke-width="1.51"/><path d="M1228,-161L1261,-149L1441,-140Z" fill="#ffa874" stroke="#ffa874" stroke-width="1.51"/><path d="M1633,-57L1652,116L1730,39Z" fill="#ef8e59" stroke="#ef8e59" stroke-width="1.51"/><path d="M1649,400L1603,486L1719,478Z" fill="#ea6631" stroke="#ea6631" stroke-width="1.51"/><path d="M1575,939L1536,1104L1639,1133Z" fill="#cf0e22" stroke="#cf0e22" stroke-width="1.51"/><path d="M1633,-57L1533,85L1652,116Z" fill="#f49057" stroke="#f49057" stroke-width="1.51"/><path d="M1652,116L1534,242L1670,263Z" fill="#f08545" stroke="#f08545" stroke-width="1.51"/><path d="M1670,263L1616,326L1682,270Z" fill="#ec7a3d" stroke="#ec7a3d" stroke-width="1.51"/><path d="M1585,767L1612,921L1697,844Z" fill="#e12220" stroke="#e12220" stroke-width="1.51"/><path d="M1310,1182L1177,1238L1555,1237Z" fill="#bf2327" stroke="#bf2327" stroke-width="1.51"/><path d="M1568,-70L1533,85L1633,-57Z" fill="#f7945d" stroke="#f7945d" stroke-width="1.51"/><path d="M1534,242L1616,326L1670,263Z" fill="#f07d3d" stroke="#f07d3d" stroke-width="1.51"/><path d="M1639,1133L1555,1237L1649,1222Z" fill="#b50923" stroke="#b50923" stroke-width="1.51"/><path d="M1533,85L1534,242L1652,116Z" fill="#f48b4b" stroke="#f48b4b" stroke-width="1.51"/><path d="M1616,326L1547,331L1649,400Z" fill="#ef7435" stroke="#ef7435" stroke-width="1.51"/><path d="M1547,331L1603,486L1649,400Z" fill="#ef6e32" stroke="#ef6e32" stroke-width="1.51"/><path d="M1488,979L1536,1104L1575,939Z" fill="#d71420" stroke="#d71420" stroke-width="1.51"/><path d="M1504,745L1585,767L1596,608Z" fill="#ee3b24" stroke="#ee3b24" stroke-width="1.51"/><path d="M1485,649L1504,745L1596,608Z" fill="#f14625" stroke="#f14625" stroke-width="1.51"/><path d="M1530,582L1596,608L1603,486Z" fill="#ee5a2b" stroke="#ee5a2b" stroke-width="1.51"/><path d="M1585,767L1467,848L1612,921Z" fill="#e6241e" stroke="#e6241e" stroke-width="1.51"/><path d="M1467,848L1575,939L1612,921Z" fill="#e1191d" stroke="#e1191d" stroke-width="1.51"/><path d="M1536,1104L1555,1237L1639,1133Z" fill="#bf0b23" stroke="#bf0b23" stroke-width="1.51"/><path d="M1547,331L1479,466L1603,486Z" fill="#f26d30" stroke="#f26d30" stroke-width="1.51"/><path d="M1534,242L1547,331L1616,326Z" fill="#f37b3a" stroke="#f37b3a" stroke-width="1.51"/><path d="M1447,34L1533,85L1568,-70Z" fill="#fa955a" stroke="#fa955a" stroke-width="1.51"/><path d="M1530,582L1485,649L1596,608Z" fill="#f15127" stroke="#f15127" stroke-width="1.51"/><path d="M1479,466L1530,582L1603,486Z" fill="#f1632c" stroke="#f1632c" stroke-width="1.51"/><path d="M1462,-64L1447,34L1568,-70Z" fill="#fc9960" stroke="#fc9960" stroke-width="1.51"/><path d="M1504,745L1467,848L1585,767Z" fill="#ec3021" stroke="#ec3021" stroke-width="1.51"/><path d="M1414,1153L1310,1182L1555,1237Z" fill="#c11c25" stroke="#c11c25" stroke-width="1.51"/><path d="M1536,1104L1414,1153L1555,1237Z" fill="#c11323" stroke="#c11323" stroke-width="1.51"/><path d="M1467,848L1488,979L1575,939Z" fill="#e11c1e" stroke="#e11c1e" stroke-width="1.51"/><path d="M1439,323L1479,466L1547,331Z" fill="#f57633" stroke="#f57633" stroke-width="1.51"/><path d="M1513,-125L1462,-64L1568,-70Z" fill="#fc9a66" stroke="#fc9a66" stroke-width="1.51"/><path d="M1479,466L1445,490L1530,582Z" fill="#f4662d" stroke="#f4662d" stroke-width="1.51"/><path d="M1416,47L1378,241L1533,85Z" fill="#fb9250" stroke="#fb9250" stroke-width="1.51"/><path d="M1533,85L1378,241L1534,242Z" fill="#f88d47" stroke="#f88d47" stroke-width="1.51"/><path d="M1534,242L1439,323L1547,331Z" fill="#f67e3a" stroke="#f67e3a" stroke-width="1.51"/><path d="M1488,979L1399,1115L1536,1104Z" fill="#d41923" stroke="#d41923" stroke-width="1.51"/><path d="M1467,848L1437,858L1488,979Z" fill="#e6241d" stroke="#e6241d" stroke-width="1.51"/><path d="M1447,34L1416,47L1533,85Z" fill="#fb9557" stroke="#fb9557" stroke-width="1.51"/><path d="M1399,1115L1414,1153L1536,1104Z" fill="#cb1b24" stroke="#cb1b24" stroke-width="1.51"/><path d="M1445,490L1421,611L1530,582Z" fill="#f4602c" stroke="#f4602c" stroke-width="1.51"/><path d="M1378,241L1439,323L1534,242Z" fill="#f9853f" stroke="#f9853f" stroke-width="1.51"/><path d="M1421,611L1485,649L1530,582Z" fill="#f35429" stroke="#f35429" stroke-width="1.51"/><path d="M282,1228L212,1246L535,1205Z" fill="#c77a4f" stroke="#c77a4f" stroke-width="1.51"/><path d="M1441,-140L1462,-64L1513,-125Z" fill="#fe9d6a" stroke="#fe9d6a" stroke-width="1.51"/><path d="M1346,776L1437,858L1467,848Z" fill="#ed3422" stroke="#ed3422" stroke-width="1.51"/><path d="M1439,323L1374,456L1479,466Z" fill="#f77433" stroke="#f77433" stroke-width="1.51"/><path d="M1437,858L1369,975L1488,979Z" fill="#e32520" stroke="#e32520" stroke-width="1.51"/><path d="M1369,975L1399,1115L1488,979Z" fill="#da2223" stroke="#da2223" stroke-width="1.51"/><path d="M1485,649L1346,776L1504,745Z" fill="#f33f25" stroke="#f33f25" stroke-width="1.51"/><path d="M1346,776L1467,848L1504,745Z" fill="#ef3722" stroke="#ef3722" stroke-width="1.51"/><path d="M1369,975L1340,1053L1399,1115Z" fill="#da2625" stroke="#da2625" stroke-width="1.51"/><path d="M1374,456L1445,490L1479,466Z" fill="#f66e31" stroke="#f66e31" stroke-width="1.51"/><path d="M1421,611L1346,776L1485,649Z" fill="#f54b28" stroke="#f54b28" stroke-width="1.51"/><path d="M1337,577L1421,611L1445,490Z" fill="#f7642d" stroke="#f7642d" stroke-width="1.51"/><path d="M1416,47L1447,34L1462,-64Z" fill="#fd9a5e" stroke="#fd9a5e" stroke-width="1.51"/><path d="M1313,-11L1416,47L1462,-64Z" fill="#ff9c60" stroke="#ff9c60" stroke-width="1.51"/><path d="M1253,128L1378,241L1416,47Z" fill="#fe9751" stroke="#fe9751" stroke-width="1.51"/><path d="M1328,905L1369,975L1437,858Z" fill="#e92c20" stroke="#e92c20" stroke-width="1.51"/><path d="M1441,-140L1313,-11L1462,-64Z" fill="#ff9f68" stroke="#ff9f68" stroke-width="1.51"/><path d="M1294,332L1374,456L1439,323Z" fill="#fa7d36" stroke="#fa7d36" stroke-width="1.51"/><path d="M1261,-149L1313,-11L1441,-140Z" fill="#ffa46d" stroke="#ffa46d" stroke-width="1.51"/><path d="M1374,456L1337,577L1445,490Z" fill="#f86c30" stroke="#f86c30" stroke-width="1.51"/><path d="M1267,618L1346,776L1421,611Z" fill="#f9522a" stroke="#f9522a" stroke-width="1.51"/><path d="M1337,577L1267,618L1421,611Z" fill="#f95f2d" stroke="#f95f2d" stroke-width="1.51"/><path d="M1378,241L1294,332L1439,323Z" fill="#fc863e" stroke="#fc863e" stroke-width="1.51"/><path d="M1346,776L1328,905L1437,858Z" fill="#ee3522" stroke="#ee3522" stroke-width="1.51"/><path d="M1313,253L1294,332L1378,241Z" fill="#fd8b42" stroke="#fd8b42" stroke-width="1.51"/><path d="M1313,-11L1253,128L1416,47Z" fill="#ff9d5b" stroke="#ff9d5b" stroke-width="1.51"/><path d="M1253,128L1313,253L1378,241Z" fill="#fe934a" stroke="#fe934a" stroke-width="1.51"/><path d="M1399,1115L1310,1182L1414,1153Z" fill="#c92226" stroke="#c92226" stroke-width="1.51"/><path d="M1267,618L1266,760L1346,776Z" fill="#fa4b29" stroke="#fa4b29" stroke-width="1.51"/><path d="M1294,332L1273,434L1374,456Z" fill="#fc7c37" stroke="#fc7c37" stroke-width="1.51"/><path d="M1340,1053L1310,1182L1399,1115Z" fill="#d12626" stroke="#d12626" stroke-width="1.51"/><path d="M1273,434L1337,577L1374,456Z" fill="#fb7232" stroke="#fb7232" stroke-width="1.51"/><path d="M1266,760L1328,905L1346,776Z" fill="#f33e24" stroke="#f33e24" stroke-width="1.51"/><path d="M1258,959L1340,1053L1369,975Z" fill="#e22d24" stroke="#e22d24" stroke-width="1.51"/><path d="M1328,905L1258,959L1369,975Z" fill="#e73023" stroke="#e73023" stroke-width="1.51"/><path d="M1266,760L1214,910L1328,905Z" fill="#f23c24" stroke="#f23c24" stroke-width="1.51"/><path d="M1273,434L1204,503L1337,577Z" fill="#fc7434" stroke="#fc7434" stroke-width="1.51"/><path d="M1127,1107L1310,1182L1340,1053Z" fill="#d52e28" stroke="#d52e28" stroke-width="1.51"/><path d="M1204,503L1267,618L1337,577Z" fill="#fc6b31" stroke="#fc6b31" stroke-width="1.51"/><path d="M1258,959L1127,1107L1340,1053Z" fill="#e03327" stroke="#e03327" stroke-width="1.51"/><path d="M1253,128L1194,210L1313,253Z" fill="#ff984d" stroke="#ff984d" stroke-width="1.51"/><path d="M1175,16L1253,128L1313,-11Z" fill="#ffa25f" stroke="#ffa25f" stroke-width="1.51"/><path d="M1214,910L1258,959L1328,905Z" fill="#ec3523" stroke="#ec3523" stroke-width="1.51"/><path d="M1189,953L1127,1107L1258,959Z" fill="#e43d28" stroke="#e43d28" stroke-width="1.51"/><path d="M1177,662L1266,760L1267,618Z" fill="#fd582c" stroke="#fd582c" stroke-width="1.51"/><path d="M1127,1107L1177,1238L1310,1182Z" fill="#cb342b" stroke="#cb342b" stroke-width="1.51"/><path d="M1261,-149L1175,16L1313,-11Z" fill="#ffa76a" stroke="#ffa76a" stroke-width="1.51"/><path d="M1194,210L1294,332L1313,253Z" fill="#ff8f45" stroke="#ff8f45" stroke-width="1.51"/><path d="M1120,-40L1175,16L1228,-161Z" fill="#ffae6e" stroke="#ffae6e" stroke-width="1.51"/><path d="M1228,-161L1175,16L1261,-149Z" fill="#ffab71" stroke="#ffab71" stroke-width="1.51"/><path d="M1159,369L1273,434L1294,332Z" fill="#ff8439" stroke="#ff8439" stroke-width="1.51"/><path d="M1194,210L1159,369L1294,332Z" fill="#ff8f42" stroke="#ff8f42" stroke-width="1.51"/><path d="M1175,16L1182,131L1253,128Z" fill="#ffa35b" stroke="#ffa35b" stroke-width="1.51"/><path d="M1129,781L1214,910L1266,760Z" fill="#f54927" stroke="#f54927" stroke-width="1.51"/><path d="M1204,503L1177,662L1267,618Z" fill="#fd6b31" stroke="#fd6b31" stroke-width="1.51"/><path d="M1137,419L1204,503L1273,434Z" fill="#fe7f38" stroke="#fe7f38" stroke-width="1.51"/><path d="M1159,369L1137,419L1273,434Z" fill="#ff863a" stroke="#ff863a" stroke-width="1.51"/><path d="M1098,1017L1127,1107L1189,953Z" fill="#e3442b" stroke="#e3442b" stroke-width="1.51"/><path d="M1182,131L1194,210L1253,128Z" fill="#ff9f53" stroke="#ff9f53" stroke-width="1.51"/><path d="M1177,662L1129,781L1266,760Z" fill="#fc542b" stroke="#fc542b" stroke-width="1.51"/><path d="M1214,910L1189,953L1258,959Z" fill="#eb3b25" stroke="#eb3b25" stroke-width="1.51"/><path d="M941,-154L1036,-86L1228,-161Z" fill="#ffbb7b" stroke="#ffbb7b" stroke-width="1.51"/><path d="M1036,-86L1120,-40L1228,-161Z" fill="#ffb473" stroke="#ffb473" stroke-width="1.51"/><path d="M1108,786L1063,896L1129,781Z" fill="#f6562a" stroke="#f6562a" stroke-width="1.51"/><path d="M1049,482L1094,687L1177,662Z" fill="#fd7434" stroke="#fd7434" stroke-width="1.51"/><path d="M1034,302L1159,369L1194,210Z" fill="#ff9846" stroke="#ff9846" stroke-width="1.51"/><path d="M1111,183L1034,302L1194,210Z" fill="#ffa04e" stroke="#ffa04e" stroke-width="1.51"/><path d="M1049,482L1177,662L1204,503Z" fill="#fd7a35" stroke="#fd7a35" stroke-width="1.51"/><path d="M1063,896L1189,953L1214,910Z" fill="#ee4527" stroke="#ee4527" stroke-width="1.51"/><path d="M1129,781L1063,896L1214,910Z" fill="#f34e28" stroke="#f34e28" stroke-width="1.51"/><path d="M1094,687L1129,781L1177,662Z" fill="#fd5f2e" stroke="#fd5f2e" stroke-width="1.51"/><path d="M1175,16L1114,152L1182,131Z" fill="#ffa75c" stroke="#ffa75c" stroke-width="1.51"/><path d="M1114,152L1111,183L1182,131Z" fill="#ffa656" stroke="#ffa656" stroke-width="1.51"/><path d="M1182,131L1111,183L1194,210Z" fill="#ffa353" stroke="#ffa353" stroke-width="1.51"/><path d="M1137,419L1049,482L1204,503Z" fill="#fe8539" stroke="#fe8539" stroke-width="1.51"/><path d="M1127,1107L1015,1164L1177,1238Z" fill="#cc422d" stroke="#cc422d" stroke-width="1.51"/><path d="M1063,896L1098,1017L1189,953Z" fill="#ea4a29" stroke="#ea4a29" stroke-width="1.51"/><path d="M1120,-40L1114,152L1175,16Z" fill="#ffac63" stroke="#ffac63" stroke-width="1.51"/><path d="M1015,1164L931,1254L1177,1238Z" fill="#c44730" stroke="#c44730" stroke-width="1.51"/><path d="M1049,482L1016,494L1094,687Z" fill="#fd8238" stroke="#fd8238" stroke-width="1.51"/><path d="M1016,494L952,587L1094,687Z" fill="#fd8037" stroke="#fd8037" stroke-width="1.51"/><path d="M945,89L1114,152L1120,-40Z" fill="#ffb262" stroke="#ffb262" stroke-width="1.51"/><path d="M1034,302L1137,419L1159,369Z" fill="#fe923f" stroke="#fe923f" stroke-width="1.51"/><path d="M1036,-86L945,89L1120,-40Z" fill="#ffb86d" stroke="#ffb86d" stroke-width="1.51"/><path d="M1098,1017L1037,1094L1127,1107Z" fill="#de482d" stroke="#de482d" stroke-width="1.51"/><path d="M1037,1094L1015,1164L1127,1107Z" fill="#d54a2e" stroke="#d54a2e" stroke-width="1.51"/><path d="M1094,687L1108,786L1129,781Z" fill="#fa5c2c" stroke="#fa5c2c" stroke-width="1.51"/><path d="M992,359L1049,482L1137,419Z" fill="#fe913e" stroke="#fe913e" stroke-width="1.51"/><path d="M1034,302L992,359L1137,419Z" fill="#fe9741" stroke="#fe9741" stroke-width="1.51"/><path d="M1094,687L1011,719L1108,786Z" fill="#fc632f" stroke="#fc632f" stroke-width="1.51"/><path d="M923,-24L945,89L1036,-86Z" fill="#ffbd6f" stroke="#ffbd6f" stroke-width="1.51"/><path d="M952,587L956,665L1094,687Z" fill="#fd7835" stroke="#fd7835" stroke-width="1.51"/><path d="M940,171L1034,302L1111,183Z" fill="#ffaa53" stroke="#ffaa53" stroke-width="1.51"/><path d="M940,171L1111,183L1114,152Z" fill="#ffad57" stroke="#ffad57" stroke-width="1.51"/><path d="M945,89L940,171L1114,152Z" fill="#ffb35d" stroke="#ffb35d" stroke-width="1.51"/><path d="M937,859L1063,896L1108,786Z" fill="#f45b2b" stroke="#f45b2b" stroke-width="1.51"/><path d="M1011,719L937,859L1108,786Z" fill="#f8632e" stroke="#f8632e" stroke-width="1.51"/><path d="M956,665L1011,719L1094,687Z" fill="#fd6f32" stroke="#fd6f32" stroke-width="1.51"/><path d="M1063,896L924,985L1098,1017Z" fill="#e9542c" stroke="#e9542c" stroke-width="1.51"/><path d="M924,985L1037,1094L1098,1017Z" fill="#e2522e" stroke="#e2522e" stroke-width="1.51"/><path d="M992,359L946,466L1016,494Z" fill="#fe953f" stroke="#fe953f" stroke-width="1.51"/><path d="M992,359L1016,494L1049,482Z" fill="#fe923e" stroke="#fe923e" stroke-width="1.51"/><path d="M937,859L924,985L1063,896Z" fill="#f05d2b" stroke="#f05d2b" stroke-width="1.51"/><path d="M524,-169L599,-117L941,-154Z" fill="#ffd688" stroke="#ffd688" stroke-width="1.51"/><path d="M924,985L912,1097L1037,1094Z" fill="#e05830" stroke="#e05830" stroke-width="1.51"/><path d="M773,1172L669,1166L931,1254Z" fill="#c95d36" stroke="#c95d36" stroke-width="1.51"/><path d="M669,1166L535,1205L931,1254Z" fill="#c76238" stroke="#c76238" stroke-width="1.51"/><path d="M940,171L992,359L1034,302Z" fill="#ffa74d" stroke="#ffa74d" stroke-width="1.51"/><path d="M912,1097L1015,1164L1037,1094Z" fill="#d65230" stroke="#d65230" stroke-width="1.51"/><path d="M941,-154L923,-24L1036,-86Z" fill="#ffc279" stroke="#ffc279" stroke-width="1.51"/><path d="M940,171L829,269L992,359Z" fill="#ffad50" stroke="#ffad50" stroke-width="1.51"/><path d="M599,-117L897,-119L941,-154Z" fill="#ffcd83" stroke="#ffcd83" stroke-width="1.51"/><path d="M897,-119L923,-24L941,-154Z" fill="#ffc57b" stroke="#ffc57b" stroke-width="1.51"/><path d="M874,828L937,859L1011,719Z" fill="#f76a2f" stroke="#f76a2f" stroke-width="1.51"/><path d="M858,723L874,828L1011,719Z" fill="#fb7032" stroke="#fb7032" stroke-width="1.51"/><path d="M880,1167L931,1254L1015,1164Z" fill="#c85332" stroke="#c85332" stroke-width="1.51"/><path d="M946,466L952,587L1016,494Z" fill="#fd8f3c" stroke="#fd8f3c" stroke-width="1.51"/><path d="M912,1097L880,1167L1015,1164Z" fill="#d25632" stroke="#d25632" stroke-width="1.51"/><path d="M956,665L858,723L1011,719Z" fill="#fd7434" stroke="#fd7434" stroke-width="1.51"/><path d="M865,464L946,466L992,359Z" fill="#fe9a41" stroke="#fe9a41" stroke-width="1.51"/><path d="M829,269L865,464L992,359Z" fill="#fea446" stroke="#fea446" stroke-width="1.51"/><path d="M599,-117L789,-71L897,-119Z" fill="#ffd081" stroke="#ffd081" stroke-width="1.51"/><path d="M880,1002L912,1097L924,985Z" fill="#e35d31" stroke="#e35d31" stroke-width="1.51"/><path d="M880,1002L924,985L937,859Z" fill="#ec602e" stroke="#ec602e" stroke-width="1.51"/><path d="M874,828L880,1002L937,859Z" fill="#f1642c" stroke="#f1642c" stroke-width="1.51"/><path d="M885,79L940,171L945,89Z" fill="#ffba62" stroke="#ffba62" stroke-width="1.51"/><path d="M923,-24L885,79L945,89Z" fill="#ffbe6a" stroke="#ffbe6a" stroke-width="1.51"/><path d="M946,466L865,464L952,587Z" fill="#fd933e" stroke="#fd933e" stroke-width="1.51"/><path d="M865,464L843,595L952,587Z" fill="#fe913d" stroke="#fe913d" stroke-width="1.51"/><path d="M952,587L843,595L956,665Z" fill="#fd8439" stroke="#fd8439" stroke-width="1.51"/><path d="M843,595L858,723L956,665Z" fill="#fe7f38" stroke="#fe7f38" stroke-width="1.51"/><path d="M810,549L843,595L865,464Z" fill="#fe963f" stroke="#fe963f" stroke-width="1.51"/><path d="M861,-26L885,79L923,-24Z" fill="#ffc16f" stroke="#ffc16f" stroke-width="1.51"/><path d="M812,161L829,269L940,171Z" fill="#ffb859" stroke="#ffb859" stroke-width="1.51"/><path d="M897,-119L861,-26L923,-24Z" fill="#ffc577" stroke="#ffc577" stroke-width="1.51"/><path d="M885,79L812,161L940,171Z" fill="#ffbb60" stroke="#ffbb60" stroke-width="1.51"/><path d="M874,828L749,929L880,1002Z" fill="#f0672f" stroke="#f0672f" stroke-width="1.51"/><path d="M880,1167L773,1172L931,1254Z" fill="#c85934" stroke="#c85934" stroke-width="1.51"/><path d="M812,161L792,228L829,269Z" fill="#ffb958" stroke="#ffb958" stroke-width="1.51"/><path d="M880,1002L795,1060L912,1097Z" fill="#e16033" stroke="#e16033" stroke-width="1.51"/><path d="M795,1060L880,1167L912,1097Z" fill="#d95d33" stroke="#d95d33" stroke-width="1.51"/><path d="M829,269L724,295L865,464Z" fill="#feac4a" stroke="#feac4a" stroke-width="1.51"/><path d="M724,295L757,481L865,464Z" fill="#fea646" stroke="#fea646" stroke-width="1.51"/><path d="M787,113L812,161L885,79Z" fill="#ffbf64" stroke="#ffbf64" stroke-width="1.51"/><path d="M789,-71L861,-26L897,-119Z" fill="#ffc97b" stroke="#ffc97b" stroke-width="1.51"/><path d="M858,723L729,816L874,828Z" fill="#f97433" stroke="#f97433" stroke-width="1.51"/><path d="M795,1060L766,1088L880,1167Z" fill="#da6135" stroke="#da6135" stroke-width="1.51"/><path d="M766,1088L773,1172L880,1167Z" fill="#d35f35" stroke="#d35f35" stroke-width="1.51"/><path d="M861,-26L787,113L885,79Z" fill="#ffc26b" stroke="#ffc26b" stroke-width="1.51"/><path d="M843,595L722,624L858,723Z" fill="#fe873a" stroke="#fe873a" stroke-width="1.51"/><path d="M729,816L749,929L874,828Z" fill="#f57031" stroke="#f57031" stroke-width="1.51"/><path d="M749,929L795,1060L880,1002Z" fill="#e86632" stroke="#e86632" stroke-width="1.51"/><path d="M785,-58L787,113L861,-26Z" fill="#ffc672" stroke="#ffc672" stroke-width="1.51"/><path d="M789,-71L785,-58L861,-26Z" fill="#ffca79" stroke="#ffca79" stroke-width="1.51"/><path d="M757,481L810,549L865,464Z" fill="#fe9b42" stroke="#fe9b42" stroke-width="1.51"/><path d="M698,760L729,816L858,723Z" fill="#fb7a36" stroke="#fb7a36" stroke-width="1.51"/><path d="M722,624L698,760L858,723Z" fill="#fe8139" stroke="#fe8139" stroke-width="1.51"/><path d="M810,549L722,624L843,595Z" fill="#fe913e" stroke="#fe913e" stroke-width="1.51"/><path d="M792,228L724,295L829,269Z" fill="#ffb654" stroke="#ffb654" stroke-width="1.51"/><path d="M724,295L632,412L757,481Z" fill="#fead49" stroke="#fead49" stroke-width="1.51"/><path d="M785,-58L607,-54L787,113Z" fill="#ffcc75" stroke="#ffcc75" stroke-width="1.51"/><path d="M757,481L736,529L810,549Z" fill="#fe9c42" stroke="#fe9c42" stroke-width="1.51"/><path d="M736,529L722,624L810,549Z" fill="#fe9640" stroke="#fe9640" stroke-width="1.51"/><path d="M787,113L792,228L812,161Z" fill="#ffbf60" stroke="#ffbf60" stroke-width="1.51"/><path d="M749,929L643,1105L766,1088Z" fill="#e36a36" stroke="#e36a36" stroke-width="1.51"/><path d="M607,-54L597,137L787,113Z" fill="#ffcd70" stroke="#ffcd70" stroke-width="1.51"/><path d="M787,113L622,218L792,228Z" fill="#ffc15f" stroke="#ffc15f" stroke-width="1.51"/><path d="M749,929L766,1088L795,1060Z" fill="#e56834" stroke="#e56834" stroke-width="1.51"/><path d="M597,137L622,218L787,113Z" fill="#ffc764" stroke="#ffc764" stroke-width="1.51"/><path d="M599,-117L607,-54L789,-71Z" fill="#ffd481" stroke="#ffd481" stroke-width="1.51"/><path d="M622,218L724,295L792,228Z" fill="#ffbc59" stroke="#ffbc59" stroke-width="1.51"/><path d="M607,-54L785,-58L789,-71Z" fill="#ffcf7d" stroke="#ffcf7d" stroke-width="1.51"/><path d="M766,1088L669,1166L773,1172Z" fill="#d36437" stroke="#d36437" stroke-width="1.51"/><path d="M670,894L578,1029L749,929Z" fill="#ee7335" stroke="#ee7335" stroke-width="1.51"/><path d="M578,1029L643,1105L749,929Z" fill="#e67037" stroke="#e67037" stroke-width="1.51"/><path d="M729,816L670,894L749,929Z" fill="#f47332" stroke="#f47332" stroke-width="1.51"/><path d="M654,745L698,760L722,624Z" fill="#ff853a" stroke="#ff853a" stroke-width="1.51"/><path d="M650,302L632,412L724,295Z" fill="#feb54f" stroke="#feb54f" stroke-width="1.51"/><path d="M643,1105L669,1166L766,1088Z" fill="#d86838" stroke="#d86838" stroke-width="1.51"/><path d="M632,412L736,529L757,481Z" fill="#fea446" stroke="#fea446" stroke-width="1.51"/><path d="M632,412L613,534L736,529Z" fill="#fea547" stroke="#fea547" stroke-width="1.51"/><path d="M551,-4L597,137L607,-54Z" fill="#ffd47a" stroke="#ffd47a" stroke-width="1.51"/><path d="M609,635L654,745L722,624Z" fill="#ff8e3d" stroke="#ff8e3d" stroke-width="1.51"/><path d="M622,218L650,302L724,295Z" fill="#ffbd57" stroke="#ffbd57" stroke-width="1.51"/><path d="M613,534L722,624L736,529Z" fill="#fe9b42" stroke="#fe9b42" stroke-width="1.51"/><path d="M613,534L609,635L722,624Z" fill="#fe9942" stroke="#fe9942" stroke-width="1.51"/><path d="M698,760L670,894L729,816Z" fill="#f87a35" stroke="#f87a35" stroke-width="1.51"/><path d="M654,745L670,894L698,760Z" fill="#fa7d37" stroke="#fa7d37" stroke-width="1.51"/><path d="M654,745L549,864L670,894Z" fill="#f87e39" stroke="#f87e39" stroke-width="1.51"/><path d="M513,953L578,1029L670,894Z" fill="#ee783a" stroke="#ee783a" stroke-width="1.51"/><path d="M549,864L513,953L670,894Z" fill="#f47b39" stroke="#f47b39" stroke-width="1.51"/><path d="M643,1105L535,1205L669,1166Z" fill="#d16c3c" stroke="#d16c3c" stroke-width="1.51"/><path d="M506,450L613,534L632,412Z" fill="#ffae4e" stroke="#ffae4e" stroke-width="1.51"/><path d="M520,1129L535,1205L643,1105Z" fill="#d4703f" stroke="#d4703f" stroke-width="1.51"/><path d="M461,342L632,412L650,302Z" fill="#ffb954" stroke="#ffb954" stroke-width="1.51"/><path d="M484,765L549,864L654,745Z" fill="#fc873f" stroke="#fc873f" stroke-width="1.51"/><path d="M512,688L484,765L654,745Z" fill="#ff8c42" stroke="#ff8c42" stroke-width="1.51"/><path d="M609,635L512,688L654,745Z" fill="#ff8f42" stroke="#ff8f42" stroke-width="1.51"/><path d="M622,218L468,266L650,302Z" fill="#ffc35e" stroke="#ffc35e" stroke-width="1.51"/><path d="M468,266L461,342L650,302Z" fill="#ffc35e" stroke="#ffc35e" stroke-width="1.51"/><path d="M506,450L537,533L613,534Z" fill="#ffab4e" stroke="#ffab4e" stroke-width="1.51"/><path d="M578,1029L520,1129L643,1105Z" fill="#df723e" stroke="#df723e" stroke-width="1.51"/><path d="M551,-4L499,111L597,137Z" fill="#ffd376" stroke="#ffd376" stroke-width="1.51"/><path d="M537,533L609,635L613,534Z" fill="#ffa248" stroke="#ffa248" stroke-width="1.51"/><path d="M461,342L506,450L632,412Z" fill="#ffb854" stroke="#ffb854" stroke-width="1.51"/><path d="M597,137L494,170L622,218Z" fill="#ffcd6a" stroke="#ffcd6a" stroke-width="1.51"/><path d="M494,170L468,266L622,218Z" fill="#ffcb68" stroke="#ffcb68" stroke-width="1.51"/><path d="M599,-117L551,-4L607,-54Z" fill="#ffd884" stroke="#ffd884" stroke-width="1.51"/><path d="M537,533L512,688L609,635Z" fill="#ff9d48" stroke="#ff9d48" stroke-width="1.51"/><path d="M524,-169L551,-4L599,-117Z" fill="#ffdc8b" stroke="#ffdc8b" stroke-width="1.51"/><path d="M524,-169L425,-99L551,-4Z" fill="#ffdf8e" stroke="#ffdf8e" stroke-width="1.51"/><path d="M499,111L494,170L597,137Z" fill="#ffd271" stroke="#ffd271" stroke-width="1.51"/><path d="M461,342L449,395L506,450Z" fill="#ffbc59" stroke="#ffbc59" stroke-width="1.51"/><path d="M430,1046L520,1129L578,1029Z" fill="#e27943" stroke="#e27943" stroke-width="1.51"/><path d="M513,953L430,1046L578,1029Z" fill="#e97b41" stroke="#e97b41" stroke-width="1.51"/><path d="M423,1150L282,1228L535,1205Z" fill="#cc784a" stroke="#cc784a" stroke-width="1.51"/><path d="M379,590L512,688L537,533Z" fill="#ffa44e" stroke="#ffa44e" stroke-width="1.51"/><path d="M484,765L416,853L549,864Z" fill="#fa8942" stroke="#fa8942" stroke-width="1.51"/><path d="M429,927L513,953L549,864Z" fill="#f3813f" stroke="#f3813f" stroke-width="1.51"/><path d="M361,44L499,111L551,-4Z" fill="#ffda7f" stroke="#ffda7f" stroke-width="1.51"/><path d="M425,-99L361,44L551,-4Z" fill="#ffe08a" stroke="#ffe08a" stroke-width="1.51"/><path d="M416,853L429,927L549,864Z" fill="#f78541" stroke="#f78541" stroke-width="1.51"/><path d="M268,-157L425,-99L524,-169Z" fill="#ffe99c" stroke="#ffe99c" stroke-width="1.51"/><path d="M520,1129L423,1150L535,1205Z" fill="#d27444" stroke="#d27444" stroke-width="1.51"/><path d="M506,450L379,590L537,533Z" fill="#ffaf53" stroke="#ffaf53" stroke-width="1.51"/><path d="M361,44L442,132L499,111Z" fill="#ffda7d" stroke="#ffda7d" stroke-width="1.51"/><path d="M437,741L484,765L512,688Z" fill="#ff9247" stroke="#ff9247" stroke-width="1.51"/><path d="M430,1046L423,1150L520,1129Z" fill="#dc7a46" stroke="#dc7a46" stroke-width="1.51"/><path d="M344,-27L361,44L425,-99Z" fill="#ffe490" stroke="#ffe490" stroke-width="1.51"/><path d="M429,927L430,1046L513,953Z" fill="#ed8144" stroke="#ed8144" stroke-width="1.51"/><path d="M449,395L379,590L506,450Z" fill="#ffb657" stroke="#ffb657" stroke-width="1.51"/><path d="M362,693L437,741L512,688Z" fill="#ff984b" stroke="#ff984b" stroke-width="1.51"/><path d="M379,590L362,693L512,688Z" fill="#ffa150" stroke="#ffa150" stroke-width="1.51"/><path d="M307,473L379,590L449,395Z" fill="#ffb95c" stroke="#ffb95c" stroke-width="1.51"/><path d="M442,132L494,170L499,111Z" fill="#ffd575" stroke="#ffd575" stroke-width="1.51"/><path d="M442,132L468,266L494,170Z" fill="#ffd36f" stroke="#ffd36f" stroke-width="1.51"/><path d="M442,132L366,259L468,266Z" fill="#fed26f" stroke="#fed26f" stroke-width="1.51"/><path d="M437,741L416,853L484,765Z" fill="#fd9047" stroke="#fd9047" stroke-width="1.51"/><path d="M366,259L461,342L468,266Z" fill="#ffca66" stroke="#ffca66" stroke-width="1.51"/><path d="M307,473L299,511L379,590Z" fill="#ffb75d" stroke="#ffb75d" stroke-width="1.51"/><path d="M366,259L449,395L461,342Z" fill="#fec662" stroke="#fec662" stroke-width="1.51"/><path d="M429,927L276,952L430,1046Z" fill="#ed8649" stroke="#ed8649" stroke-width="1.51"/><path d="M340,1106L423,1150L430,1046Z" fill="#dd7f4b" stroke="#dd7f4b" stroke-width="1.51"/><path d="M315,124L366,259L442,132Z" fill="#feda78" stroke="#feda78" stroke-width="1.51"/><path d="M366,259L285,300L449,395Z" fill="#fecb67" stroke="#fecb67" stroke-width="1.51"/><path d="M285,300L307,473L449,395Z" fill="#ffc462" stroke="#ffc462" stroke-width="1.51"/><path d="M269,808L416,853L437,741Z" fill="#fd934b" stroke="#fd934b" stroke-width="1.51"/><path d="M362,693L269,808L437,741Z" fill="#ff984f" stroke="#ff984f" stroke-width="1.51"/><path d="M361,44L315,124L442,132Z" fill="#ffde80" stroke="#ffde80" stroke-width="1.51"/><path d="M318,897L276,952L429,927Z" fill="#f38a4a" stroke="#f38a4a" stroke-width="1.51"/><path d="M340,1106L282,1228L423,1150Z" fill="#d37d4e" stroke="#d37d4e" stroke-width="1.51"/><path d="M416,853L318,897L429,927Z" fill="#f78a46" stroke="#f78a46" stroke-width="1.51"/><path d="M276,952L340,1106L430,1046Z" fill="#e7844d" stroke="#e7844d" stroke-width="1.51"/><path d="M268,-157L344,-27L425,-99Z" fill="#ffe99a" stroke="#ffe99a" stroke-width="1.51"/><path d="M269,808L318,897L416,853Z" fill="#f98f4c" stroke="#f98f4c" stroke-width="1.51"/><path d="M285,300L222,339L307,473Z" fill="#ffc969" stroke="#ffc969" stroke-width="1.51"/><path d="M263,688L269,808L362,693Z" fill="#ff9c54" stroke="#ff9c54" stroke-width="1.51"/><path d="M315,124L248,235L366,259Z" fill="#ffd979" stroke="#ffd979" stroke-width="1.51"/><path d="M299,511L212,632L379,590Z" fill="#ffb15d" stroke="#ffb15d" stroke-width="1.51"/><path d="M212,632L263,688L379,590Z" fill="#ffaa5a" stroke="#ffaa5a" stroke-width="1.51"/><path d="M263,688L362,693L379,590Z" fill="#ffa556" stroke="#ffa556" stroke-width="1.51"/><path d="M248,235L285,300L366,259Z" fill="#ffd373" stroke="#ffd373" stroke-width="1.51"/><path d="M228,66L315,124L361,44Z" fill="#ffe289" stroke="#ffe289" stroke-width="1.51"/><path d="M344,-27L229,-15L361,44Z" fill="#ffe591" stroke="#ffe591" stroke-width="1.51"/><path d="M229,-15L228,66L361,44Z" fill="#ffe590" stroke="#ffe590" stroke-width="1.51"/><path d="M268,-157L229,-15L344,-27Z" fill="#ffea9b" stroke="#ffea9b" stroke-width="1.51"/><path d="M-93,-167L181,-106L268,-157Z" fill="#fff3b0" stroke="#fff3b0" stroke-width="1.51"/><path d="M218,947L145,1107L276,952Z" fill="#ed8b56" stroke="#ed8b56" stroke-width="1.51"/><path d="M145,1107L282,1228L340,1106Z" fill="#d68154" stroke="#d68154" stroke-width="1.51"/><path d="M276,952L145,1107L340,1106Z" fill="#e68754" stroke="#e68754" stroke-width="1.51"/><path d="M181,-106L229,-15L268,-157Z" fill="#ffeda3" stroke="#ffeda3" stroke-width="1.51"/><path d="M263,688L207,761L269,808Z" fill="#ff9b57" stroke="#ff9b57" stroke-width="1.51"/><path d="M145,1107L212,1246L282,1228Z" fill="#ce8057" stroke="#ce8057" stroke-width="1.51"/><path d="M222,339L175,475L307,473Z" fill="#ffc469" stroke="#ffc469" stroke-width="1.51"/><path d="M228,66L248,235L315,124Z" fill="#ffdf84" stroke="#ffdf84" stroke-width="1.51"/><path d="M218,947L276,952L318,897Z" fill="#f48c4f" stroke="#f48c4f" stroke-width="1.51"/><path d="M269,808L218,947L318,897Z" fill="#f98f4f" stroke="#f98f4f" stroke-width="1.51"/><path d="M-93,-167L-12,-106L181,-106Z" fill="#fff5b5" stroke="#fff5b5" stroke-width="1.51"/><path d="M161,892L218,947L269,808Z" fill="#f99153" stroke="#f99153" stroke-width="1.51"/><path d="M168,517L212,632L299,511Z" fill="#ffb764" stroke="#ffb764" stroke-width="1.51"/><path d="M175,475L299,511L307,473Z" fill="#ffbd64" stroke="#ffbd64" stroke-width="1.51"/><path d="M175,475L168,517L299,511Z" fill="#ffbe67" stroke="#ffbe67" stroke-width="1.51"/><path d="M228,66L144,248L248,235Z" fill="#ffdf83" stroke="#ffdf83" stroke-width="1.51"/><path d="M248,235L222,339L285,300Z" fill="#ffd273" stroke="#ffd273" stroke-width="1.51"/><path d="M207,761L161,892L269,808Z" fill="#fd9756" stroke="#fd9756" stroke-width="1.51"/><path d="M64,112L144,248L228,66Z" fill="#ffe38d" stroke="#ffe38d" stroke-width="1.51"/><path d="M144,248L222,339L248,235Z" fill="#ffd579" stroke="#ffd579" stroke-width="1.51"/><path d="M212,632L207,761L263,688Z" fill="#ffa35b" stroke="#ffa35b" stroke-width="1.51"/><path d="M129,732L207,761L212,632Z" fill="#ffa35d" stroke="#ffa35d" stroke-width="1.51"/><path d="M127,874L161,892L207,761Z" fill="#fc9758" stroke="#fc9758" stroke-width="1.51"/><path d="M145,1107L98,1139L212,1246Z" fill="#d4845b" stroke="#d4845b" stroke-width="1.51"/><path d="M98,1139L124,1254L212,1246Z" fill="#cb815c" stroke="#cb815c" stroke-width="1.51"/><path d="M48,1031L145,1107L218,947Z" fill="#ea8c5b" stroke="#ea8c5b" stroke-width="1.51"/><path d="M131,485L175,475L222,339Z" fill="#ffc56d" stroke="#ffc56d" stroke-width="1.51"/><path d="M33,432L131,485L222,339Z" fill="#ffc971" stroke="#ffc971" stroke-width="1.51"/><path d="M55,-23L64,112L228,66Z" fill="#ffe999" stroke="#ffe999" stroke-width="1.51"/><path d="M55,-23L228,66L229,-15Z" fill="#ffea9a" stroke="#ffea9a" stroke-width="1.51"/><path d="M181,-106L55,-23L229,-15Z" fill="#ffeda2" stroke="#ffeda2" stroke-width="1.51"/><path d="M161,892L48,1031L218,947Z" fill="#f29059" stroke="#f29059" stroke-width="1.51"/><path d="M144,248L33,432L222,339Z" fill="#ffd176" stroke="#ffd176" stroke-width="1.51"/><path d="M129,732L127,874L207,761Z" fill="#ff9c5b" stroke="#ff9c5b" stroke-width="1.51"/><path d="M25,276L33,432L144,248Z" fill="#ffd57d" stroke="#ffd57d" stroke-width="1.51"/><path d="M-12,-106L49,-69L181,-106Z" fill="#fff2ae" stroke="#fff2ae" stroke-width="1.51"/><path d="M40,697L129,732L212,632Z" fill="#ffa863" stroke="#ffa863" stroke-width="1.51"/><path d="M168,517L6,596L212,632Z" fill="#ffb769" stroke="#ffb769" stroke-width="1.51"/><path d="M6,596L40,697L212,632Z" fill="#ffaf68" stroke="#ffaf68" stroke-width="1.51"/><path d="M64,112L35,189L144,248Z" fill="#ffe38c" stroke="#ffe38c" stroke-width="1.51"/><path d="M127,874L48,1031L161,892Z" fill="#f6925a" stroke="#f6925a" stroke-width="1.51"/><path d="M131,485L6,596L168,517Z" fill="#ffbe6e" stroke="#ffbe6e" stroke-width="1.51"/><path d="M131,485L168,517L175,475Z" fill="#ffc16b" stroke="#ffc16b" stroke-width="1.51"/><path d="M49,-69L55,-23L181,-106Z" fill="#fff0a9" stroke="#fff0a9" stroke-width="1.51"/><path d="M25,276L15,423L33,432Z" fill="#ffd07b" stroke="#ffd07b" stroke-width="1.51"/><path d="M-35,768L-44,829L127,874Z" fill="#ff9d64" stroke="#ff9d64" stroke-width="1.51"/><path d="M-35,768L127,874L129,732Z" fill="#ff9e61" stroke="#ff9e61" stroke-width="1.51"/><path d="M40,697L-35,768L129,732Z" fill="#ffa466" stroke="#ffa466" stroke-width="1.51"/><path d="M-13,517L6,596L131,485Z" fill="#ffc072" stroke="#ffc072" stroke-width="1.51"/><path d="M48,1031L98,1139L145,1107Z" fill="#e28a5f" stroke="#e28a5f" stroke-width="1.51"/><path d="M98,1139L16,1169L124,1254Z" fill="#d08560" stroke="#d08560" stroke-width="1.51"/><path d="M35,189L25,276L144,248Z" fill="#ffde87" stroke="#ffde87" stroke-width="1.51"/><path d="M-56,988L48,1031L127,874Z" fill="#f39260" stroke="#f39260" stroke-width="1.51"/><path d="M-44,829L-56,988L127,874Z" fill="#fa9761" stroke="#fa9761" stroke-width="1.51"/><path d="M33,432L-13,517L131,485Z" fill="#ffc574" stroke="#ffc574" stroke-width="1.51"/><path d="M16,1169L-101,1236L124,1254Z" fill="#ca8564" stroke="#ca8564" stroke-width="1.51"/><path d="M-33,1062L16,1169L48,1031Z" fill="#e48d65" stroke="#e48d65" stroke-width="1.51"/><path d="M48,1031L16,1169L98,1139Z" fill="#de8a62" stroke="#de8a62" stroke-width="1.51"/><path d="M-102,930L-56,988L-44,829Z" fill="#f99867" stroke="#f99867" stroke-width="1.51"/><path d="M-55,279L15,423L25,276Z" fill="#ffd682" stroke="#ffd682" stroke-width="1.51"/><path d="M-16,141L35,189L64,112Z" fill="#ffe794" stroke="#ffe794" stroke-width="1.51"/><path d="M55,-23L-49,-20L64,112Z" fill="#ffeea4" stroke="#ffeea4" stroke-width="1.51"/><path d="M-49,-20L-16,141L64,112Z" fill="#ffec9f" stroke="#ffec9f" stroke-width="1.51"/><path d="M-49,-20L-102,33L-16,141Z" fill="#ffefa6" stroke="#ffefa6" stroke-width="1.51"/><path d="M-34,208L25,276L35,189Z" fill="#ffe18d" stroke="#ffe18d" stroke-width="1.51"/><path d="M49,-69L-49,-20L55,-23Z" fill="#fff2aa" stroke="#fff2aa" stroke-width="1.51"/><path d="M-55,279L-112,344L15,423Z" fill="#ffd583" stroke="#ffd583" stroke-width="1.51"/><path d="M15,423L-13,517L33,432Z" fill="#ffc878" stroke="#ffc878" stroke-width="1.51"/><path d="M-56,988L-33,1062L48,1031Z" fill="#ec9165" stroke="#ec9165" stroke-width="1.51"/><path d="M-12,-106L-49,-20L49,-69Z" fill="#fff3b0" stroke="#fff3b0" stroke-width="1.51"/><path d="M6,596L-123,652L40,697Z" fill="#ffb270" stroke="#ffb270" stroke-width="1.51"/><path d="M-123,652L-35,768L40,697Z" fill="#ffaa6e" stroke="#ffaa6e" stroke-width="1.51"/><path d="M-16,141L-34,208L35,189Z" fill="#ffe693" stroke="#ffe693" stroke-width="1.51"/><path d="M-34,208L-55,279L25,276Z" fill="#ffde8c" stroke="#ffde8c" stroke-width="1.51"/><path d="M-90,542L-13,517L15,423Z" fill="#ffc679" stroke="#ffc679" stroke-width="1.51"/><path d="M-112,344L-90,542L15,423Z" fill="#ffcd7f" stroke="#ffcd7f" stroke-width="1.51"/><path d="M-33,1062L-124,1085L16,1169Z" fill="#e18e69" stroke="#e18e69" stroke-width="1.51"/><path d="M-124,1085L-101,1236L16,1169Z" fill="#d68b6a" stroke="#d68b6a" stroke-width="1.51"/><path d="M-13,517L-90,542L6,596Z" fill="#ffc077" stroke="#ffc077" stroke-width="1.51"/><path d="M-112,344L-190,432L-90,542Z" fill="#ffcf84" stroke="#ffcf84" stroke-width="1.51"/><path d="M-90,542L-123,652L6,596Z" fill="#ffbb77" stroke="#ffbb77" stroke-width="1.51"/><path d="M-102,33L-148,92L-98,167Z" fill="#ffeea5" stroke="#ffeea5" stroke-width="1.51"/><path d="M-98,167L-34,208L-16,141Z" fill="#ffe898" stroke="#ffe898" stroke-width="1.51"/><path d="M-102,33L-98,167L-16,141Z" fill="#ffeca0" stroke="#ffeca0" stroke-width="1.51"/><path d="M-93,-167L-49,-20L-12,-106Z" fill="#fff6b8" stroke="#fff6b8" stroke-width="1.51"/><path d="M-123,652L-159,748L-35,768Z" fill="#ffaa72" stroke="#ffaa72" stroke-width="1.51"/><path d="M-167,815L-44,829L-35,768Z" fill="#ffa26c" stroke="#ffa26c" stroke-width="1.51"/><path d="M-159,748L-167,815L-35,768Z" fill="#ffa570" stroke="#ffa570" stroke-width="1.51"/><path d="M-98,167L-55,279L-34,208Z" fill="#ffe493" stroke="#ffe493" stroke-width="1.51"/><path d="M-56,988L-124,1085L-33,1062Z" fill="#eb926a" stroke="#eb926a" stroke-width="1.51"/><path d="M-93,-167L-102,33L-49,-20Z" fill="#fff5b5" stroke="#fff5b5" stroke-width="1.51"/><path d="M-167,815L-102,930L-44,829Z" fill="#ff9e6b" stroke="#ff9e6b" stroke-width="1.51"/><path d="M-102,930L-124,1085L-56,988Z" fill="#f0956b" stroke="#f0956b" stroke-width="1.51"/><path d="M-98,167L-112,344L-55,279Z" fill="#ffdf90" stroke="#ffdf90" stroke-width="1.51"/><path d="M-148,92L-190,432L-112,344Z" fill="#ffdf91" stroke="#ffdf91" stroke-width="1.51"/><path d="M-148,92L-112,344L-98,167Z" fill="#ffe799" stroke="#ffe799" stroke-width="1.51"/><path d="M-148,92L-102,33L-93,-167Z" fill="#fff4b2" stroke="#fff4b2" stroke-width="1.51"/><path d="M-190,432L-123,652L-90,542Z" fill="#ffc47f" stroke="#ffc47f" stroke-width="1.51"/><path d="M-167,815L-124,1085L-102,930Z" fill="#f7996c" stroke="#f7996c" stroke-width="1.51"/><path d="M-190,432L-159,748L-123,652Z" fill="#ffbc7c" stroke="#ffbc7c" stroke-width="1.51"/><path d="M-190,432L-167,815L-159,748Z" fill="#ffb47a" stroke="#ffb47a" stroke-width="1.51"/></svg>