<svg xmlns="http://www.w3.org/2000/svg" width="1920" height="1080"><path d="M181,1267L-143,1241L427,1301Z" fill="#a95b72" stroke="#a95b72" stroke-width="1.51"/><path d="M-217,-252L126,-243L628,-257Z" fill="#ce3d31" stroke="#ce3d31" stroke-width="1.51"/><path d="M539,1290L427,1301L1064,1332Z" fill="#a88d98" stroke="#a88d98" stroke-width="1.51"/><path d="M628,-257L1179,-260L1576,-263Z" fill="#d88e80" stroke="#d88e80" stroke-width="1.51"/><path d="M1623,1251L1448,1285L1732,1245Z" fill="#668bc1" stroke="#668bc1" stroke-width="1.51"/><path d="M1732,1245L1448,1285L1954,1250Z" fill="#5981bb" stroke="#5981bb" stroke-width="1.51"/><path d="M2027,631L1989,741L2044,866Z" fill="#8da1ce" stroke="#8da1ce" stroke-width="1.51"/><path d="M1983,242L2049,288L2051,66Z" fill="#ad7f87" stroke="#ad7f87" stroke-width="1.51"/><path d="M1954,1250L1448,1285L2052,1248Z" fill="#4e75b5" stroke="#4e75b5" stroke-width="1.51"/><path d="M1448,1285L1064,1332L2052,1248Z" fill="#6e8cc2" stroke="#6e8cc2" stroke-width="1.51"/><path d="M2049,288L2031,371L2124,508Z" fill="#a8949e" stroke="#a8949e" stroke-width="1.51"/><path d="M2044,866L2074,930L2124,508Z" fill="#8796c9" stroke="#8796c9" stroke-width="1.51"/><path d="M2027,631L2044,866L2124,508Z" fill="#979ec7" stroke="#979ec7" stroke-width="1.51"/><path d="M2074,930L1982,1112L2135,1142Z" fill="#5679b7" stroke="#5679b7" stroke-width="1.51"/><path d="M2124,508L2074,930L2135,1142Z" fill="#778cc3" stroke="#778cc3" stroke-width="1.51"/><path d="M2026,-160L2051,66L2139,-8Z" fill="#a4506d" stroke="#a4506d" stroke-width="1.51"/><path d="M2049,288L2124,508L2139,-8Z" fill="#a97d8b" stroke="#a97d8b" stroke-width="1.51"/><path d="M2051,66L2049,288L2139,-8Z" fill="#aa687b" stroke="#aa687b" stroke-width="1.51"/><path d="M2124,508L2135,1142L2139,-8Z" fill="#a398b0" stroke="#a398b0" stroke-width="1.51"/><path d="M1982,1112L2052,1248L2135,1142Z" fill="#4668ae" stroke="#4668ae" stroke-width="1.51"/><path d="M2026,-160L1969,65L2051,66Z" fill="#aa5d73" stroke="#aa5d73" stroke-width="1.51"/><path d="M1943,545L2027,631L2124,508Z" fill="#a5a6b9" stroke="#a5a6b9" stroke-width="1.51"/><path d="M2031,371L1927,447L2124,508Z" fill="#a99fa8" stroke="#a99fa8" stroke-width="1.51"/><path d="M1927,447L1943,545L2124,508Z" fill="#a9a8b2" stroke="#a9a8b2" stroke-width="1.51"/><path d="M1876,-35L1969,65L2026,-160Z" fill="#ab6173" stroke="#ab6173" stroke-width="1.51"/><path d="M1969,65L1983,242L2051,66Z" fill="#af7581" stroke="#af7581" stroke-width="1.51"/><path d="M1982,1112L1954,1250L2052,1248Z" fill="#436aaf" stroke="#436aaf" stroke-width="1.51"/><path d="M2044,866L1909,936L2074,930Z" fill="#7294c6" stroke="#7294c6" stroke-width="1.51"/><path d="M1909,936L1982,1112L2074,930Z" fill="#648cc1" stroke="#648cc1" stroke-width="1.51"/><path d="M1989,741L1935,784L2044,866Z" fill="#85a1ce" stroke="#85a1ce" stroke-width="1.51"/><path d="M1983,242L2031,371L2049,288Z" fill="#ac8f95" stroke="#ac8f95" stroke-width="1.51"/><path d="M1935,784L1909,936L2044,866Z" fill="#7ba0cd" stroke="#7ba0cd" stroke-width="1.51"/><path d="M1983,242L1820,342L2031,371Z" fill="#af9c9c" stroke="#af9c9c" stroke-width="1.51"/><path d="M1820,342L1927,447L2031,371Z" fill="#aea8a6" stroke="#aea8a6" stroke-width="1.51"/><path d="M1969,65L1838,102L1983,242Z" fill="#b38286" stroke="#b38286" stroke-width="1.51"/><path d="M1889,-233L1876,-35L2026,-160Z" fill="#a4586c" stroke="#a4586c" stroke-width="1.51"/><path d="M1820,638L1989,741L2027,631Z" fill="#9bafcf" stroke="#9bafcf" stroke-width="1.51"/><path d="M1943,545L1820,638L2027,631Z" fill="#a3b3c6" stroke="#a3b3c6" stroke-width="1.51"/><path d="M1576,-263L1819,-204L1889,-233Z" fill="#a46573" stroke="#a46573" stroke-width="1.51"/><path d="M1832,1105L1954,1250L1982,1112Z" fill="#4c7cb8" stroke="#4c7cb8" stroke-width="1.51"/><path d="M1909,936L1832,1105L1982,1112Z" fill="#5d8fc2" stroke="#5d8fc2" stroke-width="1.51"/><path d="M1838,102L1805,216L1983,242Z" fill="#b7928e" stroke="#b7928e" stroke-width="1.51"/><path d="M1820,638L1935,784L1989,741Z" fill="#94b1d6" stroke="#94b1d6" stroke-width="1.51"/><path d="M1819,-204L1876,-35L1889,-233Z" fill="#a85f70" stroke="#a85f70" stroke-width="1.51"/><path d="M1805,216L1820,342L1983,242Z" fill="#b69e99" stroke="#b69e99" stroke-width="1.51"/><path d="M1876,-35L1838,102L1969,65Z" fill="#b5767f" stroke="#b5767f" stroke-width="1.51"/><path d="M1323,1274L1064,1332L1448,1285Z" fill="#8999cb" stroke="#8999cb" stroke-width="1.51"/><path d="M1832,1105L1732,1245L1954,1250Z" fill="#4e7eb9" stroke="#4e7eb9" stroke-width="1.51"/><path d="M1730,825L1769,938L1909,936Z" fill="#80b0d4" stroke="#80b0d4" stroke-width="1.51"/><path d="M1730,825L1909,936L1935,784Z" fill="#84aed4" stroke="#84aed4" stroke-width="1.51"/><path d="M1927,447L1767,585L1943,545Z" fill="#afbabc" stroke="#afbabc" stroke-width="1.51"/><path d="M1767,585L1820,638L1943,545Z" fill="#acbec8" stroke="#acbec8" stroke-width="1.51"/><path d="M1769,938L1832,1105L1909,936Z" fill="#6da0cb" stroke="#6da0cb" stroke-width="1.51"/><path d="M1820,638L1730,825L1935,784Z" fill="#97bada" stroke="#97bada" stroke-width="1.51"/><path d="M1820,342L1767,585L1927,447Z" fill="#b4bab5" stroke="#b4bab5" stroke-width="1.51"/><path d="M1813,-29L1838,102L1876,-35Z" fill="#b7787e" stroke="#b7787e" stroke-width="1.51"/><path d="M1819,-204L1813,-29L1876,-35Z" fill="#b26a74" stroke="#b26a74" stroke-width="1.51"/><path d="M1691,738L1730,825L1820,638Z" fill="#a1c5df" stroke="#a1c5df" stroke-width="1.51"/><path d="M1663,366L1767,585L1820,342Z" fill="#bcc2b6" stroke="#bcc2b6" stroke-width="1.51"/><path d="M1647,-67L1813,-29L1819,-204Z" fill="#b87277" stroke="#b87277" stroke-width="1.51"/><path d="M1769,938L1669,983L1832,1105Z" fill="#72a7cf" stroke="#72a7cf" stroke-width="1.51"/><path d="M1620,197L1805,216L1838,102Z" fill="#c19e93" stroke="#c19e93" stroke-width="1.51"/><path d="M1592,104L1620,197L1838,102Z" fill="#c8a093" stroke="#c8a093" stroke-width="1.51"/><path d="M1813,-29L1592,104L1838,102Z" fill="#c28b88" stroke="#c28b88" stroke-width="1.51"/><path d="M1647,-67L1592,104L1813,-29Z" fill="#c58a86" stroke="#c58a86" stroke-width="1.51"/><path d="M1805,216L1663,366L1820,342Z" fill="#beb2a4" stroke="#beb2a4" stroke-width="1.51"/><path d="M1579,1152L1732,1245L1832,1105Z" fill="#5f92c4" stroke="#5f92c4" stroke-width="1.51"/><path d="M1669,983L1579,1152L1832,1105Z" fill="#6da3cc" stroke="#6da3cc" stroke-width="1.51"/><path d="M1767,585L1691,738L1820,638Z" fill="#abc7d7" stroke="#abc7d7" stroke-width="1.51"/><path d="M1576,-263L1647,-67L1819,-204Z" fill="#b47478" stroke="#b47478" stroke-width="1.51"/><path d="M1663,366L1641,600L1767,585Z" fill="#bfd2c5" stroke="#bfd2c5" stroke-width="1.51"/><path d="M1620,197L1663,366L1805,216Z" fill="#c5b3a1" stroke="#c5b3a1" stroke-width="1.51"/><path d="M1641,600L1691,738L1767,585Z" fill="#b2cfd9" stroke="#b2cfd9" stroke-width="1.51"/><path d="M1730,825L1667,889L1769,938Z" fill="#8abcd9" stroke="#8abcd9" stroke-width="1.51"/><path d="M1667,889L1669,983L1769,938Z" fill="#83b7d6" stroke="#83b7d6" stroke-width="1.51"/><path d="M1579,1152L1623,1251L1732,1245Z" fill="#6190c3" stroke="#6190c3" stroke-width="1.51"/><path d="M1576,-263L1537,-194L1647,-67Z" fill="#be7c7c" stroke="#be7c7c" stroke-width="1.51"/><path d="M1531,548L1641,600L1663,366Z" fill="#c7d8c8" stroke="#c7d8c8" stroke-width="1.51"/><path d="M1691,738L1667,889L1730,825Z" fill="#97c5de" stroke="#97c5de" stroke-width="1.51"/><path d="M1179,-260L1389,-198L1576,-263Z" fill="#c78584" stroke="#c78584" stroke-width="1.51"/><path d="M1620,197L1534,289L1663,366Z" fill="#cdbfa8" stroke="#cdbfa8" stroke-width="1.51"/><path d="M1536,983L1579,1152L1669,983Z" fill="#7eb3d5" stroke="#7eb3d5" stroke-width="1.51"/><path d="M1641,600L1540,657L1691,738Z" fill="#b7d6e1" stroke="#b7d6e1" stroke-width="1.51"/><path d="M1480,876L1667,889L1691,738Z" fill="#9ecce2" stroke="#9ecce2" stroke-width="1.51"/><path d="M1540,657L1480,876L1691,738Z" fill="#b0d6e8" stroke="#b0d6e8" stroke-width="1.51"/><path d="M1544,89L1592,104L1647,-67Z" fill="#d0978d" stroke="#d0978d" stroke-width="1.51"/><path d="M1534,289L1425,380L1663,366Z" fill="#d1ceb4" stroke="#d1ceb4" stroke-width="1.51"/><path d="M1425,380L1531,548L1663,366Z" fill="#d0d8c1" stroke="#d0d8c1" stroke-width="1.51"/><path d="M1667,889L1536,983L1669,983Z" fill="#89bdda" stroke="#89bdda" stroke-width="1.51"/><path d="M1480,876L1536,983L1667,889Z" fill="#96c8e0" stroke="#96c8e0" stroke-width="1.51"/><path d="M1439,-114L1544,89L1647,-67Z" fill="#d19288" stroke="#d19288" stroke-width="1.51"/><path d="M1537,-194L1439,-114L1647,-67Z" fill="#ca857f" stroke="#ca857f" stroke-width="1.51"/><path d="M1531,548L1540,657L1641,600Z" fill="#c4ddd9" stroke="#c4ddd9" stroke-width="1.51"/><path d="M1439,-114L1394,-1L1544,89Z" fill="#db9c8e" stroke="#db9c8e" stroke-width="1.51"/><path d="M1592,104L1544,89L1620,197Z" fill="#d1a896" stroke="#d1a896" stroke-width="1.51"/><path d="M1579,1152L1532,1172L1623,1251Z" fill="#6c9bc8" stroke="#6c9bc8" stroke-width="1.51"/><path d="M1532,1172L1448,1285L1623,1251Z" fill="#6e96c7" stroke="#6e96c7" stroke-width="1.51"/><path d="M1544,89L1534,289L1620,197Z" fill="#d3b59e" stroke="#d3b59e" stroke-width="1.51"/><path d="M628,-257L834,-206L1179,-260Z" fill="#e08f66" stroke="#e08f66" stroke-width="1.51"/><path d="M1536,983L1532,1172L1579,1152Z" fill="#7badd2" stroke="#7badd2" stroke-width="1.51"/><path d="M1360,1025L1532,1172L1536,983Z" fill="#89bbd9" stroke="#89bbd9" stroke-width="1.51"/><path d="M1348,201L1534,289L1544,89Z" fill="#dcbea2" stroke="#dcbea2" stroke-width="1.51"/><path d="M1336,670L1480,876L1540,657Z" fill="#c0e2ef" stroke="#c0e2ef" stroke-width="1.51"/><path d="M1389,-198L1537,-194L1576,-263Z" fill="#c08080" stroke="#c08080" stroke-width="1.51"/><path d="M738,1266L539,1290L1064,1332Z" fill="#a898a3" stroke="#a898a3" stroke-width="1.51"/><path d="M1425,380L1351,436L1531,548Z" fill="#dae4c9" stroke="#dae4c9" stroke-width="1.51"/><path d="M1531,548L1336,670L1540,657Z" fill="#cde6e2" stroke="#cde6e2" stroke-width="1.51"/><path d="M1394,-1L1323,122L1544,89Z" fill="#e2ac97" stroke="#e2ac97" stroke-width="1.51"/><path d="M1323,122L1348,201L1544,89Z" fill="#e3b99e" stroke="#e3b99e" stroke-width="1.51"/><path d="M1480,876L1360,1025L1536,983Z" fill="#9acbe2" stroke="#9acbe2" stroke-width="1.51"/><path d="M1389,-198L1439,-114L1537,-194Z" fill="#cc8882" stroke="#cc8882" stroke-width="1.51"/><path d="M1360,1025L1281,1194L1532,1172Z" fill="#8ab4d6" stroke="#8ab4d6" stroke-width="1.51"/><path d="M1348,201L1425,380L1534,289Z" fill="#ded0b1" stroke="#ded0b1" stroke-width="1.51"/><path d="M1300,496L1336,670L1531,548Z" fill="#dbeddb" stroke="#dbeddb" stroke-width="1.51"/><path d="M1281,1194L1448,1285L1532,1172Z" fill="#7ca3ce" stroke="#7ca3ce" stroke-width="1.51"/><path d="M1351,436L1300,496L1531,548Z" fill="#deead0" stroke="#deead0" stroke-width="1.51"/><path d="M1169,1269L1064,1332L1323,1274Z" fill="#939fcc" stroke="#939fcc" stroke-width="1.51"/><path d="M1281,1194L1323,1274L1448,1285Z" fill="#839fcd" stroke="#839fcd" stroke-width="1.51"/><path d="M1336,670L1346,888L1480,876Z" fill="#bbe0ed" stroke="#bbe0ed" stroke-width="1.51"/><path d="M1346,888L1360,1025L1480,876Z" fill="#a7d3e6" stroke="#a7d3e6" stroke-width="1.51"/><path d="M1348,201L1351,436L1425,380Z" fill="#e2daba" stroke="#e2daba" stroke-width="1.51"/><path d="M1389,-198L1394,-1L1439,-114Z" fill="#d99286" stroke="#d99286" stroke-width="1.51"/><path d="M1389,-198L1173,-97L1394,-1Z" fill="#e29789" stroke="#e29789" stroke-width="1.51"/><path d="M1336,670L1154,809L1346,888Z" fill="#cae8f1" stroke="#cae8f1" stroke-width="1.51"/><path d="M1348,201L1212,216L1351,436Z" fill="#ebd6b4" stroke="#ebd6b4" stroke-width="1.51"/><path d="M1173,-97L1323,122L1394,-1Z" fill="#eba894" stroke="#eba894" stroke-width="1.51"/><path d="M1212,216L1128,369L1351,436Z" fill="#f0e3be" stroke="#f0e3be" stroke-width="1.51"/><path d="M1179,-260L1173,-97L1389,-198Z" fill="#dc9188" stroke="#dc9188" stroke-width="1.51"/><path d="M1173,-97L1156,120L1323,122Z" fill="#f5b29b" stroke="#f5b29b" stroke-width="1.51"/><path d="M1170,683L1154,809L1336,670Z" fill="#dcf1f7" stroke="#dcf1f7" stroke-width="1.51"/><path d="M1300,496L1190,554L1336,670Z" fill="#e6f4df" stroke="#e6f4df" stroke-width="1.51"/><path d="M1346,888L1149,1046L1360,1025Z" fill="#aad2e5" stroke="#aad2e5" stroke-width="1.51"/><path d="M1149,1046L1281,1194L1360,1025Z" fill="#9ec2de" stroke="#9ec2de" stroke-width="1.51"/><path d="M1149,1046L1184,1177L1281,1194Z" fill="#9ebcdc" stroke="#9ebcdc" stroke-width="1.51"/><path d="M1154,809L1149,1046L1346,888Z" fill="#bddfed" stroke="#bddfed" stroke-width="1.51"/><path d="M1323,122L1212,216L1348,201Z" fill="#eec6a6" stroke="#eec6a6" stroke-width="1.51"/><path d="M1128,369L1300,496L1351,436Z" fill="#ececcb" stroke="#ececcb" stroke-width="1.51"/><path d="M1190,554L1170,683L1336,670Z" fill="#e4f4eb" stroke="#e4f4eb" stroke-width="1.51"/><path d="M1281,1194L1169,1269L1323,1274Z" fill="#8ea5d0" stroke="#8ea5d0" stroke-width="1.51"/><path d="M1156,120L1212,216L1323,122Z" fill="#f4c4a5" stroke="#f4c4a5" stroke-width="1.51"/><path d="M1128,369L1190,554L1300,496Z" fill="#f1f2d2" stroke="#f1f2d2" stroke-width="1.51"/><path d="M1184,1177L1169,1269L1281,1194Z" fill="#95aed5" stroke="#95aed5" stroke-width="1.51"/><path d="M126,-243L476,-222L628,-257Z" fill="#d7603e" stroke="#d7603e" stroke-width="1.51"/><path d="M839,1259L738,1266L1064,1332Z" fill="#a8a0ad" stroke="#a8a0ad" stroke-width="1.51"/><path d="M994,934L1149,1046L1154,809Z" fill="#c5e0e0" stroke="#c5e0e0" stroke-width="1.51"/><path d="M984,51L1156,120L1173,-97Z" fill="#fab18e" stroke="#fab18e" stroke-width="1.51"/><path d="M999,-76L984,51L1173,-97Z" fill="#f7a981" stroke="#f7a981" stroke-width="1.51"/><path d="M834,-206L1090,-179L1179,-260Z" fill="#e39576" stroke="#e39576" stroke-width="1.51"/><path d="M1090,-179L1173,-97L1179,-260Z" fill="#e49684" stroke="#e49684" stroke-width="1.51"/><path d="M1149,1046L1095,1080L1184,1177Z" fill="#a9c5d8" stroke="#a9c5d8" stroke-width="1.51"/><path d="M1128,369L1052,576L1190,554Z" fill="#f6f7cd" stroke="#f6f7cd" stroke-width="1.51"/><path d="M1085,667L1170,683L1190,554Z" fill="#ecf7e6" stroke="#ecf7e6" stroke-width="1.51"/><path d="M1156,120L998,275L1212,216Z" fill="#fad1a2" stroke="#fad1a2" stroke-width="1.51"/><path d="M998,275L1128,369L1212,216Z" fill="#f9dead" stroke="#f9dead" stroke-width="1.51"/><path d="M1003,389L1052,576L1128,369Z" fill="#faf3be" stroke="#faf3be" stroke-width="1.51"/><path d="M988,889L994,934L1154,809Z" fill="#d1e9de" stroke="#d1e9de" stroke-width="1.51"/><path d="M1085,667L1154,809L1170,683Z" fill="#e2f3f0" stroke="#e2f3f0" stroke-width="1.51"/><path d="M1052,576L1085,667L1190,554Z" fill="#f1f9dc" stroke="#f1f9dc" stroke-width="1.51"/><path d="M1064,1332L1169,1269L1184,1177Z" fill="#9aa6ca" stroke="#9aa6ca" stroke-width="1.51"/><path d="M1095,1080L1064,1332L1184,1177Z" fill="#9fb4cd" stroke="#9fb4cd" stroke-width="1.51"/><path d="M1090,-179L999,-76L1173,-97Z" fill="#f09d7e" stroke="#f09d7e" stroke-width="1.51"/><path d="M994,934L1095,1080L1149,1046Z" fill="#b8d4d8" stroke="#b8d4d8" stroke-width="1.51"/><path d="M1085,667L988,889L1154,809Z" fill="#ddefe6" stroke="#ddefe6" stroke-width="1.51"/><path d="M984,51L998,275L1156,120Z" fill="#fdc994" stroke="#fdc994" stroke-width="1.51"/><path d="M920,1082L1064,1332L1095,1080Z" fill="#abbcc6" stroke="#abbcc6" stroke-width="1.51"/><path d="M939,686L988,889L1085,667Z" fill="#e8f4df" stroke="#e8f4df" stroke-width="1.51"/><path d="M998,275L1003,389L1128,369Z" fill="#fce9ad" stroke="#fce9ad" stroke-width="1.51"/><path d="M920,1082L839,1259L1064,1332Z" fill="#aab1b7" stroke="#aab1b7" stroke-width="1.51"/><path d="M994,934L920,1082L1095,1080Z" fill="#bcd5ce" stroke="#bcd5ce" stroke-width="1.51"/><path d="M1003,389L930,579L1052,576Z" fill="#fdfbc0" stroke="#fdfbc0" stroke-width="1.51"/><path d="M834,-206L999,-76L1090,-179Z" fill="#ef9c70" stroke="#ef9c70" stroke-width="1.51"/><path d="M939,686L879,811L988,889Z" fill="#e4f0d6" stroke="#e4f0d6" stroke-width="1.51"/><path d="M1052,576L939,686L1085,667Z" fill="#f3f9d9" stroke="#f3f9d9" stroke-width="1.51"/><path d="M930,579L939,686L1052,576Z" fill="#f9fcce" stroke="#f9fcce" stroke-width="1.51"/><path d="M896,42L830,238L984,51Z" fill="#ffc180" stroke="#ffc180" stroke-width="1.51"/><path d="M984,51L830,238L998,275Z" fill="#ffd18b" stroke="#ffd18b" stroke-width="1.51"/><path d="M937,-54L896,42L984,51Z" fill="#feb27a" stroke="#feb27a" stroke-width="1.51"/><path d="M829,969L920,1082L994,934Z" fill="#c6d7c8" stroke="#c6d7c8" stroke-width="1.51"/><path d="M834,-206L937,-54L999,-76Z" fill="#f49f6c" stroke="#f49f6c" stroke-width="1.51"/><path d="M937,-54L984,51L999,-76Z" fill="#fbad7a" stroke="#fbad7a" stroke-width="1.51"/><path d="M998,275L938,369L1003,389Z" fill="#ffeaa5" stroke="#ffeaa5" stroke-width="1.51"/><path d="M938,369L930,579L1003,389Z" fill="#fff6b1" stroke="#fff6b1" stroke-width="1.51"/><path d="M786,413L930,579L938,369Z" fill="#fff2ab" stroke="#fff2ab" stroke-width="1.51"/><path d="M830,238L938,369L998,275Z" fill="#ffe198" stroke="#ffe198" stroke-width="1.51"/><path d="M988,889L829,969L994,934Z" fill="#cfe2ce" stroke="#cfe2ce" stroke-width="1.51"/><path d="M879,811L829,969L988,889Z" fill="#d6e5cd" stroke="#d6e5cd" stroke-width="1.51"/><path d="M768,1100L839,1259L920,1082Z" fill="#b3bab5" stroke="#b3bab5" stroke-width="1.51"/><path d="M786,413L733,506L930,579Z" fill="#fff1ab" stroke="#fff1ab" stroke-width="1.51"/><path d="M834,-206L792,-164L937,-54Z" fill="#ef9765" stroke="#ef9765" stroke-width="1.51"/><path d="M830,238L791,279L938,369Z" fill="#ffdc91" stroke="#ffdc91" stroke-width="1.51"/><path d="M791,279L786,413L938,369Z" fill="#ffe498" stroke="#ffe498" stroke-width="1.51"/><path d="M930,579L783,730L939,686Z" fill="#f5f5cd" stroke="#f5f5cd" stroke-width="1.51"/><path d="M783,730L879,811L939,686Z" fill="#ecf0d1" stroke="#ecf0d1" stroke-width="1.51"/><path d="M721,-64L896,42L937,-54Z" fill="#faa76e" stroke="#faa76e" stroke-width="1.51"/><path d="M792,-164L721,-64L937,-54Z" fill="#f49a64" stroke="#f49a64" stroke-width="1.51"/><path d="M713,142L830,238L896,42Z" fill="#ffc17a" stroke="#ffc17a" stroke-width="1.51"/><path d="M733,506L783,730L930,579Z" fill="#faf3bd" stroke="#faf3bd" stroke-width="1.51"/><path d="M829,969L768,1100L920,1082Z" fill="#bfcbbc" stroke="#bfcbbc" stroke-width="1.51"/><path d="M738,790L829,969L879,811Z" fill="#dce3c7" stroke="#dce3c7" stroke-width="1.51"/><path d="M721,-64L713,142L896,42Z" fill="#fdab6d" stroke="#fdab6d" stroke-width="1.51"/><path d="M738,790L697,940L829,969Z" fill="#d6dabf" stroke="#d6dabf" stroke-width="1.51"/><path d="M783,730L738,790L879,811Z" fill="#e8e9c9" stroke="#e8e9c9" stroke-width="1.51"/><path d="M17,1239L-143,1241L181,1267Z" fill="#a4526b" stroke="#a4526b" stroke-width="1.51"/><path d="M733,506L614,585L783,730Z" fill="#faecb2" stroke="#faecb2" stroke-width="1.51"/><path d="M697,940L768,1100L829,969Z" fill="#c7cdb9" stroke="#c7cdb9" stroke-width="1.51"/><path d="M628,-257L792,-164L834,-206Z" fill="#e38a5b" stroke="#e38a5b" stroke-width="1.51"/><path d="M768,1100L738,1266L839,1259Z" fill="#adaaaa" stroke="#adaaaa" stroke-width="1.51"/><path d="M713,142L791,279L830,238Z" fill="#ffcc7f" stroke="#ffcc7f" stroke-width="1.51"/><path d="M616,109L713,142L721,-64Z" fill="#fca867" stroke="#fca867" stroke-width="1.51"/><path d="M697,940L626,1021L768,1100Z" fill="#c5c6b1" stroke="#c5c6b1" stroke-width="1.51"/><path d="M605,1127L738,1266L768,1100Z" fill="#b3ada6" stroke="#b3ada6" stroke-width="1.51"/><path d="M614,585L641,741L783,730Z" fill="#f5e6bd" stroke="#f5e6bd" stroke-width="1.51"/><path d="M621,225L531,444L786,413Z" fill="#ffd786" stroke="#ffd786" stroke-width="1.51"/><path d="M621,225L786,413L791,279Z" fill="#ffd787" stroke="#ffd787" stroke-width="1.51"/><path d="M713,142L621,225L791,279Z" fill="#fec778" stroke="#fec778" stroke-width="1.51"/><path d="M628,-257L721,-64L792,-164Z" fill="#e98c58" stroke="#e98c58" stroke-width="1.51"/><path d="M531,444L733,506L786,413Z" fill="#ffe398" stroke="#ffe398" stroke-width="1.51"/><path d="M641,741L738,790L783,730Z" fill="#ece5c2" stroke="#ece5c2" stroke-width="1.51"/><path d="M626,1021L605,1127L768,1100Z" fill="#beb8a9" stroke="#beb8a9" stroke-width="1.51"/><path d="M641,741L529,864L697,940Z" fill="#e0d4b5" stroke="#e0d4b5" stroke-width="1.51"/><path d="M628,-257L562,-83L721,-64Z" fill="#ed8651" stroke="#ed8651" stroke-width="1.51"/><path d="M562,-83L616,109L721,-64Z" fill="#f7975b" stroke="#f7975b" stroke-width="1.51"/><path d="M641,741L697,940L738,790Z" fill="#e2ddbc" stroke="#e2ddbc" stroke-width="1.51"/><path d="M605,1127L539,1290L738,1266Z" fill="#af999a" stroke="#af999a" stroke-width="1.51"/><path d="M531,444L614,585L733,506Z" fill="#ffe39a" stroke="#ffe39a" stroke-width="1.51"/><path d="M616,109L621,225L713,142Z" fill="#feb76c" stroke="#feb76c" stroke-width="1.51"/><path d="M529,864L626,1021L697,940Z" fill="#d3c8af" stroke="#d3c8af" stroke-width="1.51"/><path d="M321,1266L181,1267L427,1301Z" fill="#ad6b7b" stroke="#ad6b7b" stroke-width="1.51"/><path d="M389,271L399,379L531,444Z" fill="#fec174" stroke="#fec174" stroke-width="1.51"/><path d="M562,-83L476,-60L616,109Z" fill="#f68e53" stroke="#f68e53" stroke-width="1.51"/><path d="M389,271L531,444L621,225Z" fill="#ffc173" stroke="#ffc173" stroke-width="1.51"/><path d="M476,-222L562,-83L628,-257Z" fill="#e37849" stroke="#e37849" stroke-width="1.51"/><path d="M393,724L529,864L641,741Z" fill="#ecd0ae" stroke="#ecd0ae" stroke-width="1.51"/><path d="M489,595L393,724L641,741Z" fill="#f7d4ac" stroke="#f7d4ac" stroke-width="1.51"/><path d="M614,585L489,595L641,741Z" fill="#faddab" stroke="#faddab" stroke-width="1.51"/><path d="M531,444L489,595L614,585Z" fill="#ffdd96" stroke="#ffdd96" stroke-width="1.51"/><path d="M616,109L378,130L621,225Z" fill="#fdaa61" stroke="#fdaa61" stroke-width="1.51"/><path d="M529,864L459,899L626,1021Z" fill="#d6c2a7" stroke="#d6c2a7" stroke-width="1.51"/><path d="M397,1018L605,1127L626,1021Z" fill="#c4b09f" stroke="#c4b09f" stroke-width="1.51"/><path d="M459,899L397,1018L626,1021Z" fill="#cfb7a0" stroke="#cfb7a0" stroke-width="1.51"/><path d="M476,-60L378,130L616,109Z" fill="#fa9254" stroke="#fa9254" stroke-width="1.51"/><path d="M378,130L389,271L621,225Z" fill="#fdac60" stroke="#fdac60" stroke-width="1.51"/><path d="M126,-243L325,-176L476,-222Z" fill="#d95438" stroke="#d95438" stroke-width="1.51"/><path d="M399,1147L539,1290L605,1127Z" fill="#b49692" stroke="#b49692" stroke-width="1.51"/><path d="M397,1018L399,1147L605,1127Z" fill="#c0a195" stroke="#c0a195" stroke-width="1.51"/><path d="M399,1147L427,1301L539,1290Z" fill="#af8488" stroke="#af8488" stroke-width="1.51"/><path d="M476,-222L476,-60L562,-83Z" fill="#ec7845" stroke="#ec7845" stroke-width="1.51"/><path d="M393,724L459,899L529,864Z" fill="#e5c4a6" stroke="#e5c4a6" stroke-width="1.51"/><path d="M399,379L489,595L531,444Z" fill="#ffcf86" stroke="#ffcf86" stroke-width="1.51"/><path d="M399,379L340,599L489,595Z" fill="#ffcc89" stroke="#ffcc89" stroke-width="1.51"/><path d="M258,68L378,130L476,-60Z" fill="#f7804b" stroke="#f7804b" stroke-width="1.51"/><path d="M282,-94L258,68L476,-60Z" fill="#f07042" stroke="#f07042" stroke-width="1.51"/><path d="M325,-176L476,-60L476,-222Z" fill="#e66b3f" stroke="#e66b3f" stroke-width="1.51"/><path d="M340,599L393,724L489,595Z" fill="#fbca9c" stroke="#fbca9c" stroke-width="1.51"/><path d="M325,-176L282,-94L476,-60Z" fill="#ea663d" stroke="#ea663d" stroke-width="1.51"/><path d="M399,1147L321,1266L427,1301Z" fill="#b07c84" stroke="#b07c84" stroke-width="1.51"/><path d="M393,724L226,780L459,899Z" fill="#e9baa0" stroke="#e9baa0" stroke-width="1.51"/><path d="M226,780L336,999L459,899Z" fill="#ddb09a" stroke="#ddb09a" stroke-width="1.51"/><path d="M336,999L397,1018L459,899Z" fill="#d1ad99" stroke="#d1ad99" stroke-width="1.51"/><path d="M263,343L340,599L399,379Z" fill="#ffbb78" stroke="#ffbb78" stroke-width="1.51"/><path d="M397,1018L336,999L399,1147Z" fill="#c69e92" stroke="#c69e92" stroke-width="1.51"/><path d="M226,780L171,857L336,999Z" fill="#dfa694" stroke="#dfa694" stroke-width="1.51"/><path d="M263,343L160,510L340,599Z" fill="#ffb478" stroke="#ffb478" stroke-width="1.51"/><path d="M378,130L258,263L389,271Z" fill="#fb9e59" stroke="#fb9e59" stroke-width="1.51"/><path d="M340,599L260,671L393,724Z" fill="#f9bf9a" stroke="#f9bf9a" stroke-width="1.51"/><path d="M389,271L263,343L399,379Z" fill="#fdb069" stroke="#fdb069" stroke-width="1.51"/><path d="M336,999L281,1156L399,1147Z" fill="#c0918b" stroke="#c0918b" stroke-width="1.51"/><path d="M281,1156L321,1266L399,1147Z" fill="#b48084" stroke="#b48084" stroke-width="1.51"/><path d="M258,263L263,343L389,271Z" fill="#fca461" stroke="#fca461" stroke-width="1.51"/><path d="M260,671L226,780L393,724Z" fill="#f4b79e" stroke="#f4b79e" stroke-width="1.51"/><path d="M258,68L258,263L378,130Z" fill="#f98c50" stroke="#f98c50" stroke-width="1.51"/><path d="M171,857L107,992L336,999Z" fill="#d3988d" stroke="#d3988d" stroke-width="1.51"/><path d="M165,1156L281,1156L336,999Z" fill="#bf8786" stroke="#bf8786" stroke-width="1.51"/><path d="M107,992L165,1156L336,999Z" fill="#c58a86" stroke="#c58a86" stroke-width="1.51"/><path d="M160,510L260,671L340,599Z" fill="#fdb889" stroke="#fdb889" stroke-width="1.51"/><path d="M144,132L258,263L258,68Z" fill="#f7824c" stroke="#f7824c" stroke-width="1.51"/><path d="M185,-88L258,68L282,-94Z" fill="#ed5f3c" stroke="#ed5f3c" stroke-width="1.51"/><path d="M281,1156L181,1267L321,1266Z" fill="#b06f7c" stroke="#b06f7c" stroke-width="1.51"/><path d="M185,-88L282,-94L325,-176Z" fill="#e65536" stroke="#e65536" stroke-width="1.51"/><path d="M126,-243L185,-88L325,-176Z" fill="#dd4933" stroke="#dd4933" stroke-width="1.51"/><path d="M144,132L141,219L258,263Z" fill="#f6884e" stroke="#f6884e" stroke-width="1.51"/><path d="M160,510L133,665L260,671Z" fill="#f9af88" stroke="#f9af88" stroke-width="1.51"/><path d="M112,433L160,510L263,343Z" fill="#fba76c" stroke="#fba76c" stroke-width="1.51"/><path d="M165,1156L181,1267L281,1156Z" fill="#b2717b" stroke="#b2717b" stroke-width="1.51"/><path d="M185,-88L144,132L258,68Z" fill="#f16740" stroke="#f16740" stroke-width="1.51"/><path d="M133,665L226,780L260,671Z" fill="#f5ae99" stroke="#f5ae99" stroke-width="1.51"/><path d="M258,263L141,219L263,343Z" fill="#fa9759" stroke="#fa9759" stroke-width="1.51"/><path d="M141,219L112,433L263,343Z" fill="#f89b5e" stroke="#f89b5e" stroke-width="1.51"/><path d="M-15,-41L144,132L185,-88Z" fill="#e85637" stroke="#e85637" stroke-width="1.51"/><path d="M42,785L171,857L226,780Z" fill="#e5a191" stroke="#e5a191" stroke-width="1.51"/><path d="M133,665L42,785L226,780Z" fill="#eca592" stroke="#eca592" stroke-width="1.51"/><path d="M-217,-252L-5,-172L126,-243Z" fill="#c42227" stroke="#c42227" stroke-width="1.51"/><path d="M42,655L133,665L160,510Z" fill="#f6a983" stroke="#f6a983" stroke-width="1.51"/><path d="M107,992L37,1047L165,1156Z" fill="#bf7e7e" stroke="#bf7e7e" stroke-width="1.51"/><path d="M37,1047L39,1143L165,1156Z" fill="#b77279" stroke="#b77279" stroke-width="1.51"/><path d="M165,1156L17,1239L181,1267Z" fill="#ac6374" stroke="#ac6374" stroke-width="1.51"/><path d="M126,-243L-5,-172L185,-88Z" fill="#d63b2d" stroke="#d63b2d" stroke-width="1.51"/><path d="M-5,-172L-15,-41L185,-88Z" fill="#dd3d2b" stroke="#dd3d2b" stroke-width="1.51"/><path d="M-55,392L112,433L141,219Z" fill="#f39359" stroke="#f39359" stroke-width="1.51"/><path d="M-38,219L-55,392L141,219Z" fill="#ef824d" stroke="#ef824d" stroke-width="1.51"/><path d="M39,1143L17,1239L165,1156Z" fill="#ae6674" stroke="#ae6674" stroke-width="1.51"/><path d="M42,785L107,992L171,857Z" fill="#d9988b" stroke="#d9988b" stroke-width="1.51"/><path d="M-19,492L42,655L160,510Z" fill="#f7a675" stroke="#f7a675" stroke-width="1.51"/><path d="M-15,-41L-64,127L144,132Z" fill="#e85b38" stroke="#e85b38" stroke-width="1.51"/><path d="M112,433L-19,492L160,510Z" fill="#f7a26c" stroke="#f7a26c" stroke-width="1.51"/><path d="M42,655L42,785L133,665Z" fill="#efa18f" stroke="#efa18f" stroke-width="1.51"/><path d="M-38,219L141,219L144,132Z" fill="#f07b46" stroke="#f07b46" stroke-width="1.51"/><path d="M-64,127L-38,219L144,132Z" fill="#eb6c40" stroke="#eb6c40" stroke-width="1.51"/><path d="M42,785L37,1047L107,992Z" fill="#ce8b84" stroke="#ce8b84" stroke-width="1.51"/><path d="M-106,800L37,1047L42,785Z" fill="#d38d83" stroke="#d38d83" stroke-width="1.51"/><path d="M-55,392L-19,492L112,433Z" fill="#f39862" stroke="#f39862" stroke-width="1.51"/><path d="M-118,261L-55,392L-38,219Z" fill="#e67e4d" stroke="#e67e4d" stroke-width="1.51"/><path d="M-106,800L-200,968L37,1047Z" fill="#c2807e" stroke="#c2807e" stroke-width="1.51"/><path d="M-143,1241L17,1239L39,1143Z" fill="#a4586c" stroke="#a4586c" stroke-width="1.51"/><path d="M37,1047L-162,1123L39,1143Z" fill="#b16b74" stroke="#b16b74" stroke-width="1.51"/><path d="M-19,492L-111,556L42,655Z" fill="#f09d73" stroke="#f09d73" stroke-width="1.51"/><path d="M-111,556L-106,800L42,655Z" fill="#e79784" stroke="#e79784" stroke-width="1.51"/><path d="M42,655L-106,800L42,785Z" fill="#e59688" stroke="#e59688" stroke-width="1.51"/><path d="M-200,968L-162,1123L37,1047Z" fill="#b07077" stroke="#b07077" stroke-width="1.51"/><path d="M-162,1123L-143,1241L39,1143Z" fill="#a25c6e" stroke="#a25c6e" stroke-width="1.51"/><path d="M-142,-42L-64,127L-15,-41Z" fill="#db4732" stroke="#db4732" stroke-width="1.51"/><path d="M-111,556L-217,730L-106,800Z" fill="#dc9187" stroke="#dc9187" stroke-width="1.51"/><path d="M-142,-42L-148,101L-64,127Z" fill="#da4e36" stroke="#da4e36" stroke-width="1.51"/><path d="M-142,-42L-15,-41L-5,-172Z" fill="#d4342a" stroke="#d4342a" stroke-width="1.51"/><path d="M-217,-252L-142,-42L-5,-172Z" fill="#c42227" stroke="#c42227" stroke-width="1.51"/><path d="M-55,392L-111,556L-19,492Z" fill="#ec9666" stroke="#ec9666" stroke-width="1.51"/><path d="M-226,400L-111,556L-55,392Z" fill="#e48f62" stroke="#e48f62" stroke-width="1.51"/><path d="M-64,127L-118,261L-38,219Z" fill="#e46f42" stroke="#e46f42" stroke-width="1.51"/><path d="M-148,101L-118,261L-64,127Z" fill="#df653e" stroke="#df653e" stroke-width="1.51"/><path d="M-118,261L-226,400L-55,392Z" fill="#e18455" stroke="#e18455" stroke-width="1.51"/><path d="M-217,730L-200,968L-106,800Z" fill="#c78583" stroke="#c78583" stroke-width="1.51"/><path d="M-226,400L-217,730L-111,556Z" fill="#df9271" stroke="#df9271" stroke-width="1.51"/><path d="M-148,101L-226,400L-118,261Z" fill="#dc7248" stroke="#dc7248" stroke-width="1.51"/><path d="M-162,1123L-200,968L-143,1241Z" fill="#a26172" stroke="#a26172" stroke-width="1.51"/><path d="M-217,-252L-148,101L-142,-42Z" fill="#ca302c" stroke="#ca302c" stroke-width="1.51"/><path d="M-217,-252L-226,400L-148,101Z" fill="#d34e37" stroke="#d34e37" stroke-width="1.51"/></svg>