<svg xmlns="http://www.w3.org/2000/svg" width="1920" height="1080"><path d="M179,1249L-223,1231L443,1296Z" fill="#793c35" stroke="#793c35" stroke-width="1.51"/><path d="M-201,-210L393,-210L694,-221Z" fill="#a73f3c" stroke="#a73f3c" stroke-width="1.51"/><path d="M564,1287L443,1296L770,1293Z" fill="#876b5f" stroke="#876b5f" stroke-width="1.51"/><path d="M770,1293L443,1296L1337,1315Z" fill="#877f7b" stroke="#877f7b" stroke-width="1.51"/><path d="M694,-221L1151,-230L1353,-236Z" fill="#b57e80" stroke="#b57e80" stroke-width="1.51"/><path d="M-201,-210L694,-221L1353,-236Z" fill="#b5685f" stroke="#b5685f" stroke-width="1.51"/><path d="M1469,1288L1337,1315L1704,1300Z" fill="#616161" stroke="#616161" stroke-width="1.51"/><path d="M1816,1290L1704,1300L1958,1291Z" fill="#414141" stroke="#414141" stroke-width="1.51"/><path d="M1353,-236L1694,-216L2065,-226Z" fill="#7d4b4e" stroke="#7d4b4e" stroke-width="1.51"/><path d="M2046,406L2093,515L2105,265Z" fill="#8c7e75" stroke="#8c7e75" stroke-width="1.51"/><path d="M2073,1036L2083,1157L2141,1216Z" fill="#3e3e3e" stroke="#3e3e3e" stroke-width="1.51"/><path d="M2093,515L1945,602L2150,709Z" fill="#898989" stroke="#898989" stroke-width="1.51"/><path d="M1945,602L2084,764L2150,709Z" fill="#828282" stroke="#828282" stroke-width="1.51"/><path d="M2084,764L2066,905L2150,709Z" fill="#727272" stroke="#727272" stroke-width="1.51"/><path d="M2073,1036L2141,1216L2150,709Z" fill="#555555" stroke="#555555" stroke-width="1.51"/><path d="M2066,905L2073,1036L2150,709Z" fill="#676767" stroke="#676767" stroke-width="1.51"/><path d="M2105,265L2093,515L2150,709Z" fill="#888481" stroke="#888481" stroke-width="1.51"/><path d="M2015,-161L1942,-57L2154,-56Z" fill="#72312f" stroke="#72312f" stroke-width="1.51"/><path d="M1942,-57L1955,9L2154,-56Z" fill="#7c3c36" stroke="#7c3c36" stroke-width="1.51"/><path d="M2065,-226L2015,-161L2154,-56Z" fill="#602728" stroke="#602728" stroke-width="1.51"/><path d="M1955,9L2085,102L2154,-56Z" fill="#7a3f37" stroke="#7a3f37" stroke-width="1.51"/><path d="M2085,102L2101,146L2154,-56Z" fill="#784137" stroke="#784137" stroke-width="1.51"/><path d="M2105,265L2150,709L2154,-56Z" fill="#846a5d" stroke="#846a5d" stroke-width="1.51"/><path d="M2101,146L2105,265L2154,-56Z" fill="#7c4a3e" stroke="#7c4a3e" stroke-width="1.51"/><path d="M2083,1157L1980,1187L2141,1216Z" fill="#393939" stroke="#393939" stroke-width="1.51"/><path d="M1980,1187L1958,1291L2141,1216Z" fill="#353535" stroke="#353535" stroke-width="1.51"/><path d="M2066,905L1952,959L2073,1036Z" fill="#626262" stroke="#626262" stroke-width="1.51"/><path d="M2073,1036L1999,1048L2083,1157Z" fill="#4d4d4d" stroke="#4d4d4d" stroke-width="1.51"/><path d="M1989,813L2066,905L2084,764Z" fill="#747474" stroke="#747474" stroke-width="1.51"/><path d="M1949,529L1945,602L2093,515Z" fill="#979797" stroke="#979797" stroke-width="1.51"/><path d="M2101,146L1989,256L2105,265Z" fill="#8b6555" stroke="#8b6555" stroke-width="1.51"/><path d="M1989,256L2046,406L2105,265Z" fill="#907568" stroke="#907568" stroke-width="1.51"/><path d="M1952,959L1999,1048L2073,1036Z" fill="#5e5e5e" stroke="#5e5e5e" stroke-width="1.51"/><path d="M1945,602L1989,813L2084,764Z" fill="#858585" stroke="#858585" stroke-width="1.51"/><path d="M2085,102L1933,224L2101,146Z" fill="#8a5c4e" stroke="#8a5c4e" stroke-width="1.51"/><path d="M1933,224L1989,256L2101,146Z" fill="#916959" stroke="#916959" stroke-width="1.51"/><path d="M1694,-216L1814,-130L2065,-226Z" fill="#733d3e" stroke="#733d3e" stroke-width="1.51"/><path d="M2046,406L1949,529L2093,515Z" fill="#938d8a" stroke="#938d8a" stroke-width="1.51"/><path d="M1999,1048L1980,1187L2083,1157Z" fill="#484848" stroke="#484848" stroke-width="1.51"/><path d="M1955,9L1933,224L2085,102Z" fill="#8c584c" stroke="#8c584c" stroke-width="1.51"/><path d="M1814,-130L2015,-161L2065,-226Z" fill="#693233" stroke="#693233" stroke-width="1.51"/><path d="M1989,256L1925,381L2046,406Z" fill="#988278" stroke="#988278" stroke-width="1.51"/><path d="M1989,813L1952,959L2066,905Z" fill="#717171" stroke="#717171" stroke-width="1.51"/><path d="M1242,1289L770,1293L1337,1315Z" fill="#7e7e7e" stroke="#7e7e7e" stroke-width="1.51"/><path d="M1945,602L1836,706L1989,813Z" fill="#919191" stroke="#919191" stroke-width="1.51"/><path d="M1814,-130L1913,-105L2015,-161Z" fill="#793b3a" stroke="#793b3a" stroke-width="1.51"/><path d="M1925,381L1949,529L2046,406Z" fill="#9a908a" stroke="#9a908a" stroke-width="1.51"/><path d="M1819,87L1933,224L1955,9Z" fill="#986255" stroke="#986255" stroke-width="1.51"/><path d="M1836,706L1831,765L1989,813Z" fill="#909090" stroke="#909090" stroke-width="1.51"/><path d="M1886,1122L1980,1187L1999,1048Z" fill="#515151" stroke="#515151" stroke-width="1.51"/><path d="M1913,-105L1942,-57L2015,-161Z" fill="#793937" stroke="#793937" stroke-width="1.51"/><path d="M1925,381L1904,387L1949,529Z" fill="#a1958f" stroke="#a1958f" stroke-width="1.51"/><path d="M1904,387L1894,519L1949,529Z" fill="#a29b98" stroke="#a29b98" stroke-width="1.51"/><path d="M1933,224L1861,332L1989,256Z" fill="#9e7e6f" stroke="#9e7e6f" stroke-width="1.51"/><path d="M1861,332L1925,381L1989,256Z" fill="#a0877a" stroke="#a0877a" stroke-width="1.51"/><path d="M1852,919L1952,959L1989,813Z" fill="#797979" stroke="#797979" stroke-width="1.51"/><path d="M1952,959L1886,1122L1999,1048Z" fill="#606060" stroke="#606060" stroke-width="1.51"/><path d="M1831,765L1852,919L1989,813Z" fill="#888888" stroke="#888888" stroke-width="1.51"/><path d="M1819,87L1837,213L1933,224Z" fill="#a27465" stroke="#a27465" stroke-width="1.51"/><path d="M1800,1036L1886,1122L1952,959Z" fill="#686868" stroke="#686868" stroke-width="1.51"/><path d="M1816,1290L1958,1291L1980,1187Z" fill="#3d3d3d" stroke="#3d3d3d" stroke-width="1.51"/><path d="M1886,1122L1816,1290L1980,1187Z" fill="#4a4a4a" stroke="#4a4a4a" stroke-width="1.51"/><path d="M1894,519L1945,602L1949,529Z" fill="#9f9f9f" stroke="#9f9f9f" stroke-width="1.51"/><path d="M1852,919L1800,1036L1952,959Z" fill="#757575" stroke="#757575" stroke-width="1.51"/><path d="M1942,-57L1819,87L1955,9Z" fill="#8f5148" stroke="#8f5148" stroke-width="1.51"/><path d="M1819,87L1797,121L1837,213Z" fill="#a67365" stroke="#a67365" stroke-width="1.51"/><path d="M1861,332L1904,387L1925,381Z" fill="#a49187" stroke="#a49187" stroke-width="1.51"/><path d="M1837,213L1861,332L1933,224Z" fill="#a58272" stroke="#a58272" stroke-width="1.51"/><path d="M1913,-105L1814,-130L1942,-57Z" fill="#85413f" stroke="#85413f" stroke-width="1.51"/><path d="M1814,-130L1819,87L1942,-57Z" fill="#914f48" stroke="#914f48" stroke-width="1.51"/><path d="M1894,519L1836,706L1945,602Z" fill="#9f9f9f" stroke="#9f9f9f" stroke-width="1.51"/><path d="M1831,765L1779,821L1852,919Z" fill="#909090" stroke="#909090" stroke-width="1.51"/><path d="M1734,583L1836,706L1894,519Z" fill="#a8a8a8" stroke="#a8a8a8" stroke-width="1.51"/><path d="M1353,-236L1555,-186L1694,-216Z" fill="#945d5f" stroke="#945d5f" stroke-width="1.51"/><path d="M1814,-130L1716,-37L1819,87Z" fill="#9c5952" stroke="#9c5952" stroke-width="1.51"/><path d="M1763,1120L1816,1290L1886,1122Z" fill="#565656" stroke="#565656" stroke-width="1.51"/><path d="M1716,440L1894,519L1904,387Z" fill="#aca29d" stroke="#aca29d" stroke-width="1.51"/><path d="M1861,332L1716,440L1904,387Z" fill="#ad9d94" stroke="#ad9d94" stroke-width="1.51"/><path d="M1716,440L1734,583L1894,519Z" fill="#b4b1b0" stroke="#b4b1b0" stroke-width="1.51"/><path d="M1800,1036L1763,1120L1886,1122Z" fill="#666666" stroke="#666666" stroke-width="1.51"/><path d="M1732,898L1800,1036L1852,919Z" fill="#828282" stroke="#828282" stroke-width="1.51"/><path d="M1779,821L1732,898L1852,919Z" fill="#8e8e8e" stroke="#8e8e8e" stroke-width="1.51"/><path d="M1837,213L1732,314L1861,332Z" fill="#af8f81" stroke="#af8f81" stroke-width="1.51"/><path d="M1732,314L1716,440L1861,332Z" fill="#b5a196" stroke="#b5a196" stroke-width="1.51"/><path d="M1763,1120L1677,1264L1816,1290Z" fill="#565656" stroke="#565656" stroke-width="1.51"/><path d="M1677,1264L1704,1300L1816,1290Z" fill="#4d4d4d" stroke="#4d4d4d" stroke-width="1.51"/><path d="M1716,-37L1757,112L1819,87Z" fill="#a6695e" stroke="#a6695e" stroke-width="1.51"/><path d="M1682,637L1779,821L1831,765Z" fill="#a2a2a2" stroke="#a2a2a2" stroke-width="1.51"/><path d="M1682,637L1831,765L1836,706Z" fill="#a4a4a4" stroke="#a4a4a4" stroke-width="1.51"/><path d="M1734,583L1682,637L1836,706Z" fill="#aeaeae" stroke="#aeaeae" stroke-width="1.51"/><path d="M1797,121L1757,112L1837,213Z" fill="#aa7768" stroke="#aa7768" stroke-width="1.51"/><path d="M1757,112L1732,314L1837,213Z" fill="#b08776" stroke="#b08776" stroke-width="1.51"/><path d="M1682,637L1666,809L1779,821Z" fill="#a8a8a8" stroke="#a8a8a8" stroke-width="1.51"/><path d="M1757,112L1797,121L1819,87Z" fill="#a76f62" stroke="#a76f62" stroke-width="1.51"/><path d="M1732,898L1688,1064L1800,1036Z" fill="#818181" stroke="#818181" stroke-width="1.51"/><path d="M1651,-108L1716,-37L1814,-130Z" fill="#9c5551" stroke="#9c5551" stroke-width="1.51"/><path d="M1694,-216L1651,-108L1814,-130Z" fill="#8e504f" stroke="#8e504f" stroke-width="1.51"/><path d="M1573,200L1732,314L1757,112Z" fill="#bd9280" stroke="#bd9280" stroke-width="1.51"/><path d="M1688,1064L1763,1120L1800,1036Z" fill="#717171" stroke="#717171" stroke-width="1.51"/><path d="M1670,339L1716,440L1732,314Z" fill="#bda99f" stroke="#bda99f" stroke-width="1.51"/><path d="M1716,-37L1620,43L1757,112Z" fill="#af6f64" stroke="#af6f64" stroke-width="1.51"/><path d="M1666,809L1732,898L1779,821Z" fill="#9b9b9b" stroke="#9b9b9b" stroke-width="1.51"/><path d="M1659,1075L1577,1193L1677,1264Z" fill="#6b6b6b" stroke="#6b6b6b" stroke-width="1.51"/><path d="M1666,809L1654,844L1732,898Z" fill="#a0a0a0" stroke="#a0a0a0" stroke-width="1.51"/><path d="M1573,200L1670,339L1732,314Z" fill="#c2a193" stroke="#c2a193" stroke-width="1.51"/><path d="M1688,1064L1659,1075L1763,1120Z" fill="#757575" stroke="#757575" stroke-width="1.51"/><path d="M1659,1075L1677,1264L1763,1120Z" fill="#696969" stroke="#696969" stroke-width="1.51"/><path d="M1716,440L1569,534L1734,583Z" fill="#c2bfbe" stroke="#c2bfbe" stroke-width="1.51"/><path d="M1620,43L1573,200L1757,112Z" fill="#bb8375" stroke="#bb8375" stroke-width="1.51"/><path d="M1570,665L1666,809L1682,637Z" fill="#b6b6b6" stroke="#b6b6b6" stroke-width="1.51"/><path d="M1559,901L1659,1075L1688,1064Z" fill="#8a8a8a" stroke="#8a8a8a" stroke-width="1.51"/><path d="M1634,-131L1651,-108L1694,-216Z" fill="#965756" stroke="#965756" stroke-width="1.51"/><path d="M1559,901L1688,1064L1732,898Z" fill="#919191" stroke="#919191" stroke-width="1.51"/><path d="M1654,844L1559,901L1732,898Z" fill="#9f9f9f" stroke="#9f9f9f" stroke-width="1.51"/><path d="M1569,534L1682,637L1734,583Z" fill="#bfbfbf" stroke="#bfbfbf" stroke-width="1.51"/><path d="M1677,1264L1469,1288L1704,1300Z" fill="#595959" stroke="#595959" stroke-width="1.51"/><path d="M1651,-108L1620,43L1716,-37Z" fill="#ac665f" stroke="#ac665f" stroke-width="1.51"/><path d="M1670,339L1594,377L1716,440Z" fill="#c3b2a9" stroke="#c3b2a9" stroke-width="1.51"/><path d="M1594,377L1569,534L1716,440Z" fill="#c7bdb8" stroke="#c7bdb8" stroke-width="1.51"/><path d="M1555,-186L1634,-131L1694,-216Z" fill="#935858" stroke="#935858" stroke-width="1.51"/><path d="M1533,85L1573,200L1620,43Z" fill="#c3897b" stroke="#c3897b" stroke-width="1.51"/><path d="M1573,200L1518,267L1670,339Z" fill="#caa797" stroke="#caa797" stroke-width="1.51"/><path d="M1569,534L1570,665L1682,637Z" fill="#c3c3c3" stroke="#c3c3c3" stroke-width="1.51"/><path d="M1518,267L1594,377L1670,339Z" fill="#cab0a4" stroke="#cab0a4" stroke-width="1.51"/><path d="M1577,1193L1469,1288L1677,1264Z" fill="#646464" stroke="#646464" stroke-width="1.51"/><path d="M1473,-35L1620,43L1651,-108Z" fill="#b56f67" stroke="#b56f67" stroke-width="1.51"/><path d="M1559,901L1463,962L1659,1075Z" fill="#989898" stroke="#989898" stroke-width="1.51"/><path d="M1570,665L1456,819L1666,809Z" fill="#b7b7b7" stroke="#b7b7b7" stroke-width="1.51"/><path d="M1456,819L1559,901L1654,844Z" fill="#adadad" stroke="#adadad" stroke-width="1.51"/><path d="M1456,819L1654,844L1666,809Z" fill="#adadad" stroke="#adadad" stroke-width="1.51"/><path d="M1634,-131L1473,-35L1651,-108Z" fill="#ae6560" stroke="#ae6560" stroke-width="1.51"/><path d="M1503,1193L1577,1193L1659,1075Z" fill="#757575" stroke="#757575" stroke-width="1.51"/><path d="M1463,962L1503,1193L1659,1075Z" fill="#888888" stroke="#888888" stroke-width="1.51"/><path d="M1513,400L1569,534L1594,377Z" fill="#cec3bd" stroke="#cec3bd" stroke-width="1.51"/><path d="M1448,712L1456,819L1570,665Z" fill="#c3c3c3" stroke="#c3c3c3" stroke-width="1.51"/><path d="M1569,534L1511,583L1570,665Z" fill="#cacaca" stroke="#cacaca" stroke-width="1.51"/><path d="M1555,-186L1473,-35L1634,-131Z" fill="#aa6562" stroke="#aa6562" stroke-width="1.51"/><path d="M393,-210L558,-206L694,-221Z" fill="#b66257" stroke="#b66257" stroke-width="1.51"/><path d="M1473,-35L1533,85L1620,43Z" fill="#c07d73" stroke="#c07d73" stroke-width="1.51"/><path d="M1533,85L1508,200L1573,200Z" fill="#ca9888" stroke="#ca9888" stroke-width="1.51"/><path d="M1503,1193L1469,1288L1577,1193Z" fill="#6e6e6e" stroke="#6e6e6e" stroke-width="1.51"/><path d="M1518,267L1513,400L1594,377Z" fill="#d0b9ae" stroke="#d0b9ae" stroke-width="1.51"/><path d="M1463,962L1413,1192L1503,1193Z" fill="#898989" stroke="#898989" stroke-width="1.51"/><path d="M1513,400L1511,583L1569,534Z" fill="#d2cecc" stroke="#d2cecc" stroke-width="1.51"/><path d="M1508,200L1518,267L1573,200Z" fill="#cfa593" stroke="#cfa593" stroke-width="1.51"/><path d="M1396,-88L1473,-35L1555,-186Z" fill="#b76e6a" stroke="#b76e6a" stroke-width="1.51"/><path d="M1511,583L1448,712L1570,665Z" fill="#c9c9c9" stroke="#c9c9c9" stroke-width="1.51"/><path d="M1359,423L1511,583L1513,400Z" fill="#dad1cd" stroke="#dad1cd" stroke-width="1.51"/><path d="M1456,819L1463,962L1559,901Z" fill="#adadad" stroke="#adadad" stroke-width="1.51"/><path d="M1353,-236L1396,-88L1555,-186Z" fill="#aa6c6b" stroke="#aa6c6b" stroke-width="1.51"/><path d="M1302,1103L1413,1192L1463,962Z" fill="#949494" stroke="#949494" stroke-width="1.51"/><path d="M1359,423L1358,574L1511,583Z" fill="#dfdddc" stroke="#dfdddc" stroke-width="1.51"/><path d="M1377,267L1513,400L1518,267Z" fill="#d8bbad" stroke="#d8bbad" stroke-width="1.51"/><path d="M1473,-35L1350,26L1533,85Z" fill="#c9867b" stroke="#c9867b" stroke-width="1.51"/><path d="M1418,207L1508,200L1533,85Z" fill="#d09d8e" stroke="#d09d8e" stroke-width="1.51"/><path d="M1350,26L1418,207L1533,85Z" fill="#d29788" stroke="#d29788" stroke-width="1.51"/><path d="M-201,-210L-82,-190L393,-210Z" fill="#971729" stroke="#971729" stroke-width="1.51"/><path d="M1323,995L1302,1103L1463,962Z" fill="#a3a3a3" stroke="#a3a3a3" stroke-width="1.51"/><path d="M1358,574L1448,712L1511,583Z" fill="#d4d4d4" stroke="#d4d4d4" stroke-width="1.51"/><path d="M1377,267L1359,423L1513,400Z" fill="#dec9be" stroke="#dec9be" stroke-width="1.51"/><path d="M1508,200L1418,207L1518,267Z" fill="#d5ab99" stroke="#d5ab99" stroke-width="1.51"/><path d="M1418,207L1377,267L1518,267Z" fill="#dbb3a2" stroke="#dbb3a2" stroke-width="1.51"/><path d="M1413,1192L1469,1288L1503,1193Z" fill="#737373" stroke="#737373" stroke-width="1.51"/><path d="M1456,819L1351,863L1463,962Z" fill="#b6b6b6" stroke="#b6b6b6" stroke-width="1.51"/><path d="M1358,574L1369,715L1448,712Z" fill="#d4d4d4" stroke="#d4d4d4" stroke-width="1.51"/><path d="M1448,712L1369,715L1456,819Z" fill="#c7c7c7" stroke="#c7c7c7" stroke-width="1.51"/><path d="M1369,715L1351,736L1456,819Z" fill="#c9c9c9" stroke="#c9c9c9" stroke-width="1.51"/><path d="M1396,-88L1350,26L1473,-35Z" fill="#c87f77" stroke="#c87f77" stroke-width="1.51"/><path d="M1413,1192L1337,1315L1469,1288Z" fill="#707070" stroke="#707070" stroke-width="1.51"/><path d="M1351,863L1323,995L1463,962Z" fill="#b0b0b0" stroke="#b0b0b0" stroke-width="1.51"/><path d="M1350,26L1256,103L1418,207Z" fill="#da9f90" stroke="#da9f90" stroke-width="1.51"/><path d="M1351,736L1351,863L1456,819Z" fill="#c3c3c3" stroke="#c3c3c3" stroke-width="1.51"/><path d="M1353,-236L1302,-143L1396,-88Z" fill="#b47372" stroke="#b47372" stroke-width="1.51"/><path d="M1256,103L1272,191L1418,207Z" fill="#e0ad9d" stroke="#e0ad9d" stroke-width="1.51"/><path d="M694,-221L856,-177L1151,-230Z" fill="#c08281" stroke="#c08281" stroke-width="1.51"/><path d="M947,1226L770,1293L1242,1289Z" fill="#8b8b8b" stroke="#8b8b8b" stroke-width="1.51"/><path d="M1301,284L1359,423L1377,267Z" fill="#e3c8bb" stroke="#e3c8bb" stroke-width="1.51"/><path d="M1272,191L1377,267L1418,207Z" fill="#e0b5a3" stroke="#e0b5a3" stroke-width="1.51"/><path d="M1242,1289L1337,1315L1413,1192Z" fill="#767676" stroke="#767676" stroke-width="1.51"/><path d="M1302,1103L1242,1289L1413,1192Z" fill="#848484" stroke="#848484" stroke-width="1.51"/><path d="M1358,574L1268,718L1369,715Z" fill="#d8d8d8" stroke="#d8d8d8" stroke-width="1.51"/><path d="M1261,-111L1350,26L1396,-88Z" fill="#cb8079" stroke="#cb8079" stroke-width="1.51"/><path d="M1302,-143L1261,-111L1396,-88Z" fill="#c27a76" stroke="#c27a76" stroke-width="1.51"/><path d="M1229,929L1323,995L1351,863Z" fill="#b8b8b8" stroke="#b8b8b8" stroke-width="1.51"/><path d="M1229,815L1351,863L1351,736Z" fill="#c9c9c9" stroke="#c9c9c9" stroke-width="1.51"/><path d="M1224,410L1202,595L1358,574Z" fill="#eae9e8" stroke="#eae9e8" stroke-width="1.51"/><path d="M1224,410L1358,574L1359,423Z" fill="#e6ded9" stroke="#e6ded9" stroke-width="1.51"/><path d="M1301,284L1224,410L1359,423Z" fill="#e8d4ca" stroke="#e8d4ca" stroke-width="1.51"/><path d="M1272,191L1301,284L1377,267Z" fill="#e4bdab" stroke="#e4bdab" stroke-width="1.51"/><path d="M1093,1221L947,1226L1242,1289Z" fill="#898989" stroke="#898989" stroke-width="1.51"/><path d="M1268,718L1229,815L1351,736Z" fill="#d2d2d2" stroke="#d2d2d2" stroke-width="1.51"/><path d="M1202,595L1268,718L1358,574Z" fill="#e0e0e0" stroke="#e0e0e0" stroke-width="1.51"/><path d="M1268,718L1351,736L1369,715Z" fill="#d2d2d2" stroke="#d2d2d2" stroke-width="1.51"/><path d="M1166,1179L1242,1289L1302,1103Z" fill="#8b8b8b" stroke="#8b8b8b" stroke-width="1.51"/><path d="M1261,-111L1181,15L1350,26Z" fill="#d48c83" stroke="#d48c83" stroke-width="1.51"/><path d="M1151,-230L1302,-143L1353,-236Z" fill="#ae7475" stroke="#ae7475" stroke-width="1.51"/><path d="M1022,1215L947,1226L1093,1221Z" fill="#939393" stroke="#939393" stroke-width="1.51"/><path d="M1229,815L1229,929L1351,863Z" fill="#c4c4c4" stroke="#c4c4c4" stroke-width="1.51"/><path d="M1181,15L1256,103L1350,26Z" fill="#db988c" stroke="#db988c" stroke-width="1.51"/><path d="M1210,1060L1302,1103L1323,995Z" fill="#a3a3a3" stroke="#a3a3a3" stroke-width="1.51"/><path d="M1229,929L1210,1060L1323,995Z" fill="#b0b0b0" stroke="#b0b0b0" stroke-width="1.51"/><path d="M1272,191L1119,313L1301,284Z" fill="#ecc6b6" stroke="#ecc6b6" stroke-width="1.51"/><path d="M1119,313L1224,410L1301,284Z" fill="#eed4c7" stroke="#eed4c7" stroke-width="1.51"/><path d="M1210,1060L1166,1179L1302,1103Z" fill="#9b9b9b" stroke="#9b9b9b" stroke-width="1.51"/><path d="M1151,-230L1261,-111L1302,-143Z" fill="#bc7b79" stroke="#bc7b79" stroke-width="1.51"/><path d="M1107,505L1202,595L1224,410Z" fill="#f1ecea" stroke="#f1ecea" stroke-width="1.51"/><path d="M1157,416L1107,505L1224,410Z" fill="#f2e7e1" stroke="#f2e7e1" stroke-width="1.51"/><path d="M1202,595L1111,705L1268,718Z" fill="#e3e3e3" stroke="#e3e3e3" stroke-width="1.51"/><path d="M1157,768L1229,815L1268,718Z" fill="#d6d6d6" stroke="#d6d6d6" stroke-width="1.51"/><path d="M1256,103L1098,169L1272,191Z" fill="#e8b2a2" stroke="#e8b2a2" stroke-width="1.51"/><path d="M1098,169L1119,313L1272,191Z" fill="#f0c4b2" stroke="#f0c4b2" stroke-width="1.51"/><path d="M1103,-100L1181,15L1261,-111Z" fill="#d78a83" stroke="#d78a83" stroke-width="1.51"/><path d="M1151,-230L1103,-100L1261,-111Z" fill="#c5817e" stroke="#c5817e" stroke-width="1.51"/><path d="M1111,705L1157,768L1268,718Z" fill="#dddddd" stroke="#dddddd" stroke-width="1.51"/><path d="M1157,909L1229,929L1229,815Z" fill="#c7c7c7" stroke="#c7c7c7" stroke-width="1.51"/><path d="M1119,313L1157,416L1224,410Z" fill="#f1dfd4" stroke="#f1dfd4" stroke-width="1.51"/><path d="M1181,15L1098,169L1256,103Z" fill="#e6a89a" stroke="#e6a89a" stroke-width="1.51"/><path d="M1157,909L1088,985L1210,1060Z" fill="#b9b9b9" stroke="#b9b9b9" stroke-width="1.51"/><path d="M1157,909L1210,1060L1229,929Z" fill="#b9b9b9" stroke="#b9b9b9" stroke-width="1.51"/><path d="M1166,1179L1093,1221L1242,1289Z" fill="#888888" stroke="#888888" stroke-width="1.51"/><path d="M1157,768L1157,909L1229,815Z" fill="#d0d0d0" stroke="#d0d0d0" stroke-width="1.51"/><path d="M1041,1064L1166,1179L1210,1060Z" fill="#a4a4a4" stroke="#a4a4a4" stroke-width="1.51"/><path d="M1088,985L1041,1064L1210,1060Z" fill="#b2b2b2" stroke="#b2b2b2" stroke-width="1.51"/><path d="M1060,686L1111,705L1202,595Z" fill="#e8e8e8" stroke="#e8e8e8" stroke-width="1.51"/><path d="M1107,505L1060,686L1202,595Z" fill="#efefef" stroke="#efefef" stroke-width="1.51"/><path d="M1157,768L999,749L1157,909Z" fill="#d8d8d8" stroke="#d8d8d8" stroke-width="1.51"/><path d="M999,749L969,895L1157,909Z" fill="#d7d7d7" stroke="#d7d7d7" stroke-width="1.51"/><path d="M977,87L1098,169L1181,15Z" fill="#ecac9e" stroke="#ecac9e" stroke-width="1.51"/><path d="M1103,-100L984,-47L1181,15Z" fill="#df938b" stroke="#df938b" stroke-width="1.51"/><path d="M984,-47L977,87L1181,15Z" fill="#e8a196" stroke="#e8a196" stroke-width="1.51"/><path d="M987,568L1060,686L1107,505Z" fill="#f4f4f4" stroke="#f4f4f4" stroke-width="1.51"/><path d="M856,-177L1040,-141L1151,-230Z" fill="#c58686" stroke="#c58686" stroke-width="1.51"/><path d="M1040,-141L1103,-100L1151,-230Z" fill="#c68482" stroke="#c68482" stroke-width="1.51"/><path d="M1041,1064L1093,1221L1166,1179Z" fill="#9b9b9b" stroke="#9b9b9b" stroke-width="1.51"/><path d="M1111,705L999,749L1157,768Z" fill="#e1e1e1" stroke="#e1e1e1" stroke-width="1.51"/><path d="M969,895L1088,985L1157,909Z" fill="#c8c8c8" stroke="#c8c8c8" stroke-width="1.51"/><path d="M1119,313L1022,476L1157,416Z" fill="#f6e6dd" stroke="#f6e6dd" stroke-width="1.51"/><path d="M1022,476L1107,505L1157,416Z" fill="#f6eee9" stroke="#f6eee9" stroke-width="1.51"/><path d="M1098,169L998,220L1119,313Z" fill="#f6cbba" stroke="#f6cbba" stroke-width="1.51"/><path d="M694,-221L798,-181L856,-177Z" fill="#c27b75" stroke="#c27b75" stroke-width="1.51"/><path d="M1041,1064L1022,1215L1093,1221Z" fill="#9b9b9b" stroke="#9b9b9b" stroke-width="1.51"/><path d="M1060,686L999,749L1111,705Z" fill="#e7e7e7" stroke="#e7e7e7" stroke-width="1.51"/><path d="M948,400L1022,476L1119,313Z" fill="#faeae0" stroke="#faeae0" stroke-width="1.51"/><path d="M973,288L948,400L1119,313Z" fill="#fbe1d4" stroke="#fbe1d4" stroke-width="1.51"/><path d="M998,220L973,288L1119,313Z" fill="#fad5c5" stroke="#fad5c5" stroke-width="1.51"/><path d="M1022,476L987,568L1107,505Z" fill="#faf7f6" stroke="#faf7f6" stroke-width="1.51"/><path d="M1040,-141L984,-47L1103,-100Z" fill="#db8e88" stroke="#db8e88" stroke-width="1.51"/><path d="M964,1187L1022,1215L1041,1064Z" fill="#a0a0a0" stroke="#a0a0a0" stroke-width="1.51"/><path d="M977,87L998,220L1098,169Z" fill="#f5bfae" stroke="#f5bfae" stroke-width="1.51"/><path d="M969,895L1041,1064L1088,985Z" fill="#c2c2c2" stroke="#c2c2c2" stroke-width="1.51"/><path d="M969,895L904,1009L1041,1064Z" fill="#c4c4c4" stroke="#c4c4c4" stroke-width="1.51"/><path d="M947,729L999,749L1060,686Z" fill="#eaeaea" stroke="#eaeaea" stroke-width="1.51"/><path d="M987,568L947,729L1060,686Z" fill="#f0f0f0" stroke="#f0f0f0" stroke-width="1.51"/><path d="M908,588L947,729L987,568Z" fill="#f6f5f4" stroke="#f6f5f4" stroke-width="1.51"/><path d="M856,-177L868,-114L1040,-141Z" fill="#d28a87" stroke="#d28a87" stroke-width="1.51"/><path d="M904,1009L964,1187L1041,1064Z" fill="#b1b1b1" stroke="#b1b1b1" stroke-width="1.51"/><path d="M868,-114L984,-47L1040,-141Z" fill="#df928d" stroke="#df928d" stroke-width="1.51"/><path d="M904,1009L872,1157L964,1187Z" fill="#aba8a6" stroke="#aba8a6" stroke-width="1.51"/><path d="M935,300L948,400L973,288Z" fill="#ffe3d5" stroke="#ffe3d5" stroke-width="1.51"/><path d="M948,400L908,588L987,568Z" fill="#fffbf9" stroke="#fffbf9" stroke-width="1.51"/><path d="M977,87L910,212L998,220Z" fill="#fac6b5" stroke="#fac6b5" stroke-width="1.51"/><path d="M947,729L969,895L999,749Z" fill="#e3e3e3" stroke="#e3e3e3" stroke-width="1.51"/><path d="M964,1187L947,1226L1022,1215Z" fill="#979797" stroke="#979797" stroke-width="1.51"/><path d="M948,400L987,568L1022,476Z" fill="#fef6f3" stroke="#fef6f3" stroke-width="1.51"/><path d="M844,18L977,87L984,-47Z" fill="#eda598" stroke="#eda598" stroke-width="1.51"/><path d="M910,212L973,288L998,220Z" fill="#fed4c2" stroke="#fed4c2" stroke-width="1.51"/><path d="M779,445L908,588L948,400Z" fill="#fff2ea" stroke="#fff2ea" stroke-width="1.51"/><path d="M947,729L843,716L969,895Z" fill="#e5e2e0" stroke="#e5e2e0" stroke-width="1.51"/><path d="M843,716L796,922L969,895Z" fill="#ddd6d3" stroke="#ddd6d3" stroke-width="1.51"/><path d="M859,955L904,1009L969,895Z" fill="#cbc7c5" stroke="#cbc7c5" stroke-width="1.51"/><path d="M910,212L935,300L973,288Z" fill="#fed7c6" stroke="#fed7c6" stroke-width="1.51"/><path d="M825,111L910,212L977,87Z" fill="#f6baa8" stroke="#f6baa8" stroke-width="1.51"/><path d="M868,-114L844,18L984,-47Z" fill="#e6968c" stroke="#e6968c" stroke-width="1.51"/><path d="M908,588L843,716L947,729Z" fill="#f1edea" stroke="#f1edea" stroke-width="1.51"/><path d="M796,922L859,955L969,895Z" fill="#d0c9c6" stroke="#d0c9c6" stroke-width="1.51"/><path d="M844,18L825,111L977,87Z" fill="#f1aa9a" stroke="#f1aa9a" stroke-width="1.51"/><path d="M872,1157L947,1226L964,1187Z" fill="#9c9a99" stroke="#9c9a99" stroke-width="1.51"/><path d="M810,1058L872,1157L904,1009Z" fill="#b4ada9" stroke="#b4ada9" stroke-width="1.51"/><path d="M795,253L779,445L935,300Z" fill="#fedac9" stroke="#fedac9" stroke-width="1.51"/><path d="M872,1157L770,1293L947,1226Z" fill="#958e8b" stroke="#958e8b" stroke-width="1.51"/><path d="M935,300L779,445L948,400Z" fill="#fee7da" stroke="#fee7da" stroke-width="1.51"/><path d="M748,753L796,922L843,716Z" fill="#e3d6cf" stroke="#e3d6cf" stroke-width="1.51"/><path d="M779,445L785,586L908,588Z" fill="#fff5ef" stroke="#fff5ef" stroke-width="1.51"/><path d="M830,206L795,253L910,212Z" fill="#fcc8b1" stroke="#fcc8b1" stroke-width="1.51"/><path d="M825,111L830,206L910,212Z" fill="#f9bfaa" stroke="#f9bfaa" stroke-width="1.51"/><path d="M910,212L795,253L935,300Z" fill="#fdd0bc" stroke="#fdd0bc" stroke-width="1.51"/><path d="M785,586L843,716L908,588Z" fill="#f6eee9" stroke="#f6eee9" stroke-width="1.51"/><path d="M859,955L810,1058L904,1009Z" fill="#c1bab6" stroke="#c1bab6" stroke-width="1.51"/><path d="M785,586L741,616L843,716Z" fill="#f5e8e1" stroke="#f5e8e1" stroke-width="1.51"/><path d="M738,-34L844,18L868,-114Z" fill="#e59183" stroke="#e59183" stroke-width="1.51"/><path d="M856,-177L798,-181L868,-114Z" fill="#cd837d" stroke="#cd837d" stroke-width="1.51"/><path d="M810,1058L774,1112L872,1157Z" fill="#ada39d" stroke="#ada39d" stroke-width="1.51"/><path d="M774,1112L770,1293L872,1157Z" fill="#9c928c" stroke="#9c928c" stroke-width="1.51"/><path d="M796,922L810,1058L859,955Z" fill="#c6bcb6" stroke="#c6bcb6" stroke-width="1.51"/><path d="M798,-181L738,-34L868,-114Z" fill="#d9867c" stroke="#d9867c" stroke-width="1.51"/><path d="M688,1236L770,1293L774,1112Z" fill="#978981" stroke="#978981" stroke-width="1.51"/><path d="M825,111L705,129L830,206Z" fill="#f5b49c" stroke="#f5b49c" stroke-width="1.51"/><path d="M741,616L748,753L843,716Z" fill="#efe2da" stroke="#efe2da" stroke-width="1.51"/><path d="M687,92L825,111L844,18Z" fill="#efa48f" stroke="#efa48f" stroke-width="1.51"/><path d="M738,-34L687,92L844,18Z" fill="#ea9885" stroke="#ea9885" stroke-width="1.51"/><path d="M612,323L779,445L795,253Z" fill="#fdd4be" stroke="#fdd4be" stroke-width="1.51"/><path d="M687,92L705,129L825,111Z" fill="#f1a891" stroke="#f1a891" stroke-width="1.51"/><path d="M705,129L795,253L830,206Z" fill="#f8bda5" stroke="#f8bda5" stroke-width="1.51"/><path d="M748,753L660,921L796,922Z" fill="#dac9c0" stroke="#dac9c0" stroke-width="1.51"/><path d="M796,922L660,921L810,1058Z" fill="#c8b9b1" stroke="#c8b9b1" stroke-width="1.51"/><path d="M660,921L621,1008L810,1058Z" fill="#c3b0a5" stroke="#c3b0a5" stroke-width="1.51"/><path d="M612,323L626,434L779,445Z" fill="#fdd7c3" stroke="#fdd7c3" stroke-width="1.51"/><path d="M779,445L627,556L785,586Z" fill="#ffece2" stroke="#ffece2" stroke-width="1.51"/><path d="M636,-117L738,-34L798,-181Z" fill="#d78073" stroke="#d78073" stroke-width="1.51"/><path d="M665,1104L774,1112L810,1058Z" fill="#b0a199" stroke="#b0a199" stroke-width="1.51"/><path d="M621,1008L665,1104L810,1058Z" fill="#b7a49a" stroke="#b7a49a" stroke-width="1.51"/><path d="M741,616L679,654L748,753Z" fill="#f1e0d6" stroke="#f1e0d6" stroke-width="1.51"/><path d="M627,556L741,616L785,586Z" fill="#fae8de" stroke="#fae8de" stroke-width="1.51"/><path d="M694,-221L636,-117L798,-181Z" fill="#c5786e" stroke="#c5786e" stroke-width="1.51"/><path d="M705,129L612,323L795,253Z" fill="#fabfa3" stroke="#fabfa3" stroke-width="1.51"/><path d="M628,759L660,921L748,753Z" fill="#e1cbc0" stroke="#e1cbc0" stroke-width="1.51"/><path d="M688,1236L564,1287L770,1293Z" fill="#8b776d" stroke="#8b776d" stroke-width="1.51"/><path d="M665,1104L688,1236L774,1112Z" fill="#a49389" stroke="#a49389" stroke-width="1.51"/><path d="M626,434L627,556L779,445Z" fill="#fee1d1" stroke="#fee1d1" stroke-width="1.51"/><path d="M564,144L612,323L705,129Z" fill="#f6af92" stroke="#f6af92" stroke-width="1.51"/><path d="M679,654L628,759L748,753Z" fill="#ecd7cc" stroke="#ecd7cc" stroke-width="1.51"/><path d="M596,-108L687,92L738,-34Z" fill="#e38976" stroke="#e38976" stroke-width="1.51"/><path d="M627,556L679,654L741,616Z" fill="#f8e1d6" stroke="#f8e1d6" stroke-width="1.51"/><path d="M636,-117L596,-108L738,-34Z" fill="#db7b6b" stroke="#db7b6b" stroke-width="1.51"/><path d="M596,-108L568,97L687,92Z" fill="#e68b74" stroke="#e68b74" stroke-width="1.51"/><path d="M665,1104L589,1165L688,1236Z" fill="#9f887d" stroke="#9f887d" stroke-width="1.51"/><path d="M687,92L564,144L705,129Z" fill="#efa287" stroke="#efa287" stroke-width="1.51"/><path d="M-82,-190L9,-161L393,-210Z" fill="#a0252e" stroke="#a0252e" stroke-width="1.51"/><path d="M628,759L540,777L660,921Z" fill="#dfc2b5" stroke="#dfc2b5" stroke-width="1.51"/><path d="M621,1008L593,1046L665,1104Z" fill="#b79d91" stroke="#b79d91" stroke-width="1.51"/><path d="M590,675L628,759L679,654Z" fill="#efd4c6" stroke="#efd4c6" stroke-width="1.51"/><path d="M568,97L564,144L687,92Z" fill="#ed9a7f" stroke="#ed9a7f" stroke-width="1.51"/><path d="M558,-206L636,-117L694,-221Z" fill="#c16e63" stroke="#c16e63" stroke-width="1.51"/><path d="M540,777L544,927L660,921Z" fill="#d7b7a9" stroke="#d7b7a9" stroke-width="1.51"/><path d="M627,556L590,675L679,654Z" fill="#f6dacd" stroke="#f6dacd" stroke-width="1.51"/><path d="M589,1165L564,1287L688,1236Z" fill="#93796d" stroke="#93796d" stroke-width="1.51"/><path d="M564,144L589,328L612,323Z" fill="#f8b799" stroke="#f8b799" stroke-width="1.51"/><path d="M612,323L589,328L626,434Z" fill="#fbcab2" stroke="#fbcab2" stroke-width="1.51"/><path d="M589,328L556,369L626,434Z" fill="#fbcbb2" stroke="#fbcbb2" stroke-width="1.51"/><path d="M544,927L621,1008L660,921Z" fill="#caada0" stroke="#caada0" stroke-width="1.51"/><path d="M593,1046L589,1165L665,1104Z" fill="#ac9185" stroke="#ac9185" stroke-width="1.51"/><path d="M626,434L554,556L627,556Z" fill="#fedccd" stroke="#fedccd" stroke-width="1.51"/><path d="M558,-206L596,-108L636,-117Z" fill="#ca6e61" stroke="#ca6e61" stroke-width="1.51"/><path d="M554,556L590,675L627,556Z" fill="#f9d9ca" stroke="#f9d9ca" stroke-width="1.51"/><path d="M564,144L462,331L589,328Z" fill="#f7b392" stroke="#f7b392" stroke-width="1.51"/><path d="M375,-100L568,97L596,-108Z" fill="#db735e" stroke="#db735e" stroke-width="1.51"/><path d="M556,369L449,460L626,434Z" fill="#fccbb4" stroke="#fccbb4" stroke-width="1.51"/><path d="M449,460L554,556L626,434Z" fill="#fdd2be" stroke="#fdd2be" stroke-width="1.51"/><path d="M590,675L540,777L628,759Z" fill="#e9cabb" stroke="#e9cabb" stroke-width="1.51"/><path d="M-9,1210L-223,1231L179,1249Z" fill="#733230" stroke="#733230" stroke-width="1.51"/><path d="M544,927L593,1046L621,1008Z" fill="#c3a496" stroke="#c3a496" stroke-width="1.51"/><path d="M375,-100L363,71L568,97Z" fill="#de745c" stroke="#de745c" stroke-width="1.51"/><path d="M450,1060L589,1165L593,1046Z" fill="#af8d7e" stroke="#af8d7e" stroke-width="1.51"/><path d="M463,939L450,1060L544,927Z" fill="#c49c8b" stroke="#c49c8b" stroke-width="1.51"/><path d="M385,189L462,331L564,144Z" fill="#f3a280" stroke="#f3a280" stroke-width="1.51"/><path d="M425,1190L564,1287L589,1165Z" fill="#957364" stroke="#957364" stroke-width="1.51"/><path d="M472,711L540,777L590,675Z" fill="#ebc6b5" stroke="#ebc6b5" stroke-width="1.51"/><path d="M554,556L464,565L590,675Z" fill="#f8d2c2" stroke="#f8d2c2" stroke-width="1.51"/><path d="M464,565L472,711L590,675Z" fill="#f3cab9" stroke="#f3cab9" stroke-width="1.51"/><path d="M544,927L450,1060L593,1046Z" fill="#bf9b8b" stroke="#bf9b8b" stroke-width="1.51"/><path d="M558,-206L375,-100L596,-108Z" fill="#c86556" stroke="#c86556" stroke-width="1.51"/><path d="M540,777L462,790L544,927Z" fill="#ddb6a6" stroke="#ddb6a6" stroke-width="1.51"/><path d="M450,1060L425,1190L589,1165Z" fill="#a47e6d" stroke="#a47e6d" stroke-width="1.51"/><path d="M462,331L556,369L589,328Z" fill="#fabfa3" stroke="#fabfa3" stroke-width="1.51"/><path d="M9,-161L146,-136L393,-210Z" fill="#ab3235" stroke="#ab3235" stroke-width="1.51"/><path d="M462,790L463,939L544,927Z" fill="#d5ab9a" stroke="#d5ab9a" stroke-width="1.51"/><path d="M449,460L464,565L554,556Z" fill="#fed1be" stroke="#fed1be" stroke-width="1.51"/><path d="M393,-210L375,-100L558,-206Z" fill="#bc584c" stroke="#bc584c" stroke-width="1.51"/><path d="M425,1190L443,1296L564,1287Z" fill="#8b6655" stroke="#8b6655" stroke-width="1.51"/><path d="M363,71L385,189L564,144Z" fill="#e98b6d" stroke="#e98b6d" stroke-width="1.51"/><path d="M363,71L564,144L568,97Z" fill="#ea8c6f" stroke="#ea8c6f" stroke-width="1.51"/><path d="M462,331L449,460L556,369Z" fill="#fac1a6" stroke="#fac1a6" stroke-width="1.51"/><path d="M472,711L462,790L540,777Z" fill="#e6bcaa" stroke="#e6bcaa" stroke-width="1.51"/><path d="M146,-136L260,-138L393,-210Z" fill="#b33f3b" stroke="#b33f3b" stroke-width="1.51"/><path d="M353,1235L179,1249L443,1296Z" fill="#845246" stroke="#845246" stroke-width="1.51"/><path d="M258,368L449,460L462,331Z" fill="#f5b49a" stroke="#f5b49a" stroke-width="1.51"/><path d="M385,189L329,232L462,331Z" fill="#f09d7d" stroke="#f09d7d" stroke-width="1.51"/><path d="M315,994L450,1060L463,939Z" fill="#be8e7e" stroke="#be8e7e" stroke-width="1.51"/><path d="M462,790L315,882L463,939Z" fill="#d4a493" stroke="#d4a493" stroke-width="1.51"/><path d="M449,460L331,571L464,565Z" fill="#fac8b6" stroke="#fac8b6" stroke-width="1.51"/><path d="M331,571L320,620L464,565Z" fill="#f4bead" stroke="#f4bead" stroke-width="1.51"/><path d="M464,565L320,620L472,711Z" fill="#f2c1af" stroke="#f2c1af" stroke-width="1.51"/><path d="M320,620L462,790L472,711Z" fill="#eab9a8" stroke="#eab9a8" stroke-width="1.51"/><path d="M425,1190L353,1235L443,1296Z" fill="#8c6051" stroke="#8c6051" stroke-width="1.51"/><path d="M320,620L257,839L462,790Z" fill="#e1aa9a" stroke="#e1aa9a" stroke-width="1.51"/><path d="M299,1189L425,1190L450,1060Z" fill="#9e7061" stroke="#9e7061" stroke-width="1.51"/><path d="M257,839L315,882L462,790Z" fill="#d6a090" stroke="#d6a090" stroke-width="1.51"/><path d="M315,882L315,994L463,939Z" fill="#c59283" stroke="#c59283" stroke-width="1.51"/><path d="M329,232L258,368L462,331Z" fill="#f0a185" stroke="#f0a185" stroke-width="1.51"/><path d="M315,994L299,1189L450,1060Z" fill="#aa7869" stroke="#aa7869" stroke-width="1.51"/><path d="M223,475L331,571L449,460Z" fill="#f6b9a7" stroke="#f6b9a7" stroke-width="1.51"/><path d="M258,368L223,475L449,460Z" fill="#f3ae99" stroke="#f3ae99" stroke-width="1.51"/><path d="M256,283L258,368L329,232Z" fill="#ec947a" stroke="#ec947a" stroke-width="1.51"/><path d="M254,-29L363,71L375,-100Z" fill="#d25d4c" stroke="#d25d4c" stroke-width="1.51"/><path d="M299,1189L353,1235L425,1190Z" fill="#916153" stroke="#916153" stroke-width="1.51"/><path d="M194,652L257,839L320,620Z" fill="#e2a395" stroke="#e2a395" stroke-width="1.51"/><path d="M363,71L283,104L385,189Z" fill="#e27a60" stroke="#e27a60" stroke-width="1.51"/><path d="M260,-138L375,-100L393,-210Z" fill="#bb4c43" stroke="#bb4c43" stroke-width="1.51"/><path d="M283,104L329,232L385,189Z" fill="#e78568" stroke="#e78568" stroke-width="1.51"/><path d="M223,1169L299,1189L315,994Z" fill="#9f675a" stroke="#9f675a" stroke-width="1.51"/><path d="M260,-138L254,-29L375,-100Z" fill="#c74a41" stroke="#c74a41" stroke-width="1.51"/><path d="M299,1189L179,1249L353,1235Z" fill="#885247" stroke="#885247" stroke-width="1.51"/><path d="M254,-29L283,104L363,71Z" fill="#d86551" stroke="#d86551" stroke-width="1.51"/><path d="M209,98L256,283L283,104Z" fill="#e0765d" stroke="#e0765d" stroke-width="1.51"/><path d="M121,1008L223,1169L315,994Z" fill="#a86b5f" stroke="#a86b5f" stroke-width="1.51"/><path d="M315,882L184,890L315,994Z" fill="#c4887b" stroke="#c4887b" stroke-width="1.51"/><path d="M283,104L256,283L329,232Z" fill="#e78668" stroke="#e78668" stroke-width="1.51"/><path d="M207,502L320,620L331,571Z" fill="#f2b4a5" stroke="#f2b4a5" stroke-width="1.51"/><path d="M223,475L207,502L331,571Z" fill="#f3afa0" stroke="#f3afa0" stroke-width="1.51"/><path d="M207,502L194,652L320,620Z" fill="#edab9d" stroke="#edab9d" stroke-width="1.51"/><path d="M209,98L139,176L256,283Z" fill="#df755d" stroke="#df755d" stroke-width="1.51"/><path d="M194,652L134,777L257,839Z" fill="#d89589" stroke="#d89589" stroke-width="1.51"/><path d="M254,-29L209,98L283,104Z" fill="#d55f4c" stroke="#d55f4c" stroke-width="1.51"/><path d="M257,839L184,890L315,882Z" fill="#cd8e81" stroke="#cd8e81" stroke-width="1.51"/><path d="M223,1169L179,1249L299,1189Z" fill="#8b5146" stroke="#8b5146" stroke-width="1.51"/><path d="M184,890L121,1008L315,994Z" fill="#b97a6e" stroke="#b97a6e" stroke-width="1.51"/><path d="M84,1210L-9,1210L179,1249Z" fill="#7d3e38" stroke="#7d3e38" stroke-width="1.51"/><path d="M177,-74L254,-29L260,-138Z" fill="#c4413c" stroke="#c4413c" stroke-width="1.51"/><path d="M121,1008L85,1130L223,1169Z" fill="#9a5a51" stroke="#9a5a51" stroke-width="1.51"/><path d="M177,-74L209,98L254,-29Z" fill="#cc4e42" stroke="#cc4e42" stroke-width="1.51"/><path d="M139,176L140,284L256,283Z" fill="#e38066" stroke="#e38066" stroke-width="1.51"/><path d="M256,283L140,284L258,368Z" fill="#e98f77" stroke="#e98f77" stroke-width="1.51"/><path d="M140,284L223,475L258,368Z" fill="#eb9983" stroke="#eb9983" stroke-width="1.51"/><path d="M146,-136L177,-74L260,-138Z" fill="#b93837" stroke="#b93837" stroke-width="1.51"/><path d="M134,777L184,890L257,839Z" fill="#ce8c80" stroke="#ce8c80" stroke-width="1.51"/><path d="M134,777L111,803L184,890Z" fill="#cd877d" stroke="#cd877d" stroke-width="1.51"/><path d="M51,505L26,613L194,652Z" fill="#e49a91" stroke="#e49a91" stroke-width="1.51"/><path d="M51,505L194,652L207,502Z" fill="#eca499" stroke="#eca499" stroke-width="1.51"/><path d="M177,-74L54,5L209,98Z" fill="#c8483f" stroke="#c8483f" stroke-width="1.51"/><path d="M84,1210L179,1249L223,1169Z" fill="#854840" stroke="#854840" stroke-width="1.51"/><path d="M85,1130L84,1210L223,1169Z" fill="#8b4c44" stroke="#8b4c44" stroke-width="1.51"/><path d="M140,284L34,355L223,475Z" fill="#e6907c" stroke="#e6907c" stroke-width="1.51"/><path d="M51,505L207,502L223,475Z" fill="#eca193" stroke="#eca193" stroke-width="1.51"/><path d="M34,355L51,505L223,475Z" fill="#e79587" stroke="#e79587" stroke-width="1.51"/><path d="M54,5L139,176L209,98Z" fill="#d05849" stroke="#d05849" stroke-width="1.51"/><path d="M91,991L121,1008L184,890Z" fill="#b57168" stroke="#b57168" stroke-width="1.51"/><path d="M139,176L115,188L140,284Z" fill="#dd745c" stroke="#dd745c" stroke-width="1.51"/><path d="M65,936L91,991L184,890Z" fill="#b8736a" stroke="#b8736a" stroke-width="1.51"/><path d="M26,613L134,777L194,652Z" fill="#dd948b" stroke="#dd948b" stroke-width="1.51"/><path d="M111,803L65,936L184,890Z" fill="#c37e75" stroke="#c37e75" stroke-width="1.51"/><path d="M34,355L2,431L51,505Z" fill="#e18b7e" stroke="#e18b7e" stroke-width="1.51"/><path d="M54,5L115,188L139,176Z" fill="#d15b4b" stroke="#d15b4b" stroke-width="1.51"/><path d="M146,-136L14,-63L177,-74Z" fill="#b92e32" stroke="#b92e32" stroke-width="1.51"/><path d="M14,-63L54,5L177,-74Z" fill="#bd3334" stroke="#bd3334" stroke-width="1.51"/><path d="M54,5L-35,44L115,188Z" fill="#c84940" stroke="#c84940" stroke-width="1.51"/><path d="M-32,683L111,803L134,777Z" fill="#d1877f" stroke="#d1877f" stroke-width="1.51"/><path d="M26,613L-32,683L134,777Z" fill="#d78b84" stroke="#d78b84" stroke-width="1.51"/><path d="M115,188L-17,263L140,284Z" fill="#db735e" stroke="#db735e" stroke-width="1.51"/><path d="M9,-161L14,-63L146,-136Z" fill="#ad212d" stroke="#ad212d" stroke-width="1.51"/><path d="M91,991L85,1130L121,1008Z" fill="#a46059" stroke="#a46059" stroke-width="1.51"/><path d="M-17,263L34,355L140,284Z" fill="#dd7a67" stroke="#dd7a67" stroke-width="1.51"/><path d="M-39,1111L85,1130L91,991Z" fill="#99544e" stroke="#99544e" stroke-width="1.51"/><path d="M-29,899L65,936L111,803Z" fill="#bf756f" stroke="#bf756f" stroke-width="1.51"/><path d="M-35,44L-17,263L115,188Z" fill="#d05b4c" stroke="#d05b4c" stroke-width="1.51"/><path d="M-32,683L-80,737L111,803Z" fill="#ce817b" stroke="#ce817b" stroke-width="1.51"/><path d="M-80,737L-29,899L111,803Z" fill="#c57873" stroke="#c57873" stroke-width="1.51"/><path d="M-35,44L-117,176L-17,263Z" fill="#c55448" stroke="#c55448" stroke-width="1.51"/><path d="M-9,1210L84,1210L85,1130Z" fill="#83413c" stroke="#83413c" stroke-width="1.51"/><path d="M65,936L-34,971L91,991Z" fill="#ae6760" stroke="#ae6760" stroke-width="1.51"/><path d="M-34,971L-39,1111L91,991Z" fill="#a25a55" stroke="#a25a55" stroke-width="1.51"/><path d="M-39,1111L-9,1210L85,1130Z" fill="#88433f" stroke="#88433f" stroke-width="1.51"/><path d="M-29,899L-34,971L65,936Z" fill="#b16762" stroke="#b16762" stroke-width="1.51"/><path d="M-101,560L26,613L51,505Z" fill="#e0928c" stroke="#e0928c" stroke-width="1.51"/><path d="M14,-63L-48,-21L54,5Z" fill="#ba2b31" stroke="#ba2b31" stroke-width="1.51"/><path d="M-48,-21L-35,44L54,5Z" fill="#bc3235" stroke="#bc3235" stroke-width="1.51"/><path d="M2,431L-101,560L51,505Z" fill="#e08e86" stroke="#e08e86" stroke-width="1.51"/><path d="M-93,427L-101,560L2,431Z" fill="#d68881" stroke="#d68881" stroke-width="1.51"/><path d="M-93,427L2,431L34,355Z" fill="#dc8477" stroke="#dc8477" stroke-width="1.51"/><path d="M-17,263L-93,427L34,355Z" fill="#d87b6c" stroke="#d87b6c" stroke-width="1.51"/><path d="M9,-161L-82,-190L14,-63Z" fill="#a11329" stroke="#a11329" stroke-width="1.51"/><path d="M-101,560L-32,683L26,613Z" fill="#d58a85" stroke="#d58a85" stroke-width="1.51"/><path d="M-82,-190L-48,-21L14,-63Z" fill="#a9162a" stroke="#a9162a" stroke-width="1.51"/><path d="M-136,999L-39,1111L-34,971Z" fill="#965452" stroke="#965452" stroke-width="1.51"/><path d="M-82,-190L-182,-109L-48,-21Z" fill="#9c1028" stroke="#9c1028" stroke-width="1.51"/><path d="M-136,999L-147,1087L-39,1111Z" fill="#874a4a" stroke="#874a4a" stroke-width="1.51"/><path d="M-80,737L-183,879L-29,899Z" fill="#b16f6d" stroke="#b16f6d" stroke-width="1.51"/><path d="M-198,274L-93,427L-17,263Z" fill="#c97064" stroke="#c97064" stroke-width="1.51"/><path d="M-39,1111L-147,1087L-9,1210Z" fill="#7f403f" stroke="#7f403f" stroke-width="1.51"/><path d="M-147,1087L-223,1231L-9,1210Z" fill="#6e3636" stroke="#6e3636" stroke-width="1.51"/><path d="M-145,513L-101,560L-93,427Z" fill="#ce8883" stroke="#ce8883" stroke-width="1.51"/><path d="M-117,176L-198,274L-17,263Z" fill="#c36153" stroke="#c36153" stroke-width="1.51"/><path d="M-101,560L-214,680L-80,737Z" fill="#c0807f" stroke="#c0807f" stroke-width="1.51"/><path d="M-187,1L-117,176L-35,44Z" fill="#b23b39" stroke="#b23b39" stroke-width="1.51"/><path d="M-101,560L-80,737L-32,683Z" fill="#cb8481" stroke="#cb8481" stroke-width="1.51"/><path d="M-136,999L-34,971L-29,899Z" fill="#a3605d" stroke="#a3605d" stroke-width="1.51"/><path d="M-183,879L-136,999L-29,899Z" fill="#a06160" stroke="#a06160" stroke-width="1.51"/><path d="M-48,-21L-187,1L-35,44Z" fill="#ae2e33" stroke="#ae2e33" stroke-width="1.51"/><path d="M-182,-109L-187,1L-48,-21Z" fill="#a11e2c" stroke="#a11e2c" stroke-width="1.51"/><path d="M-182,452L-145,513L-93,427Z" fill="#c8817c" stroke="#c8817c" stroke-width="1.51"/><path d="M-198,274L-182,452L-93,427Z" fill="#c2776f" stroke="#c2776f" stroke-width="1.51"/><path d="M-201,-210L-182,-109L-82,-190Z" fill="#840824" stroke="#840824" stroke-width="1.51"/><path d="M-213,756L-183,879L-80,737Z" fill="#ad7070" stroke="#ad7070" stroke-width="1.51"/><path d="M-214,680L-213,756L-80,737Z" fill="#b27777" stroke="#b27777" stroke-width="1.51"/><path d="M-187,1L-233,208L-117,176Z" fill="#ad4440" stroke="#ad4440" stroke-width="1.51"/><path d="M-145,513L-214,680L-101,560Z" fill="#c48584" stroke="#c48584" stroke-width="1.51"/><path d="M-233,208L-198,274L-117,176Z" fill="#b5594e" stroke="#b5594e" stroke-width="1.51"/><path d="M-183,879L-147,1087L-136,999Z" fill="#8e5555" stroke="#8e5555" stroke-width="1.51"/><path d="M-183,879L-223,1231L-147,1087Z" fill="#7b4648" stroke="#7b4648" stroke-width="1.51"/><path d="M-182,452L-214,680L-145,513Z" fill="#c28687" stroke="#c28687" stroke-width="1.51"/><path d="M-213,756L-223,1231L-183,879Z" fill="#8b5659" stroke="#8b5659" stroke-width="1.51"/><path d="M-198,274L-233,208L-182,452Z" fill="#b7685f" stroke="#b7685f" stroke-width="1.51"/><path d="M-233,208L-214,680L-182,452Z" fill="#bb7b78" stroke="#bb7b78" stroke-width="1.51"/><path d="M-201,-210L-187,1L-182,-109Z" fill="#8e0b26" stroke="#8e0b26" stroke-width="1.51"/><path d="M-201,-210L-233,208L-187,1Z" fill="#9b262f" stroke="#9b262f" stroke-width="1.51"/><path d="M-214,680L-223,1231L-213,756Z" fill="#956062" stroke="#956062" stroke-width="1.51"/><path d="M-233,208L-223,1231L-214,680Z" fill="#ab7577" stroke="#ab7577" stroke-width="1.51"/></svg>