<svg xmlns="http://www.w3.org/2000/svg" width="1920" height="1080"><path d="M158,1267L-257,1266L671,1294Z" fill="#7d818d" stroke="#7d818d" stroke-width="1.51"/><path d="M-32,-147L198,-149L1093,-203Z" fill="#d8f0c0" stroke="#d8f0c0" stroke-width="1.51"/><path d="M198,-149L542,-147L1093,-203Z" fill="#c3e7c3" stroke="#c3e7c3" stroke-width="1.51"/><path d="M1135,1277L671,1294L1589,1289Z" fill="#265e90" stroke="#265e90" stroke-width="1.51"/><path d="M1412,1256L1135,1277L1589,1289Z" fill="#1d4f8d" stroke="#1d4f8d" stroke-width="1.51"/><path d="M1093,-203L1534,-166L1721,-203Z" fill="#9fb5c2" stroke="#9fb5c2" stroke-width="1.51"/><path d="M1938,1276L1589,1289L2081,1274Z" fill="#192c7c" stroke="#192c7c" stroke-width="1.51"/><path d="M2003,1025L2081,1274L2116,1019Z" fill="#1d2f83" stroke="#1d2f83" stroke-width="1.51"/><path d="M2149,-47L2011,125L2152,125Z" fill="#7f8390" stroke="#7f8390" stroke-width="1.51"/><path d="M2119,288L2065,485L2178,590Z" fill="#416d93" stroke="#416d93" stroke-width="1.51"/><path d="M2152,125L2119,288L2178,590Z" fill="#51738e" stroke="#51738e" stroke-width="1.51"/><path d="M2149,-47L2152,125L2178,590Z" fill="#66798c" stroke="#66798c" stroke-width="1.51"/><path d="M2116,1019L2081,1274L2187,701Z" fill="#1a3882" stroke="#1a3882" stroke-width="1.51"/><path d="M2023,865L2074,922L2187,701Z" fill="#1f4d8f" stroke="#1f4d8f" stroke-width="1.51"/><path d="M2178,590L1995,750L2187,701Z" fill="#255d93" stroke="#255d93" stroke-width="1.51"/><path d="M1995,750L2023,865L2187,701Z" fill="#225695" stroke="#225695" stroke-width="1.51"/><path d="M2074,922L2116,1019L2187,701Z" fill="#1c4589" stroke="#1c4589" stroke-width="1.51"/><path d="M2149,-47L2178,590L2187,701Z" fill="#446d8d" stroke="#446d8d" stroke-width="1.51"/><path d="M2011,125L2119,288L2152,125Z" fill="#727e92" stroke="#727e92" stroke-width="1.51"/><path d="M2065,485L1995,750L2178,590Z" fill="#2e6598" stroke="#2e6598" stroke-width="1.51"/><path d="M1903,601L1995,750L2065,485Z" fill="#3369a2" stroke="#3369a2" stroke-width="1.51"/><path d="M1956,417L2065,485L2119,288Z" fill="#4e7499" stroke="#4e7499" stroke-width="1.51"/><path d="M2053,-127L1923,-23L2149,-47Z" fill="#8e8999" stroke="#8e8999" stroke-width="1.51"/><path d="M1923,-23L2011,125L2149,-47Z" fill="#888898" stroke="#888898" stroke-width="1.51"/><path d="M2003,1025L1938,1276L2081,1274Z" fill="#1b2b7d" stroke="#1b2b7d" stroke-width="1.51"/><path d="M2074,922L2003,1025L2116,1019Z" fill="#1e3c8a" stroke="#1e3c8a" stroke-width="1.51"/><path d="M2011,125L1961,294L2119,288Z" fill="#6c7e99" stroke="#6c7e99" stroke-width="1.51"/><path d="M1961,294L1956,417L2119,288Z" fill="#5a799c" stroke="#5a799c" stroke-width="1.51"/><path d="M2023,865L2003,1025L2074,922Z" fill="#1f428f" stroke="#1f428f" stroke-width="1.51"/><path d="M1815,1086L1938,1276L2003,1025Z" fill="#23328f" stroke="#23328f" stroke-width="1.51"/><path d="M1956,417L1903,601L2065,485Z" fill="#4172a3" stroke="#4172a3" stroke-width="1.51"/><path d="M1943,-202L1923,-23L2053,-127Z" fill="#948da4" stroke="#948da4" stroke-width="1.51"/><path d="M1767,223L1961,294L2011,125Z" fill="#7785a5" stroke="#7785a5" stroke-width="1.51"/><path d="M1923,-23L1863,49L2011,125Z" fill="#8b8ba1" stroke="#8b8ba1" stroke-width="1.51"/><path d="M1995,750L1814,740L2023,865Z" fill="#2859a1" stroke="#2859a1" stroke-width="1.51"/><path d="M1814,740L1812,941L2023,865Z" fill="#2854a3" stroke="#2854a3" stroke-width="1.51"/><path d="M1812,941L2003,1025L2023,865Z" fill="#234697" stroke="#234697" stroke-width="1.51"/><path d="M1863,49L1767,223L2011,125Z" fill="#868ba7" stroke="#868ba7" stroke-width="1.51"/><path d="M1815,1086L1785,1202L1938,1276Z" fill="#21338b" stroke="#21338b" stroke-width="1.51"/><path d="M1903,601L1814,740L1995,750Z" fill="#2f65a9" stroke="#2f65a9" stroke-width="1.51"/><path d="M1812,941L1815,1086L2003,1025Z" fill="#26419a" stroke="#26419a" stroke-width="1.51"/><path d="M1785,1202L1589,1289L1938,1276Z" fill="#1c3483" stroke="#1c3483" stroke-width="1.51"/><path d="M1764,-104L1923,-23L1943,-202Z" fill="#9992ad" stroke="#9992ad" stroke-width="1.51"/><path d="M1784,420L1903,601L1956,417Z" fill="#4a77ac" stroke="#4a77ac" stroke-width="1.51"/><path d="M1784,420L1956,417L1961,294Z" fill="#597ba8" stroke="#597ba8" stroke-width="1.51"/><path d="M1759,269L1784,420L1961,294Z" fill="#6283aa" stroke="#6283aa" stroke-width="1.51"/><path d="M1767,223L1759,269L1961,294Z" fill="#6f87aa" stroke="#6f87aa" stroke-width="1.51"/><path d="M1721,-203L1764,-104L1943,-202Z" fill="#9b98b5" stroke="#9b98b5" stroke-width="1.51"/><path d="M1783,630L1814,740L1903,601Z" fill="#336dad" stroke="#336dad" stroke-width="1.51"/><path d="M1784,420L1783,630L1903,601Z" fill="#3d77ae" stroke="#3d77ae" stroke-width="1.51"/><path d="M1764,-104L1863,49L1923,-23Z" fill="#9693a7" stroke="#9693a7" stroke-width="1.51"/><path d="M387,1258L158,1267L671,1294Z" fill="#6d7c8f" stroke="#6d7c8f" stroke-width="1.51"/><path d="M542,-147L888,-151L1093,-203Z" fill="#b3dec6" stroke="#b3dec6" stroke-width="1.51"/><path d="M1004,1258L671,1294L1135,1277Z" fill="#346993" stroke="#346993" stroke-width="1.51"/><path d="M1759,269L1725,308L1784,420Z" fill="#6088ad" stroke="#6088ad" stroke-width="1.51"/><path d="M1691,604L1783,630L1784,420Z" fill="#3b7cb1" stroke="#3b7cb1" stroke-width="1.51"/><path d="M1624,888L1812,941L1814,740Z" fill="#275ba7" stroke="#275ba7" stroke-width="1.51"/><path d="M1688,-38L1767,223L1863,49Z" fill="#8c95aa" stroke="#8c95aa" stroke-width="1.51"/><path d="M1764,-104L1688,-38L1863,49Z" fill="#9798aa" stroke="#9798aa" stroke-width="1.51"/><path d="M1688,-38L1648,205L1767,223Z" fill="#8698ac" stroke="#8698ac" stroke-width="1.51"/><path d="M1624,888L1646,1069L1812,941Z" fill="#2553a3" stroke="#2553a3" stroke-width="1.51"/><path d="M1783,630L1691,604L1814,740Z" fill="#3271af" stroke="#3271af" stroke-width="1.51"/><path d="M1691,604L1607,790L1814,740Z" fill="#2a71b1" stroke="#2a71b1" stroke-width="1.51"/><path d="M1607,790L1624,888L1814,740Z" fill="#2667ac" stroke="#2667ac" stroke-width="1.51"/><path d="M1812,941L1646,1069L1815,1086Z" fill="#26479d" stroke="#26479d" stroke-width="1.51"/><path d="M1646,1069L1785,1202L1815,1086Z" fill="#263e99" stroke="#263e99" stroke-width="1.51"/><path d="M1725,308L1618,392L1784,420Z" fill="#5889af" stroke="#5889af" stroke-width="1.51"/><path d="M1618,392L1691,604L1784,420Z" fill="#4884b1" stroke="#4884b1" stroke-width="1.51"/><path d="M1646,1069L1589,1289L1785,1202Z" fill="#213e90" stroke="#213e90" stroke-width="1.51"/><path d="M1093,-203L1344,-123L1534,-166Z" fill="#a1c0c4" stroke="#a1c0c4" stroke-width="1.51"/><path d="M1648,205L1759,269L1767,223Z" fill="#7491ad" stroke="#7491ad" stroke-width="1.51"/><path d="M1721,-203L1688,-38L1764,-104Z" fill="#9a9eb2" stroke="#9a9eb2" stroke-width="1.51"/><path d="M1648,205L1725,308L1759,269Z" fill="#6f8fae" stroke="#6f8fae" stroke-width="1.51"/><path d="M1448,65L1648,205L1688,-38Z" fill="#8ca2af" stroke="#8ca2af" stroke-width="1.51"/><path d="M1534,-166L1688,-38L1721,-203Z" fill="#9ba3b7" stroke="#9ba3b7" stroke-width="1.51"/><path d="M1648,205L1618,392L1725,308Z" fill="#6690b0" stroke="#6690b0" stroke-width="1.51"/><path d="M1571,223L1618,392L1648,205Z" fill="#6b96b1" stroke="#6b96b1" stroke-width="1.51"/><path d="M1505,631L1489,709L1607,790Z" fill="#267db7" stroke="#267db7" stroke-width="1.51"/><path d="M1624,888L1533,1070L1646,1069Z" fill="#2554a4" stroke="#2554a4" stroke-width="1.51"/><path d="M1533,1070L1589,1289L1646,1069Z" fill="#24479a" stroke="#24479a" stroke-width="1.51"/><path d="M1448,65L1571,223L1648,205Z" fill="#82a1b1" stroke="#82a1b1" stroke-width="1.51"/><path d="M1618,392L1505,631L1691,604Z" fill="#3887b5" stroke="#3887b5" stroke-width="1.51"/><path d="M1505,631L1607,790L1691,604Z" fill="#2b7bb4" stroke="#2b7bb4" stroke-width="1.51"/><path d="M1534,-166L1448,65L1688,-38Z" fill="#99a9b1" stroke="#99a9b1" stroke-width="1.51"/><path d="M1533,1070L1446,1194L1589,1289Z" fill="#224996" stroke="#224996" stroke-width="1.51"/><path d="M1438,400L1505,631L1618,392Z" fill="#4592b7" stroke="#4592b7" stroke-width="1.51"/><path d="M1463,943L1533,1070L1624,888Z" fill="#245da8" stroke="#245da8" stroke-width="1.51"/><path d="M1571,223L1453,286L1618,392Z" fill="#6699b3" stroke="#6699b3" stroke-width="1.51"/><path d="M1453,286L1438,400L1618,392Z" fill="#5999b6" stroke="#5999b6" stroke-width="1.51"/><path d="M1607,790L1463,943L1624,888Z" fill="#2366ac" stroke="#2366ac" stroke-width="1.51"/><path d="M1489,709L1463,943L1607,790Z" fill="#2372b2" stroke="#2372b2" stroke-width="1.51"/><path d="M1359,839L1463,943L1489,709Z" fill="#2376b4" stroke="#2376b4" stroke-width="1.51"/><path d="M1446,1194L1412,1256L1589,1289Z" fill="#1e498e" stroke="#1e498e" stroke-width="1.51"/><path d="M1344,-123L1448,65L1534,-166Z" fill="#9cb4b8" stroke="#9cb4b8" stroke-width="1.51"/><path d="M1448,65L1453,286L1571,223Z" fill="#7da5b4" stroke="#7da5b4" stroke-width="1.51"/><path d="M1438,400L1379,666L1505,631Z" fill="#3493bc" stroke="#3493bc" stroke-width="1.51"/><path d="M1463,943L1339,1051L1533,1070Z" fill="#275fa8" stroke="#275fa8" stroke-width="1.51"/><path d="M1339,1051L1446,1194L1533,1070Z" fill="#2957a5" stroke="#2957a5" stroke-width="1.51"/><path d="M1320,410L1379,666L1438,400Z" fill="#409dbd" stroke="#409dbd" stroke-width="1.51"/><path d="M1448,65L1312,83L1453,286Z" fill="#87b0b7" stroke="#87b0b7" stroke-width="1.51"/><path d="M1379,666L1489,709L1505,631Z" fill="#2a87b9" stroke="#2a87b9" stroke-width="1.51"/><path d="M1093,-203L1226,-116L1344,-123Z" fill="#a2c8c5" stroke="#a2c8c5" stroke-width="1.51"/><path d="M1344,-123L1289,22L1448,65Z" fill="#98bab7" stroke="#98bab7" stroke-width="1.51"/><path d="M1342,974L1339,1051L1463,943Z" fill="#2667ad" stroke="#2667ad" stroke-width="1.51"/><path d="M1379,666L1359,839L1489,709Z" fill="#2185ba" stroke="#2185ba" stroke-width="1.51"/><path d="M1320,410L1438,400L1453,286Z" fill="#58a2ba" stroke="#58a2ba" stroke-width="1.51"/><path d="M1280,353L1320,410L1453,286Z" fill="#5aa7bb" stroke="#5aa7bb" stroke-width="1.51"/><path d="M1312,83L1280,353L1453,286Z" fill="#74afba" stroke="#74afba" stroke-width="1.51"/><path d="M1359,839L1342,974L1463,943Z" fill="#236eb0" stroke="#236eb0" stroke-width="1.51"/><path d="M1339,1051L1245,1146L1446,1194Z" fill="#2a5ca6" stroke="#2a5ca6" stroke-width="1.51"/><path d="M1289,22L1312,83L1448,65Z" fill="#91b8b8" stroke="#91b8b8" stroke-width="1.51"/><path d="M1245,1146L1412,1256L1446,1194Z" fill="#245599" stroke="#245599" stroke-width="1.51"/><path d="M1186,293L1280,353L1312,83Z" fill="#74b6bc" stroke="#74b6bc" stroke-width="1.51"/><path d="M1320,410L1149,620L1379,666Z" fill="#31a0c2" stroke="#31a0c2" stroke-width="1.51"/><path d="M1245,1146L1135,1277L1412,1256Z" fill="#235b99" stroke="#235b99" stroke-width="1.51"/><path d="M1146,150L1186,293L1312,83Z" fill="#84bdbc" stroke="#84bdbc" stroke-width="1.51"/><path d="M1149,435L1149,620L1320,410Z" fill="#43aac2" stroke="#43aac2" stroke-width="1.51"/><path d="M1209,960L1342,974L1359,839Z" fill="#2375b3" stroke="#2375b3" stroke-width="1.51"/><path d="M1162,716L1359,839L1379,666Z" fill="#1f8dbf" stroke="#1f8dbf" stroke-width="1.51"/><path d="M1149,620L1162,716L1379,666Z" fill="#299ac1" stroke="#299ac1" stroke-width="1.51"/><path d="M1226,-116L1289,22L1344,-123Z" fill="#9ec2bd" stroke="#9ec2bd" stroke-width="1.51"/><path d="M1162,716L1209,960L1359,839Z" fill="#2484ba" stroke="#2484ba" stroke-width="1.51"/><path d="M1209,960L1339,1051L1342,974Z" fill="#276eb0" stroke="#276eb0" stroke-width="1.51"/><path d="M1209,960L1245,1146L1339,1051Z" fill="#2a6aae" stroke="#2a6aae" stroke-width="1.51"/><path d="M1280,353L1149,435L1320,410Z" fill="#52adbf" stroke="#52adbf" stroke-width="1.51"/><path d="M1289,22L1153,24L1312,83Z" fill="#94c1bb" stroke="#94c1bb" stroke-width="1.51"/><path d="M1153,24L1146,150L1312,83Z" fill="#90c2bb" stroke="#90c2bb" stroke-width="1.51"/><path d="M869,1239L671,1294L1004,1258Z" fill="#3f6d94" stroke="#3f6d94" stroke-width="1.51"/><path d="M1209,960L1088,1085L1245,1146Z" fill="#306dae" stroke="#306dae" stroke-width="1.51"/><path d="M1226,-116L1153,24L1289,22Z" fill="#9dc6bb" stroke="#9dc6bb" stroke-width="1.51"/><path d="M1186,293L1149,435L1280,353Z" fill="#5ab2bf" stroke="#5ab2bf" stroke-width="1.51"/><path d="M1149,435L1080,554L1149,620Z" fill="#3bacc3" stroke="#3bacc3" stroke-width="1.51"/><path d="M1162,716L1021,874L1209,960Z" fill="#2c89ba" stroke="#2c89ba" stroke-width="1.51"/><path d="M1088,1085L1135,1277L1245,1146Z" fill="#2f65a3" stroke="#2f65a3" stroke-width="1.51"/><path d="M1093,-203L1153,24L1226,-116Z" fill="#a2cbc1" stroke="#a2cbc1" stroke-width="1.51"/><path d="M1021,874L1088,1085L1209,960Z" fill="#327bb3" stroke="#327bb3" stroke-width="1.51"/><path d="M1063,518L1080,554L1149,435Z" fill="#44afc2" stroke="#44afc2" stroke-width="1.51"/><path d="M1093,-203L967,-2L1153,24Z" fill="#a3d0bd" stroke="#a3d0bd" stroke-width="1.51"/><path d="M1146,150L978,211L1186,293Z" fill="#7ec1bd" stroke="#7ec1bd" stroke-width="1.51"/><path d="M978,211L1008,347L1186,293Z" fill="#71c0be" stroke="#71c0be" stroke-width="1.51"/><path d="M1008,347L1149,435L1186,293Z" fill="#5eb7bf" stroke="#5eb7bf" stroke-width="1.51"/><path d="M1088,1085L1004,1258L1135,1277Z" fill="#31679e" stroke="#31679e" stroke-width="1.51"/><path d="M967,-2L1146,150L1153,24Z" fill="#97cabc" stroke="#97cabc" stroke-width="1.51"/><path d="M1149,620L978,713L1162,716Z" fill="#30a0c2" stroke="#30a0c2" stroke-width="1.51"/><path d="M978,713L1021,874L1162,716Z" fill="#2f99c0" stroke="#2f99c0" stroke-width="1.51"/><path d="M967,-2L978,211L1146,150Z" fill="#92ccbc" stroke="#92ccbc" stroke-width="1.51"/><path d="M1080,554L978,713L1149,620Z" fill="#36a7c3" stroke="#36a7c3" stroke-width="1.51"/><path d="M1008,347L1063,518L1149,435Z" fill="#52b5c1" stroke="#52b5c1" stroke-width="1.51"/><path d="M542,-147L780,-117L888,-151Z" fill="#b8e1c2" stroke="#b8e1c2" stroke-width="1.51"/><path d="M1008,347L914,426L1063,518Z" fill="#55bac2" stroke="#55bac2" stroke-width="1.51"/><path d="M838,1143L1004,1258L1088,1085Z" fill="#3a70a6" stroke="#3a70a6" stroke-width="1.51"/><path d="M1021,874L827,947L1088,1085Z" fill="#3883b4" stroke="#3883b4" stroke-width="1.51"/><path d="M827,947L838,1143L1088,1085Z" fill="#427cb0" stroke="#427cb0" stroke-width="1.51"/><path d="M888,-151L967,-2L1093,-203Z" fill="#a8d7c3" stroke="#a8d7c3" stroke-width="1.51"/><path d="M1063,518L850,617L1080,554Z" fill="#3eb1c4" stroke="#3eb1c4" stroke-width="1.51"/><path d="M850,617L978,713L1080,554Z" fill="#3aadc3" stroke="#3aadc3" stroke-width="1.51"/><path d="M978,713L907,769L1021,874Z" fill="#349cbf" stroke="#349cbf" stroke-width="1.51"/><path d="M914,426L850,617L1063,518Z" fill="#48b7c4" stroke="#48b7c4" stroke-width="1.51"/><path d="M967,-2L856,43L978,211Z" fill="#9ad3bc" stroke="#9ad3bc" stroke-width="1.51"/><path d="M838,1143L869,1239L1004,1258Z" fill="#3d6f9d" stroke="#3d6f9d" stroke-width="1.51"/><path d="M978,211L885,342L1008,347Z" fill="#70c5bf" stroke="#70c5bf" stroke-width="1.51"/><path d="M907,769L827,947L1021,874Z" fill="#3c93ba" stroke="#3c93ba" stroke-width="1.51"/><path d="M856,43L835,194L978,211Z" fill="#95d2bc" stroke="#95d2bc" stroke-width="1.51"/><path d="M885,342L914,426L1008,347Z" fill="#63c1c0" stroke="#63c1c0" stroke-width="1.51"/><path d="M791,490L850,617L914,426Z" fill="#54bbc2" stroke="#54bbc2" stroke-width="1.51"/><path d="M888,-151L856,43L967,-2Z" fill="#a9d9ba" stroke="#a9d9ba" stroke-width="1.51"/><path d="M835,194L885,342L978,211Z" fill="#80cabd" stroke="#80cabd" stroke-width="1.51"/><path d="M850,617L907,769L978,713Z" fill="#3da8c2" stroke="#3da8c2" stroke-width="1.51"/><path d="M827,947L728,1046L838,1143Z" fill="#4f82ae" stroke="#4f82ae" stroke-width="1.51"/><path d="M767,101L835,194L856,43Z" fill="#9ed6ba" stroke="#9ed6ba" stroke-width="1.51"/><path d="M780,-117L856,43L888,-151Z" fill="#afdcbd" stroke="#afdcbd" stroke-width="1.51"/><path d="M850,617L752,814L907,769Z" fill="#45a8c1" stroke="#45a8c1" stroke-width="1.51"/><path d="M752,814L827,947L907,769Z" fill="#4899b9" stroke="#4899b9" stroke-width="1.51"/><path d="M885,342L791,490L914,426Z" fill="#62c0c0" stroke="#62c0c0" stroke-width="1.51"/><path d="M835,194L737,270L885,342Z" fill="#83ccbc" stroke="#83ccbc" stroke-width="1.51"/><path d="M693,644L752,814L850,617Z" fill="#51aec0" stroke="#51aec0" stroke-width="1.51"/><path d="M780,-117L719,-12L856,43Z" fill="#b0ddb9" stroke="#b0ddb9" stroke-width="1.51"/><path d="M737,270L791,490L885,342Z" fill="#70c5be" stroke="#70c5be" stroke-width="1.51"/><path d="M755,957L728,1046L827,947Z" fill="#5089b1" stroke="#5089b1" stroke-width="1.51"/><path d="M838,1143L671,1294L869,1239Z" fill="#487199" stroke="#487199" stroke-width="1.51"/><path d="M752,814L755,957L827,947Z" fill="#4e92b6" stroke="#4e92b6" stroke-width="1.51"/><path d="M791,490L693,644L850,617Z" fill="#55b8c1" stroke="#55b8c1" stroke-width="1.51"/><path d="M719,-12L767,101L856,43Z" fill="#a9dab9" stroke="#a9dab9" stroke-width="1.51"/><path d="M607,1247L671,1294L728,1046Z" fill="#55789d" stroke="#55789d" stroke-width="1.51"/><path d="M737,270L620,331L791,490Z" fill="#78c9bd" stroke="#78c9bd" stroke-width="1.51"/><path d="M728,1046L671,1294L838,1143Z" fill="#5178a3" stroke="#5178a3" stroke-width="1.51"/><path d="M767,101L737,270L835,194Z" fill="#96d3ba" stroke="#96d3ba" stroke-width="1.51"/><path d="M-63,1241L-257,1266L158,1267Z" fill="#8a8794" stroke="#8a8794" stroke-width="1.51"/><path d="M581,1112L607,1247L728,1046Z" fill="#5e7da7" stroke="#5e7da7" stroke-width="1.51"/><path d="M615,194L737,270L767,101Z" fill="#9bd6b9" stroke="#9bd6b9" stroke-width="1.51"/><path d="M621,641L693,644L791,490Z" fill="#5dbac0" stroke="#5dbac0" stroke-width="1.51"/><path d="M532,467L621,641L791,490Z" fill="#66c2c0" stroke="#66c2c0" stroke-width="1.51"/><path d="M620,331L532,467L791,490Z" fill="#75c8bd" stroke="#75c8bd" stroke-width="1.51"/><path d="M752,814L574,859L755,957Z" fill="#5799b6" stroke="#5799b6" stroke-width="1.51"/><path d="M542,-147L719,-12L780,-117Z" fill="#bae2bc" stroke="#bae2bc" stroke-width="1.51"/><path d="M693,644L621,641L752,814Z" fill="#59b0bf" stroke="#59b0bf" stroke-width="1.51"/><path d="M719,-12L615,194L767,101Z" fill="#a8dbb8" stroke="#a8dbb8" stroke-width="1.51"/><path d="M524,791L574,859L621,641Z" fill="#67aebb" stroke="#67aebb" stroke-width="1.51"/><path d="M521,53L615,194L719,-12Z" fill="#b1dfb7" stroke="#b1dfb7" stroke-width="1.51"/><path d="M621,641L574,859L752,814Z" fill="#5ba9bc" stroke="#5ba9bc" stroke-width="1.51"/><path d="M574,859L728,1046L755,957Z" fill="#588fb1" stroke="#588fb1" stroke-width="1.51"/><path d="M574,859L581,1112L728,1046Z" fill="#608caf" stroke="#608caf" stroke-width="1.51"/><path d="M615,194L620,331L737,270Z" fill="#8fd2ba" stroke="#8fd2ba" stroke-width="1.51"/><path d="M607,1247L387,1258L671,1294Z" fill="#5d7791" stroke="#5d7791" stroke-width="1.51"/><path d="M542,-147L521,53L719,-12Z" fill="#bfe5b6" stroke="#bfe5b6" stroke-width="1.51"/><path d="M198,-149L426,-90L542,-147Z" fill="#d9f0bc" stroke="#d9f0bc" stroke-width="1.51"/><path d="M574,859L373,891L581,1112Z" fill="#6f96b0" stroke="#6f96b0" stroke-width="1.51"/><path d="M373,891L466,1151L581,1112Z" fill="#748cab" stroke="#748cab" stroke-width="1.51"/><path d="M581,1112L466,1151L607,1247Z" fill="#667ea0" stroke="#667ea0" stroke-width="1.51"/><path d="M521,53L411,150L615,194Z" fill="#b6e2b6" stroke="#b6e2b6" stroke-width="1.51"/><path d="M615,194L453,293L620,331Z" fill="#99d6b9" stroke="#99d6b9" stroke-width="1.51"/><path d="M453,293L532,467L620,331Z" fill="#8cd1bb" stroke="#8cd1bb" stroke-width="1.51"/><path d="M532,467L441,701L621,641Z" fill="#74c1be" stroke="#74c1be" stroke-width="1.51"/><path d="M441,701L524,791L621,641Z" fill="#6eb6bd" stroke="#6eb6bd" stroke-width="1.51"/><path d="M371,623L441,701L532,467Z" fill="#7fc5be" stroke="#7fc5be" stroke-width="1.51"/><path d="M426,-90L521,53L542,-147Z" fill="#cbeab7" stroke="#cbeab7" stroke-width="1.51"/><path d="M411,150L453,293L615,194Z" fill="#acddb7" stroke="#acddb7" stroke-width="1.51"/><path d="M466,1151L387,1258L607,1247Z" fill="#697d98" stroke="#697d98" stroke-width="1.51"/><path d="M373,891L319,1070L466,1151Z" fill="#7e91ab" stroke="#7e91ab" stroke-width="1.51"/><path d="M424,472L371,623L532,467Z" fill="#85ccbd" stroke="#85ccbd" stroke-width="1.51"/><path d="M524,791L373,891L574,859Z" fill="#72a5b6" stroke="#72a5b6" stroke-width="1.51"/><path d="M453,293L424,472L532,467Z" fill="#8fd1bb" stroke="#8fd1bb" stroke-width="1.51"/><path d="M426,-90L349,-31L521,53Z" fill="#cfecb4" stroke="#cfecb4" stroke-width="1.51"/><path d="M441,701L332,766L524,791Z" fill="#7bb5bb" stroke="#7bb5bb" stroke-width="1.51"/><path d="M332,766L373,891L524,791Z" fill="#7dadb7" stroke="#7dadb7" stroke-width="1.51"/><path d="M349,-31L411,150L521,53Z" fill="#c7e8b5" stroke="#c7e8b5" stroke-width="1.51"/><path d="M322,559L371,623L424,472Z" fill="#8bcdbd" stroke="#8bcdbd" stroke-width="1.51"/><path d="M268,248L424,472L453,293Z" fill="#a2d9b8" stroke="#a2d9b8" stroke-width="1.51"/><path d="M411,150L268,248L453,293Z" fill="#b6e2b6" stroke="#b6e2b6" stroke-width="1.51"/><path d="M319,1070L387,1258L466,1151Z" fill="#7a84a1" stroke="#7a84a1" stroke-width="1.51"/><path d="M349,-31L272,34L411,150Z" fill="#d1edb3" stroke="#d1edb3" stroke-width="1.51"/><path d="M272,34L298,144L411,150Z" fill="#cdebb4" stroke="#cdebb4" stroke-width="1.51"/><path d="M268,248L262,530L424,472Z" fill="#9fd7b9" stroke="#9fd7b9" stroke-width="1.51"/><path d="M198,-149L349,-31L426,-90Z" fill="#def2b8" stroke="#def2b8" stroke-width="1.51"/><path d="M371,623L332,766L441,701Z" fill="#83bdbc" stroke="#83bdbc" stroke-width="1.51"/><path d="M249,973L319,1070L373,891Z" fill="#859bae" stroke="#859bae" stroke-width="1.51"/><path d="M298,144L268,248L411,150Z" fill="#c3e7b5" stroke="#c3e7b5" stroke-width="1.51"/><path d="M142,404L262,530L268,248Z" fill="#a8dbb8" stroke="#a8dbb8" stroke-width="1.51"/><path d="M262,530L322,559L424,472Z" fill="#93d0bc" stroke="#93d0bc" stroke-width="1.51"/><path d="M319,1070L196,1219L387,1258Z" fill="#80869c" stroke="#80869c" stroke-width="1.51"/><path d="M196,1219L158,1267L387,1258Z" fill="#7d8291" stroke="#7d8291" stroke-width="1.51"/><path d="M156,595L332,766L371,623Z" fill="#8ec5bc" stroke="#8ec5bc" stroke-width="1.51"/><path d="M322,559L156,595L371,623Z" fill="#91cbbc" stroke="#91cbbc" stroke-width="1.51"/><path d="M332,766L155,860L373,891Z" fill="#89aeb5" stroke="#89aeb5" stroke-width="1.51"/><path d="M155,860L249,973L373,891Z" fill="#8aa5b1" stroke="#8aa5b1" stroke-width="1.51"/><path d="M262,530L156,595L322,559Z" fill="#96d0bc" stroke="#96d0bc" stroke-width="1.51"/><path d="M198,-149L272,34L349,-31Z" fill="#dff2b3" stroke="#dff2b3" stroke-width="1.51"/><path d="M-32,-147L82,-122L198,-149Z" fill="#eff9bb" stroke="#eff9bb" stroke-width="1.51"/><path d="M156,595L95,811L332,766Z" fill="#92c0bb" stroke="#92c0bb" stroke-width="1.51"/><path d="M95,811L155,860L332,766Z" fill="#90b4b6" stroke="#90b4b6" stroke-width="1.51"/><path d="M131,1026L196,1219L319,1070Z" fill="#8c8ea7" stroke="#8c8ea7" stroke-width="1.51"/><path d="M249,973L131,1026L319,1070Z" fill="#8b97ab" stroke="#8b97ab" stroke-width="1.51"/><path d="M198,-149L155,61L272,34Z" fill="#e0f2b2" stroke="#e0f2b2" stroke-width="1.51"/><path d="M272,34L155,61L298,144Z" fill="#d5efb3" stroke="#d5efb3" stroke-width="1.51"/><path d="M155,61L268,248L298,144Z" fill="#cdebb4" stroke="#cdebb4" stroke-width="1.51"/><path d="M50,242L142,404L268,248Z" fill="#bae3b6" stroke="#bae3b6" stroke-width="1.51"/><path d="M155,61L55,193L268,248Z" fill="#d0ecb4" stroke="#d0ecb4" stroke-width="1.51"/><path d="M82,-122L155,61L198,-149Z" fill="#e8f6b4" stroke="#e8f6b4" stroke-width="1.51"/><path d="M55,193L50,242L268,248Z" fill="#c8e8b5" stroke="#c8e8b5" stroke-width="1.51"/><path d="M142,404L156,595L262,530Z" fill="#9ed5bc" stroke="#9ed5bc" stroke-width="1.51"/><path d="M155,860L131,1026L249,973Z" fill="#8fa1ae" stroke="#8fa1ae" stroke-width="1.51"/><path d="M82,-122L15,-38L155,61Z" fill="#e9f6b2" stroke="#e9f6b2" stroke-width="1.51"/><path d="M-60,1114L158,1267L196,1219Z" fill="#8b8899" stroke="#8b8899" stroke-width="1.51"/><path d="M131,1026L-60,1114L196,1219Z" fill="#938fa6" stroke="#938fa6" stroke-width="1.51"/><path d="M142,404L-28,566L156,595Z" fill="#a4d6bb" stroke="#a4d6bb" stroke-width="1.51"/><path d="M-69,453L-28,566L142,404Z" fill="#addbbb" stroke="#addbbb" stroke-width="1.51"/><path d="M20,864L131,1026L155,860Z" fill="#94a7b0" stroke="#94a7b0" stroke-width="1.51"/><path d="M95,811L20,864L155,860Z" fill="#96b1b4" stroke="#96b1b4" stroke-width="1.51"/><path d="M-2,800L95,811L156,595Z" fill="#99c1bb" stroke="#99c1bb" stroke-width="1.51"/><path d="M-28,566L-2,800L156,595Z" fill="#a0cabb" stroke="#a0cabb" stroke-width="1.51"/><path d="M-60,1114L-63,1241L158,1267Z" fill="#8e8a99" stroke="#8e8a99" stroke-width="1.51"/><path d="M15,-38L55,193L155,61Z" fill="#e0f2b2" stroke="#e0f2b2" stroke-width="1.51"/><path d="M50,242L-69,453L142,404Z" fill="#b7e1b7" stroke="#b7e1b7" stroke-width="1.51"/><path d="M20,864L-60,1114L131,1026Z" fill="#989eac" stroke="#989eac" stroke-width="1.51"/><path d="M-28,566L-140,672L-2,800Z" fill="#a1c9c0" stroke="#a1c9c0" stroke-width="1.51"/><path d="M-149,922L-60,1114L20,864Z" fill="#9aa3b3" stroke="#9aa3b3" stroke-width="1.51"/><path d="M-95,251L-69,453L50,242Z" fill="#c1e5ba" stroke="#c1e5ba" stroke-width="1.51"/><path d="M15,-38L-87,190L55,193Z" fill="#dff3b5" stroke="#dff3b5" stroke-width="1.51"/><path d="M-2,800L20,864L95,811Z" fill="#9ab6b5" stroke="#9ab6b5" stroke-width="1.51"/><path d="M-32,-147L15,-38L82,-122Z" fill="#f1f9b8" stroke="#f1f9b8" stroke-width="1.51"/><path d="M-149,922L-162,1052L-60,1114Z" fill="#9b9cb3" stroke="#9b9cb3" stroke-width="1.51"/><path d="M-87,190L50,242L55,193Z" fill="#d2edb5" stroke="#d2edb5" stroke-width="1.51"/><path d="M-87,190L-95,251L50,242Z" fill="#d0ecb9" stroke="#d0ecb9" stroke-width="1.51"/><path d="M-256,16L-87,190L15,-38Z" fill="#e8f6bb" stroke="#e8f6bb" stroke-width="1.51"/><path d="M-2,800L-149,922L20,864Z" fill="#9bb1b8" stroke="#9bb1b8" stroke-width="1.51"/><path d="M-32,-147L-182,-130L15,-38Z" fill="#f3fabe" stroke="#f3fabe" stroke-width="1.51"/><path d="M-182,-130L-256,16L15,-38Z" fill="#f3fabd" stroke="#f3fabd" stroke-width="1.51"/><path d="M-140,672L-149,922L-2,800Z" fill="#9ebbbe" stroke="#9ebbbe" stroke-width="1.51"/><path d="M-254,729L-149,922L-140,672Z" fill="#a0bfc5" stroke="#a0bfc5" stroke-width="1.51"/><path d="M-69,453L-191,480L-28,566Z" fill="#addbc2" stroke="#addbc2" stroke-width="1.51"/><path d="M-191,480L-140,672L-28,566Z" fill="#a8d5c4" stroke="#a8d5c4" stroke-width="1.51"/><path d="M-95,251L-191,480L-69,453Z" fill="#b9e1c1" stroke="#b9e1c1" stroke-width="1.51"/><path d="M-268,271L-191,480L-95,251Z" fill="#c2e6c4" stroke="#c2e6c4" stroke-width="1.51"/><path d="M-256,16L-249,192L-87,190Z" fill="#e3f4c1" stroke="#e3f4c1" stroke-width="1.51"/><path d="M-162,1052L-257,1266L-63,1241Z" fill="#948da6" stroke="#948da6" stroke-width="1.51"/><path d="M-162,1052L-63,1241L-60,1114Z" fill="#9890ab" stroke="#9890ab" stroke-width="1.51"/><path d="M-249,192L-95,251L-87,190Z" fill="#d5efbe" stroke="#d5efbe" stroke-width="1.51"/><path d="M-249,192L-268,271L-95,251Z" fill="#d3edc3" stroke="#d3edc3" stroke-width="1.51"/><path d="M-191,480L-254,729L-140,672Z" fill="#a7d0c9" stroke="#a7d0c9" stroke-width="1.51"/><path d="M-254,729L-162,1052L-149,922Z" fill="#9eadbe" stroke="#9eadbe" stroke-width="1.51"/><path d="M-254,729L-257,1266L-162,1052Z" fill="#9d9fba" stroke="#9d9fba" stroke-width="1.51"/><path d="M-268,271L-254,729L-191,480Z" fill="#b1dccb" stroke="#b1dccb" stroke-width="1.51"/><path d="M-256,16L-268,271L-249,192Z" fill="#e2f3c5" stroke="#e2f3c5" stroke-width="1.51"/><path d="M-268,271L-257,1266L-254,729Z" fill="#a3c3cb" stroke="#a3c3cb" stroke-width="1.51"/></svg>